<?xml version="1.0" encoding="UTF-8" standalone="no"?>
<!-- Created with Inkscape (http://www.inkscape.org/) -->

<svg
   xmlns:dc="http://purl.org/dc/elements/1.1/"
   xmlns:cc="http://creativecommons.org/ns#"
   xmlns:rdf="http://www.w3.org/1999/02/22-rdf-syntax-ns#"
   xmlns:svg="http://www.w3.org/2000/svg"
   xmlns="http://www.w3.org/2000/svg"
   xmlns:sodipodi="http://sodipodi.sourceforge.net/DTD/sodipodi-0.dtd"
   xmlns:inkscape="http://www.inkscape.org/namespaces/inkscape"
   width="500"
   height="195"
   viewBox="0 0 132.29167 51.593751"
   version="1.1"
   id="svg1264"
   inkscape:version="0.92.2 (unknown)"
   sodipodi:docname="arduino-logo.svg">
  <defs
     id="defs1258" />
  <sodipodi:namedview
     id="base"
     pagecolor="#ffffff"
     bordercolor="#666666"
     borderopacity="1.0"
     inkscape:pageopacity="0.0"
     inkscape:pageshadow="2"
     inkscape:zoom="0.7"
     inkscape:cx="289.05741"
     inkscape:cy="274.08266"
     inkscape:document-units="mm"
     inkscape:current-layer="layer1"
     showgrid="false"
     inkscape:window-width="1024"
     inkscape:window-height="713"
     inkscape:window-x="0"
     inkscape:window-y="27"
     inkscape:window-maximized="1"
     units="px" />
  <metadata
     id="metadata1261">
    <rdf:RDF>
      <cc:Work
         rdf:about="">
        <dc:format>image/svg+xml</dc:format>
        <dc:type
           rdf:resource="http://purl.org/dc/dcmitype/StillImage" />
        <dc:title></dc:title>
      </cc:Work>
    </rdf:RDF>
  </metadata>
  <g
     inkscape:label="Camada 1"
     inkscape:groupmode="layer"
     id="layer1"
     transform="translate(0,-245.40625)">
    <g
       id="g2014"
       transform="matrix(0.9736757,0,0,0.9736757,-40.581776,144.81708)">
      <g
         id="LOGO"
         transform="matrix(0.26458333,0,0,0.26458333,-14.746625,51.18447)">
        <g
           id="g78">
          <path
             id="path2"
             d="m 345.23,245.898 0.872,-1.612 c -8.086,-4.307 -16.404,-7.133 -24.769,-8.328 -3.465,-0.491 -6.956,-0.74 -10.377,-0.74 -27.598,0 -52.288,16.601 -61.44,41.308 l 8.883,3.289 c 7.781,-21.009 28.903,-35.124 52.558,-35.124 2.978,0 6.021,0.217 9.042,0.646 16.037,2.291 31.447,11.039 45.803,26 l 5.229,-5.019 c -7.064,-7.549 -15.685,-14.948 -25.801,-20.42 z"
             inkscape:connector-curvature="0"
             style="fill:#62aeb2" />
          <path
             id="path4"
             d="m 280.472,356.516 c -23.789,-11.059 -39.16,-34.446 -39.16,-59.582 0,-12.716 3.727,-25.022 10.776,-35.588 2.682,-4.024 5.851,-7.796 9.416,-11.21 l 4.367,4.562 c -3.233,3.094 -6.103,6.509 -8.53,10.15 -6.355,9.526 -9.715,20.62 -9.715,32.085 0,23.038 13.605,43.675 35.508,53.855 z"
             inkscape:connector-curvature="0"
             style="fill:#62aeb2" />
          <path
             id="path6"
             d="m 396.354,304.689 -2.738,-6.389 c -0.25,-0.493 -0.595,-1.154 -1.013,-1.933 -4.795,9.08 -30.021,53.416 -71.498,59.339 -3.387,0.484 -6.88,1.592 -10.183,1.592 -9.66,-0.004 -18.926,-2.037 -27.538,-6.044 l -3.162,5.795 c 9.61,4.471 19.938,6.739 30.705,6.743 3.651,0 7.397,-0.271 11.134,-0.805 40.02,-5.716 65.279,-42.317 74.582,-58.423 z"
             inkscape:connector-curvature="0"
             style="fill:#62aeb2" />
          <path
             id="path8"
             d="m 405.128,335.549 c -8.114,11.026 -17.068,20.572 -26.674,28.371 l 2.318,2.854 c 9.499,-7.713 18.374,-17.07 26.441,-27.847 16.509,22.525 43.977,49.245 83.794,54.929 l 0.943,-6.603 c -40.696,-5.811 -67.953,-34.586 -84.16,-59.075 -0.763,-1.156 -2.662,7.371 -2.662,7.371 z"
             inkscape:connector-curvature="0"
             style="fill:#e47128" />
          <path
             id="path10"
             d="m 511.482,362.999 c -5.256,0.344 -10.605,0.145 -15.971,-0.622 -12.228,-1.748 -24.078,-6.63 -35.223,-14.511 l -3.465,4.898 c 11.929,8.436 24.659,13.668 37.838,15.552 3.966,0.567 7.967,0.854 11.891,0.854 1.651,0 3.293,-0.063 4.93,-0.163 z"
             inkscape:connector-curvature="0"
             style="fill:#e5ad24" />
          <path
             id="path12"
             d="m 399.523,303.331 -3.17,1.358 -2.738,-6.389 c -2.051,-4.038 -9.736,-18.259 -22.584,-31.983 l -5.229,5.019 c 11.268,11.742 18.037,23.381 20.425,27.84 l 9.612,16.774 8.217,-4.711 z"
             inkscape:connector-curvature="0"
             style="fill:#e47128" />
          <path
             id="path14"
             d="m 506.553,357.661 c -3.405,0 -6.858,-0.248 -10.263,-0.738 -42.807,-6.113 -67.851,-49.576 -72.437,-58.228 l 6.623,-3.51 c 2.628,4.957 26.83,48.599 66.878,54.318 3.056,0.439 6.148,0.663 9.198,0.663 v 7.495 z"
             inkscape:connector-curvature="0"
             style="fill:#62aeb2" />
          <path
             id="path16"
             d="m 566.199,280.234 c -2.853,-9.264 -8.175,-17.812 -15.393,-24.721 -9.459,-9.048 -21.471,-14.832 -34.738,-16.726 l 1.213,-8.492 c 15.051,2.147 28.694,8.725 39.456,19.02 8.272,7.918 14.379,17.736 17.661,28.394 z"
             inkscape:connector-curvature="0"
             style="fill:#00878f" />
          <path
             id="path18"
             d="m 451.607,252.945 -4.043,-4.604 c 14.56,-12.787 30.402,-20.478 47.089,-22.858 3.94,-0.563 7.934,-0.849 11.867,-0.849 20.32,0 39.357,7.507 53.604,21.139 l -4.236,4.428 c -13.101,-12.535 -30.633,-19.439 -49.367,-19.439 -3.645,0 -7.346,0.266 -11.001,0.788 -15.489,2.209 -30.263,9.408 -43.913,21.395 z"
             inkscape:connector-curvature="0"
             style="fill:#00878f" />
          <path
             id="path20"
             d="m 420.48,312.622 -21.253,-10.11 5.055,-10.627 c 3.283,-6.899 15.691,-30.904 37.54,-50.085 l 8.844,-7.764 15.527,17.688 -8.844,7.764 c -18.944,16.63 -29.825,38.328 -31.813,42.509 z"
             inkscape:connector-curvature="0"
             style="fill:#e5ad24" />
          <path
             id="path22"
             d="m 240.581,325.311 c -3.925,-8.957 -5.915,-18.505 -5.915,-28.377 0,-19.555 7.901,-37.88 22.248,-51.602 5.012,-4.794 10.668,-8.883 16.812,-12.153 l 3.455,6.49 c -5.55,2.955 -10.659,6.647 -15.186,10.978 -12.882,12.32 -19.977,28.759 -19.977,46.287 0,8.851 1.782,17.404 5.296,25.426 z"
             inkscape:connector-curvature="0"
             style="fill:#00878f" />
          <path
             id="path24"
             d="m 265.907,254.738 -4.439,-4.643 c 13.137,-12.562 30.713,-19.48 49.489,-19.48 3.66,0 7.372,0.265 11.032,0.787 8.964,1.281 17.812,4.258 26.297,8.846 l -3.055,5.65 c -7.816,-4.226 -15.941,-6.963 -24.151,-8.137 -3.359,-0.479 -6.766,-0.723 -10.123,-0.723 -17.114,10e-4 -33.113,6.287 -45.05,17.7 z"
             inkscape:connector-curvature="0"
             style="fill:#e5ad24" />
          <path
             id="path26"
             d="m 221.919,296.934 h -3.922 c 0,-24.146 9.729,-46.749 27.395,-63.645 l 2.711,2.834 c -16.885,16.149 -26.184,37.745 -26.184,60.811 z"
             inkscape:connector-curvature="0"
             style="fill:#e5ad24" />
          <path
             id="path28"
             d="m 377.118,229.892 c -15.847,-12.668 -33.217,-20.424 -51.628,-23.053 -4.822,-0.688 -9.712,-1.036 -14.533,-1.036 -19.073,0 -37.384,5.363 -52.953,15.511 l -2.855,-4.381 c 16.42,-10.703 35.719,-16.36 55.809,-16.36 5.067,0 10.206,0.366 15.272,1.089 19.349,2.763 37.568,10.887 54.154,24.145 z"
             inkscape:connector-curvature="0"
             style="fill:#00878f" />
          <path
             id="path30"
             d="m 413.901,263.84 -10.318,-7.281 c 16.506,-23.396 45.024,-52.546 87.146,-58.56 l 1.785,12.502 c -37.663,5.378 -63.538,31.974 -78.613,53.339 z"
             inkscape:connector-curvature="0"
             style="fill:#00878f" />
          <path
             id="path32"
             d="m 425.715,265.347 -7.301,-5.52 c 14.446,-19.11 39.062,-42.947 74.293,-47.974 4.582,-0.655 9.23,-0.987 13.813,-0.987 11.874,0 23.376,2.166 34.187,6.438 l -3.363,8.512 c -9.735,-3.847 -20.105,-5.797 -30.823,-5.797 -4.151,0 -8.363,0.302 -12.52,0.896 -32.146,4.586 -54.877,26.693 -68.286,44.432 z"
             inkscape:connector-curvature="0"
             style="fill:#62aeb2" />
          <path
             id="path34"
             d="m 410.996,280.249 -10.215,-4.158 3.037,-7.463 0.262,-0.413 c 13.188,-20.874 42.108,-56.862 87.627,-63.356 4.915,-0.702 9.899,-1.058 14.813,-1.058 v 11.029 c -4.394,0 -8.854,0.319 -13.254,0.947 -38.844,5.542 -64.693,34.458 -79.603,57.918 z"
             inkscape:connector-curvature="0"
             style="fill:#62aeb2" />
          <path
             id="path36"
             d="m 410.822,268.945 -5.285,-6.484 c -8.783,-12.447 -18.619,-23.062 -29.235,-31.549 l 4.898,-6.128 c 11.16,8.922 21.479,20.038 30.667,33.04 l 5.031,6.158 z"
             inkscape:connector-curvature="0"
             style="fill:#62aeb2" />
          <path
             id="path38"
             d="m 573.146,232.169 c -17.769,-17.003 -41.43,-26.366 -66.625,-26.366 -4.817,0 -9.706,0.349 -14.53,1.036 l -0.738,-5.178 c 5.067,-0.723 10.205,-1.089 15.269,-1.089 26.549,0 51.494,9.879 70.24,27.817 z"
             inkscape:connector-curvature="0"
             style="fill:#e47128" />
          <path
             id="path40"
             d="m 324.215,378.084 -1.906,-13.346 c 53.362,-7.618 79.951,-69.773 80.213,-70.4 1.182,-2.841 29.705,-69.851 90.745,-78.562 l 1.904,13.346 c -53.525,7.638 -79.944,69.772 -80.205,70.399 -1.186,2.85 -29.727,69.85 -90.751,78.563 z"
             inkscape:connector-curvature="0"
             style="fill:#00878f" />
          <path
             id="path42"
             d="m 268.146,364.592 5.853,-10.072 c 14.362,8.344 31.006,11.457 48.135,9.006 l 1.65,11.526 c 11.158,-1.593 22.06,-5.413 32.401,-11.353 l -9.766,-17.004 c -8.176,4.696 -16.726,7.706 -25.413,8.946 -3.368,0.481 -6.759,0.725 -10.084,0.725 -16.981,-10e-4 -32.855,-6.243 -44.698,-17.576 -5.736,-5.49 -10.21,-11.846 -13.295,-18.889 l -16.833,7.373 c 4.019,9.171 9.881,17.582 17.419,24.796 l -0.848,0.886 c 4.715,4.512 9.913,8.398 15.479,11.636 z"
             inkscape:connector-curvature="0"
             style="fill:#00878f" />
          <path
             id="path44"
             d="m 310.927,381.103 c -23.386,-0.001 -45.333,-8.682 -61.805,-24.441 l 3.701,-3.868 c 15.471,14.803 36.104,22.955 58.098,22.956 4.24,0 8.554,-0.31 12.827,-0.921 44.007,-6.285 70.607,-43.525 82.582,-65.257 l 3.037,-7.188 4.932,2.084 -3.211,7.564 c -12.424,22.588 -40.193,61.472 -86.582,68.096 -4.524,0.646 -9.092,0.975 -13.579,0.975 z"
             inkscape:connector-curvature="0"
             style="fill:#00878f" />
          <path
             id="path46"
             d="m 310.927,395.585 c -27.139,-0.004 -52.641,-10.112 -71.815,-28.463 l 6.779,-7.084 c 17.341,16.597 40.436,25.738 65.031,25.742 4.719,0 9.51,-0.344 14.243,-1.022 18.344,-2.621 35.622,-10.432 51.357,-23.216 l 6.182,7.609 c -17.134,13.92 -36.025,22.437 -56.15,25.312 -5.191,0.744 -10.449,1.122 -15.627,1.122 z"
             inkscape:connector-curvature="0"
             style="fill:#00878f" />
          <path
             id="path48"
             d="m 325.601,387.789 -1.213,-8.492 c 39.533,-5.645 65.689,-35.059 80.683,-58.772 0.459,-0.796 4.496,-7.801 6.042,-10.741 l 7.594,3.992 c -1.712,3.255 -6.065,10.794 -6.25,11.113 l -0.087,0.146 c -15.953,25.253 -43.955,56.641 -86.769,62.754 z"
             inkscape:connector-curvature="0"
             style="fill:#e5ad24" />
          <path
             id="path50"
             d="m 268.458,364.057 c -24.613,-14.292 -39.307,-39.385 -39.307,-67.123 0,-4.036 0.317,-8.083 0.944,-12.027 l 6.051,0.961 c -0.575,3.628 -0.868,7.351 -0.868,11.066 0,25.529 13.554,48.642 36.256,61.824 z"
             inkscape:connector-curvature="0"
             style="fill:#62aeb2" />
          <path
             id="path52"
             d="m 238.933,286.309 -11.623,-1.844 c 3.364,-21.195 15.08,-39.924 32.991,-52.735 18.191,-13.013 40.842,-18.38 63.796,-15.105 5.169,0.739 10.318,1.945 15.307,3.584 l -3.674,11.18 c -4.335,-1.424 -8.809,-2.472 -13.297,-3.114 -40.727,-5.797 -77.413,19.682 -83.5,58.034 z"
             inkscape:connector-curvature="0"
             style="fill:#e47128" />
          <path
             id="path54"
             d="M 237.418,368.893 C 226.687,358.626 218.56,346.567 213.262,333.05 l 13.691,-5.367 c 4.514,11.515 11.455,21.805 20.631,30.584 z"
             inkscape:connector-curvature="0"
             style="fill:#e5ad24" />
          <path
             id="path56"
             d="m 310.927,388.842 c -25.394,-0.003 -49.241,-9.446 -67.157,-26.591 -16.307,-15.605 -26.196,-36.384 -27.847,-58.507 l -0.009,-0.159 -0.242,-6.491 8.572,-0.32 0.239,6.41 c 1.51,19.978 10.464,38.75 25.218,52.87 16.312,15.609 38.054,24.207 61.221,24.21 4.453,0 8.982,-0.325 13.465,-0.967 l 1.215,8.492 c -4.884,0.698 -9.822,1.053 -14.675,1.053 z"
             inkscape:connector-curvature="0"
             style="fill:#62aeb2" />
          <path
             id="path58"
             d="m 350.312,358.852 -2.665,-4.644 2.321,-1.332 c 30.274,-17.379 47.186,-50.602 50.269,-57.085 l 1.149,-2.417 4.834,2.299 -1.149,2.417 c -3.202,6.735 -20.781,41.258 -52.437,59.429 z"
             inkscape:connector-curvature="0"
             style="fill:#e5ad24" />
          <path
             id="path60"
             d="m 417.194,293.418 c -0.268,-0.643 -2.177,-5.146 -5.808,-11.729 l 1.363,-0.751 c -12.627,-22.914 -40.847,-62.358 -87.973,-69.085 -4.584,-0.655 -9.234,-0.987 -13.82,-0.987 v 9.152 c 4.154,0 8.368,0.302 12.526,0.896 5.095,0.728 9.944,1.895 14.571,3.399 l -3.348,10.179 c 43.5,14.308 65.375,65.454 65.586,65.956 1.206,2.899 30.249,71.119 92.633,80.023 l 2.586,-18.121 c -51.977,-7.419 -78.062,-68.328 -78.316,-68.932 z"
             inkscape:connector-curvature="0"
             style="fill:#00878f" />
          <path
             id="path62"
             d="m 588.917,296.934 h -7.354 c 0,-20.25 -8.935,-39.615 -24.514,-53.13 -16.736,-14.519 -39.445,-20.973 -62.312,-17.715 L 493.7,218.81 c 24.973,-3.564 49.821,3.523 68.168,19.439 17.19,14.912 27.049,36.302 27.049,58.685 z"
             inkscape:connector-curvature="0"
             style="fill:#e5ad24" />
          <rect
             id="rect64"
             height="61.699001"
             width="19.886999"
             y="266.091"
             x="301.64801"
             style="fill:#e5ad24" />
          <rect
             id="rect66"
             height="19.889999"
             width="61.695"
             y="286.99799"
             x="280.74301"
             style="fill:#00878f" />
          <path
             id="path68"
             d="m 607.156,305.922 -7.859,-0.729 c 0.251,-2.714 0.379,-5.492 0.379,-8.26 0,-24.208 -9.749,-46.866 -27.451,-63.803 l 5.457,-5.703 c 19.272,18.439 29.887,43.124 29.887,69.506 -10e-4,3.009 -0.139,6.034 -0.413,8.989 z"
             inkscape:connector-curvature="0"
             style="fill:#62aeb2" />
          <path
             id="path70"
             d="m 580.115,310.515 -5.131,-1.02 c 0.824,-4.148 1.242,-8.411 1.242,-12.669 0,-17.818 -7.21,-34.53 -20.301,-47.057 l 3.615,-3.779 c 14.133,13.523 21.916,31.577 21.916,50.836 10e-4,4.6 -0.451,9.205 -1.341,13.689 z"
             inkscape:connector-curvature="0"
             style="fill:#00878f" />
          <path
             id="path72"
             d="m 571.13,311.774 -11.875,-3.027 c 0.978,-3.834 1.473,-7.809 1.474,-11.814 0,-28.039 -24.317,-50.851 -54.208,-50.851 -2.91,0 -5.886,0.213 -8.845,0.632 -0.783,0.112 -1.564,0.241 -2.342,0.384 l -2.211,-12.055 c 0.938,-0.172 1.877,-0.326 2.827,-0.462 3.532,-0.501 7.087,-0.755 10.57,-0.755 36.648,0 66.464,28.311 66.464,63.107 -0.001,5.027 -0.625,10.019 -1.854,14.841 z"
             inkscape:connector-curvature="0"
             style="fill:#e47128" />
          <path
             id="path74"
             d="m 472.94,248.847 -1.413,-2.549 c -28.136,15.598 -44.606,46.13 -47.623,52.093 l -2.979,6.064 -3.151,-1.549 -1.299,2.885 11.18,5.02 5.012,-11.162 c 2.948,-5.463 25.839,-45.765 62.673,-52.552 l -1.108,-6.016 c -7.232,1.336 -14.381,3.938 -21.292,7.766 z"
             inkscape:connector-curvature="0"
             style="fill:#00878f" />
          <path
             id="path76"
             d="m 506.553,383.94 c -4.619,0 -9.324,-0.338 -13.984,-1.004 -20.805,-2.971 -40.108,-12.638 -57.375,-28.731 l 7.52,-8.068 c 15.586,14.527 32.885,23.235 51.415,25.882 4.951,0.706 9.925,0.976 14.812,0.861 l 0.258,11.027 c -0.883,0.021 -1.763,0.033 -2.646,0.033 z"
             inkscape:connector-curvature="0"
             style="fill:#62aeb2" />
        </g>
      </g>
      <path
         id="path81"
         d="m 124.05062,141.69076 1.55231,-4.94665 h 1.37742 l 1.57533,4.94665 h -1.30122 l -0.27411,-1.01204 h -1.42293 l -0.25109,1.01204 z m 2.19154,-3.77455 -0.44873,1.81134 h 0.93583 z"
         style="fill:#00878f;stroke-width:0.26458332"
         inkscape:connector-curvature="0" />
      <path
         id="path83"
         d="m 129.3399,136.74411 h 1.9939 c 1.36975,0 1.88727,0.70008 1.88727,1.65152 0,0.67734 -0.27384,1.19486 -0.81412,1.48379 l 0.96626,1.81134 h -1.44595 l -0.74559,-1.56766 h -0.61648 v 1.56766 h -1.22529 z m 2.57995,1.6592 c 0,-0.44133 -0.1598,-0.66199 -0.73078,-0.66199 h -0.62388 v 1.40018 h 0.6469 c 0.42625,0 0.70776,-0.19024 0.70776,-0.73819 z"
         style="fill:#00878f;stroke-width:0.26458332"
         inkscape:connector-curvature="0" />
      <path
         id="path85"
         d="m 134.21115,136.74411 h 1.62083 c 1.84918,0 2.46566,0.8755 2.46566,2.42781 0,1.17211 -0.35772,2.5191 -2.45798,2.5191 h -1.62851 z m 1.22528,0.99721 v 2.93767 h 0.46408 c 1.0123,0 1.08823,-0.61648 1.08823,-1.45362 0,-0.96626 -0.099,-1.48379 -1.19486,-1.48379 h -0.35745 z"
         style="fill:#00878f;stroke-width:0.26458332"
         inkscape:connector-curvature="0" />
      <path
         id="path87"
         d="m 141.92058,136.74411 h 1.17951 v 3.24961 c 0,1.46103 -1.11866,1.77324 -1.99364,1.77324 -0.84481,0 -1.92537,-0.28152 -1.92537,-1.78091 v -3.24194 h 1.22528 v 3.01386 c 0,0.8218 0.28919,1.01204 0.75354,1.01204 0.55563,0 0.76094,-0.25109 0.76094,-1.00463 v -3.02127 z"
         style="fill:#00878f;stroke-width:0.26458332"
         inkscape:connector-curvature="0" />
      <path
         id="path89"
         d="m 144.19626,140.67872 h 1.27847 v -2.92232 h -1.27847 v -1.01229 h 3.78989 v 1.01229 h -1.28614 v 2.92232 h 1.28614 v 1.01204 h -3.78989 z"
         style="fill:#00878f;stroke-width:0.26458332"
         inkscape:connector-curvature="0" />
      <path
         id="path91"
         d="m 150.15574,141.69076 h -1.15676 v -4.94665 h 1.33191 l 1.60549,2.96809 v -2.96809 h 1.14141 v 4.94665 h -1.24036 l -1.68963,-3.16574 z"
         style="fill:#00878f;stroke-width:0.26458332"
         inkscape:connector-curvature="0" />
      <path
         id="path93"
         d="m 158.08609,139.2177 c 0,1.4306 -0.52493,2.54952 -2.11561,2.54952 -1.42319,0 -2.07777,-0.86016 -2.07777,-2.49634 0,-1.49172 0.57071,-2.5953 2.0701,-2.5953 1.40758,0 2.12328,0.65458 2.12328,2.54212 z m -1.30122,0 c 0,-1.20994 -0.099,-1.54491 -0.8218,-1.54491 -0.65457,0 -0.76861,0.38815 -0.76861,1.59809 0,0.99695 0.0685,1.49913 0.77629,1.49913 0.71517,0 0.81412,-0.4109 0.81412,-1.55231 z"
         style="fill:#00878f;stroke-width:0.26458332"
         inkscape:connector-curvature="0" />
      <path
         id="path95"
         d="m 128.3882,146.48262 c 0,1.44595 -0.59346,2.54953 -2.10794,2.54953 -1.43087,0 -2.06243,-0.90567 -2.06243,-2.51143 0,-1.5068 0.60881,-2.57995 2.07751,-2.57995 1.4232,-2.6e-4 2.09286,0.74586 2.09286,2.54185 z m -1.04246,0 c 0,-1.24036 -0.18257,-1.72746 -1.0504,-1.72746 -0.82947,0 -1.03478,0.50218 -1.03478,1.76556 0,1.10358 0.15213,1.69704 1.0197,1.69704 0.86016,-2.6e-4 1.06548,-0.5633 1.06548,-1.73514 z"
         style="fill:#8c7965;stroke-width:0.26458332"
         inkscape:connector-curvature="0" />
      <path
         id="path97"
         d="m 129.52273,144.00903 h 1.86452 c 1.32424,0 1.81874,0.69268 1.81874,1.65921 0,1.03505 -0.66198,1.71238 -1.85684,1.71238 h -0.84455 v 1.57533 h -0.98187 z m 2.64054,1.69731 c 0,-0.51753 -0.18256,-0.88292 -0.87524,-0.88292 h -0.7837 v 1.74281 h 0.81413 c 0.53287,0 0.84481,-0.22066 0.84481,-0.85989 z"
         style="fill:#8c7965;stroke-width:0.26458332"
         inkscape:connector-curvature="0" />
      <path
         id="path99"
         d="m 137.97061,144.00903 v 0.81439 h -2.5191 v 1.20253 h 2.28283 v 0.80672 h -2.28283 v 1.30122 h 2.51116 v 0.82179 h -3.49303 v -4.94665 z"
         style="fill:#8c7965;stroke-width:0.26458332"
         inkscape:connector-curvature="0" />
      <path
         id="path101"
         d="m 140.11717,148.95568 h -0.92868 v -4.94665 h 1.07315 l 1.92537,3.36392 v -3.36392 h 0.91308 v 4.94665 h -0.99695 l -1.9939,-3.51578 z"
         style="fill:#8c7965;stroke-width:0.26458332"
         inkscape:connector-curvature="0" />
      <path
         id="path103"
         d="m 145.04875,147.42613 v -0.79931 h 2.08518 v 0.79931 z"
         style="fill:#8c7965;stroke-width:0.26458332"
         inkscape:connector-curvature="0" />
      <path
         id="path105"
         d="m 149.31886,145.31793 c 0,-0.80672 0.81412,-1.37742 1.83409,-1.37742 0.55562,0 1.05013,0.1143 1.51447,0.37306 l -0.27384,0.91308 c -0.31962,-0.28152 -0.73078,-0.47175 -1.23296,-0.47175 -0.46408,0 -0.79904,0.14446 -0.79904,0.4945 0,0.89032 2.50375,0.59373 2.50375,2.32119 0,1.03479 -0.95144,1.46103 -2.00131,1.46103 -0.54054,0 -1.14141,-0.12197 -1.64385,-0.449 l 0.31962,-0.90567 c 0.38814,0.34237 0.8673,0.54796 1.42292,0.54796 0.47943,0 0.85249,-0.15981 0.85249,-0.55589 -5.3e-4,-1.04961 -2.49634,-0.66887 -2.49634,-2.35109 z"
         style="fill:#8c7965;stroke-width:0.26458332"
         inkscape:connector-curvature="0" />
      <path
         id="path107"
         d="m 158.07075,146.48262 c 0,1.44595 -0.59346,2.54953 -2.10794,2.54953 -1.43087,0 -2.06243,-0.90567 -2.06243,-2.51143 0,-1.5068 0.60881,-2.57995 2.07751,-2.57995 1.4232,-2.6e-4 2.09286,0.74586 2.09286,2.54185 z m -1.04246,0 c 0,-1.24036 -0.18257,-1.72746 -1.0504,-1.72746 -0.82947,0 -1.03478,0.50218 -1.03478,1.76556 0,1.10358 0.15213,1.69704 1.0197,1.69704 0.8599,-2.6e-4 1.06548,-0.5633 1.06548,-1.73514 z"
         style="fill:#8c7965;stroke-width:0.26458332"
         inkscape:connector-curvature="0" />
      <path
         id="path109"
         d="m 161.87651,144.00903 h 0.95144 v 3.18876 c 0,1.33192 -0.84481,1.83436 -1.92537,1.83436 -1.05013,0 -1.87193,-0.43392 -1.87193,-1.81134 v -3.21178 h 0.98161 v 3.0443 c 0,0.92075 0.31221,1.1721 0.92842,1.1721 0.70009,0 0.9361,-0.31988 0.9361,-1.18718 v -3.02922 z"
         style="fill:#8c7965;stroke-width:0.26458332"
         inkscape:connector-curvature="0" />
      <path
         id="path111"
         d="m 164.06859,144.00903 h 1.83409 c 1.32424,0 1.82642,0.63183 1.82642,1.59835 0,0.67734 -0.29687,1.17952 -0.85249,1.44595 l 1.04246,1.90235 h -1.16417 l -0.86757,-1.71238 h -0.83688 v 1.71238 h -0.98186 z m 2.61778,1.6137 c 0,-0.55589 -0.22833,-0.79931 -0.87524,-0.79931 h -0.76094 v 1.62084 h 0.7837 c 0.49503,0 0.85248,-0.20532 0.85248,-0.82153 z"
         style="fill:#8c7965;stroke-width:0.26458332"
         inkscape:connector-curvature="0" />
      <path
         id="path113"
         d="m 172.72919,148.64374 c -0.50218,0.26644 -0.98928,0.38841 -1.55231,0.38841 -1.42319,0 -2.23732,-0.84482 -2.23732,-2.54185 0,-1.62851 0.92843,-2.54953 2.36644,-2.54953 0.51011,0 0.98927,0.12938 1.37768,0.36539 l -0.32729,0.83714 c -0.35771,-0.28151 -0.70776,-0.38814 -1.0959,-0.38814 -0.83714,0 -1.27847,0.57071 -1.27847,1.71238 0,1.15676 0.40323,1.75816 1.28588,1.75816 0.47942,0 0.90567,-0.14473 1.23296,-0.36539 z"
         style="fill:#8c7965;stroke-width:0.26458332"
         inkscape:connector-curvature="0" />
      <path
         id="path115"
         d="m 177.54725,144.00903 v 0.81439 h -2.51909 v 1.20253 h 2.28282 v 0.80672 h -2.28282 v 1.30122 h 2.51116 v 0.82179 h -3.49303 v -4.94665 z"
         style="fill:#8c7965;stroke-width:0.26458332"
         inkscape:connector-curvature="0" />
      <path
         id="path117"
         d="m 128.20563,155.90893 c -0.50218,0.26644 -0.98927,0.38841 -1.55231,0.38841 -1.42319,0 -2.23731,-0.84481 -2.23731,-2.54185 0,-1.62851 0.92842,-2.54952 2.36643,-2.54952 0.51012,0 0.98928,0.12938 1.37742,0.36539 l -0.32702,0.83714 c -0.35772,-0.28152 -0.70777,-0.38815 -1.09591,-0.38815 -0.83714,0 -1.27847,0.57071 -1.27847,1.71239 0,1.15676 0.40323,1.75815 1.28588,1.75815 0.47942,0 0.90567,-0.14472 1.23296,-0.36539 z"
         style="fill:#e47128;stroke-width:0.26458332"
         inkscape:connector-curvature="0" />
      <path
         id="path119"
         d="m 133.33537,153.74782 c 0,1.44595 -0.59346,2.54952 -2.10793,2.54952 -1.43087,0 -2.06243,-0.90567 -2.06243,-2.51142 0,-1.5068 0.60881,-2.57995 2.07751,-2.57995 1.42293,-2.7e-4 2.09285,0.74586 2.09285,2.54185 z m -1.04272,0 c 0,-1.24037 -0.18256,-1.72747 -1.05039,-1.72747 -0.82947,0 -1.03479,0.50218 -1.03479,1.76557 0,1.10358 0.15214,1.69704 1.0197,1.69704 0.86017,-2.7e-4 1.06548,-0.5633 1.06548,-1.73514 z"
         style="fill:#e47128;stroke-width:0.26458332"
         inkscape:connector-curvature="0" />
      <path
         id="path121"
         d="m 137.41499,152.80405 -0.84455,1.70445 h -0.70009 l -0.91308,-1.77324 v 3.48562 h -0.79137 v -4.94665 h 0.86757 l 1.18692,2.26801 1.15676,-2.26801 h 0.84455 v 4.94665 h -0.80671 z"
         style="fill:#e47128;stroke-width:0.26458332"
         inkscape:connector-curvature="0" />
      <path
         id="path123"
         d="m 142.3619,152.80405 -0.84455,1.70445 h -0.70009 l -0.91307,-1.77324 v 3.48562 h -0.79137 v -4.94665 h 0.86757 l 1.18692,2.26801 1.15676,-2.26801 h 0.84455 v 4.94665 h -0.80672 z"
         style="fill:#e47128;stroke-width:0.26458332"
         inkscape:connector-curvature="0" />
      <path
         id="path125"
         d="m 147.03497,151.27423 h 0.95145 v 3.18876 c 0,1.33191 -0.84482,1.83435 -1.92538,1.83435 -1.05013,0 -1.87192,-0.43391 -1.87192,-1.81133 v -3.21178 h 0.9816 v 3.04429 c 0,0.92075 0.31221,1.17211 0.92842,1.17211 0.70009,0 0.9361,-0.31988 0.9361,-1.18719 v -3.02921 z"
         style="fill:#e47128;stroke-width:0.26458332"
         inkscape:connector-curvature="0" />
      <path
         id="path127"
         d="m 150.01127,156.22088 h -0.92868 v -4.94665 h 1.07315 l 1.92537,3.36391 v -3.36391 h 0.91308 v 4.94665 h -0.99695 l -1.9939,-3.51578 z"
         style="fill:#e47128;stroke-width:0.26458332"
         inkscape:connector-curvature="0" />
      <path
         id="path129"
         d="m 154.17423,155.39908 h 1.31656 v -3.30279 h -1.31656 v -0.8218 h 3.63775 v 0.8218 h -1.33932 v 3.30279 h 1.33932 v 0.8218 h -3.63775 z"
         style="fill:#e47128;stroke-width:0.26458332"
         inkscape:connector-curvature="0" />
      <path
         id="path131"
         d="m 162.98009,152.08862 h -1.55998 v 4.13226 h -0.98187 v -4.13226 h -1.55999 v -0.81439 h 4.10184 z"
         style="fill:#e47128;stroke-width:0.26458332"
         inkscape:connector-curvature="0" />
      <path
         id="path133"
         d="m 165.96353,153.48879 1.01971,-2.21456 h 0.9816 l -1.55231,2.99852 v 1.94813 h -0.98928 v -1.92537 l -1.62851,-3.02128 h 1.05781 z"
         style="fill:#e47128;stroke-width:0.26458332"
         inkscape:connector-curvature="0" />
    </g>
  </g>
</svg>
