<?xml version="1.0" encoding="UTF-8" standalone="no"?>
<!-- Created with Inkscape (http://www.inkscape.org/) -->

<svg
   xmlns:dc="http://purl.org/dc/elements/1.1/"
   xmlns:cc="http://creativecommons.org/ns#"
   xmlns:rdf="http://www.w3.org/1999/02/22-rdf-syntax-ns#"
   xmlns:svg="http://www.w3.org/2000/svg"
   xmlns="http://www.w3.org/2000/svg"
   xmlns:sodipodi="http://sodipodi.sourceforge.net/DTD/sodipodi-0.dtd"
   xmlns:inkscape="http://www.inkscape.org/namespaces/inkscape"
   width="500"
   height="283"
   viewBox="0 0 132.29166 74.877085"
   version="1.1"
   id="svg12258"
   inkscape:version="0.92.2 (unknown)"
   sodipodi:docname="graph2.svg">
  <defs
     id="defs12252" />
  <sodipodi:namedview
     id="base"
     pagecolor="#ffffff"
     bordercolor="#666666"
     borderopacity="1.0"
     inkscape:pageopacity="0.0"
     inkscape:pageshadow="2"
     inkscape:zoom="0.35"
     inkscape:cx="350"
     inkscape:cy="560"
     inkscape:document-units="mm"
     inkscape:current-layer="layer1"
     showgrid="false"
     inkscape:window-width="1024"
     inkscape:window-height="713"
     inkscape:window-x="0"
     inkscape:window-y="27"
     inkscape:window-maximized="1"
     units="px" />
  <metadata
     id="metadata12255">
    <rdf:RDF>
      <cc:Work
         rdf:about="">
        <dc:format>image/svg+xml</dc:format>
        <dc:type
           rdf:resource="http://purl.org/dc/dcmitype/StillImage" />
        <dc:title></dc:title>
      </cc:Work>
    </rdf:RDF>
  </metadata>
  <g
     inkscape:label="Camada 1"
     inkscape:groupmode="layer"
     id="layer1"
     transform="translate(0,-222.1229)">
    <g
       transform="matrix(1.2289537,0,0,1.2289537,-66.798459,92.379718)"
       id="g12250">
      <g
         id="g11732"
         transform="matrix(0.18425988,0.04937228,-0.04937228,0.18425988,73.645564,81.463979)"
         style="fill:#333333;fill-opacity:1">
        <path
           id="path11728"
           d="m 17.66,397.246 c -3.457,0 -6.741,-2.047 -8.151,-5.436 -1.875,-4.5 0.25,-9.668 4.75,-11.543 l 102.508,-42.716 51.586,-128.97 c 1.103,-2.754 3.518,-4.771 6.422,-5.366 2.926,-0.582 5.918,0.31 8.018,2.406 l 72.931,72.927 66.595,-72.651 c 3.293,-3.586 8.879,-3.837 12.474,-0.543 3.595,3.297 3.837,8.879 0.543,12.474 l -72.828,79.448 c -1.63,1.775 -3.91,2.806 -6.319,2.862 -2.229,0.039 -4.733,-0.884 -6.431,-2.586 l -69.983,-69.983 -47.991,119.987 c -0.884,2.202 -2.612,3.957 -4.802,4.866 l -105.93,44.139 c -1.113,0.465 -2.264,0.685 -3.392,0.685 z"
           style="fill:#333333;fill-opacity:1"
           inkscape:connector-curvature="0" />
        <path
           id="path11730"
           d="m 388.418,178.763 c -3.401,0 -6.643,-1.978 -8.09,-5.293 -1.956,-4.466 0.082,-9.673 4.547,-11.625 L 490.806,115.5 c 4.466,-1.956 9.673,0.082 11.625,4.547 1.956,4.466 -0.082,9.673 -4.547,11.625 l -105.931,46.345 c -1.151,0.504 -2.354,0.746 -3.535,0.746 z"
           style="fill:#333333;fill-opacity:1"
           inkscape:connector-curvature="0" />
      </g>
      <circle
         id="circle11734"
         r="3.3678656"
         cy="83.202538"
         cx="186.5218"
         style="fill:#fa7d14;fill-opacity:1;stroke-width:0.19075987"
         transform="rotate(14.999998)" />
      <circle
         id="circle11736"
         r="3.3678656"
         cy="115.19753"
         cx="141.0551"
         style="fill:#b95fd2;fill-opacity:1;stroke-width:0.19075987"
         transform="rotate(14.999998)" />
      <circle
         id="circle11738"
         r="3.3678656"
         cy="100.04205"
         cx="125.89961"
         style="fill:#5599ff;fill-opacity:1;stroke-width:0.19075987"
         transform="rotate(14.999998)" />
      <circle
         id="circle11740"
         r="3.3678656"
         cy="125.30132"
         cx="115.79582"
         style="fill:#00d455;fill-opacity:1;stroke-width:0.19075987"
         transform="rotate(14.999998)" />
      <circle
         id="circle11742"
         r="3.3678656"
         cy="133.72108"
         cx="95.588448"
         style="fill:#fadc14;fill-opacity:1;stroke-width:0.19075987"
         transform="rotate(14.999998)" />
      <circle
         id="circle11754"
         r="3.3678656"
         cy="95.059341"
         cx="159.3203"
         style="fill:#c83737;fill-opacity:1;stroke-width:0.19075987"
         transform="rotate(14.999998)" />
      <g
         id="g11885"
         transform="matrix(0.19075986,0,0,0.19075986,61.988098,97.730954)"
         style="fill:#fa5050;fill-opacity:1">
        <g
           transform="matrix(0.77555232,0,0,0.77555232,79.253148,40.022634)"
           id="g11752"
           style="fill:#fa5050;fill-opacity:1">
          <circle
             style="fill:#fa5050;fill-opacity:1"
             cx="353.103"
             cy="8.8280001"
             r="8.8280001"
             id="circle11744" />
          <circle
             style="fill:#fa5050;fill-opacity:1"
             cx="353.103"
             cy="44.138"
             r="8.8280001"
             id="circle11746" />
          <circle
             style="fill:#fa5050;fill-opacity:1"
             cx="353.103"
             cy="79.447998"
             r="8.8280001"
             id="circle11748" />
          <circle
             style="fill:#fa5050;fill-opacity:1"
             cx="353.103"
             cy="114.759"
             r="8.8280001"
             id="circle11750" />
        </g>
        <g
           id="g11774"
           style="fill:#fa5050;fill-opacity:1">
          <circle
             style="fill:#fa5050;fill-opacity:1;stroke-width:0.77555233"
             cx="353.103"
             cy="244.11201"
             r="6.8465757"
             id="circle11756" />
          <circle
             style="fill:#fa5050;fill-opacity:1;stroke-width:0.77555233"
             cx="353.103"
             cy="271.49677"
             r="6.8465757"
             id="circle11758" />
          <circle
             style="fill:#fa5050;fill-opacity:1;stroke-width:0.77555233"
             cx="353.103"
             cy="298.88229"
             r="6.8465757"
             id="circle11760" />
          <circle
             style="fill:#fa5050;fill-opacity:1;stroke-width:0.77555233"
             cx="353.103"
             cy="326.26706"
             r="6.8465757"
             id="circle11762" />
          <circle
             style="fill:#fa5050;fill-opacity:1;stroke-width:0.77555233"
             cx="353.103"
             cy="353.65179"
             r="6.8465757"
             id="circle11764" />
          <path
             inkscape:connector-curvature="0"
             style="fill:#fa5050;fill-opacity:1"
             d="m 353.103,229.517 c -24.337,0 -44.138,-19.801 -44.138,-44.138 0,-24.337 19.801,-44.138 44.138,-44.138 24.337,0 44.138,19.801 44.138,44.138 0,24.337 -19.801,44.138 -44.138,44.138 z m 0,-70.62 c -14.603,0 -26.483,11.88 -26.483,26.483 0,14.603 11.88,26.483 26.483,26.483 14.603,0 26.483,-11.88 26.483,-26.483 0,-14.603 -11.88,-26.483 -26.483,-26.483 z"
             id="path11772" />
        </g>
      </g>
    </g>
  </g>
</svg>
