<?xml version="1.0" encoding="UTF-8" standalone="no"?>
<!-- Generator: Adobe Illustrator 19.0.0, SVG Export Plug-In . SVG Version: 6.00 Build 0)  -->

<svg
   xmlns:dc="http://purl.org/dc/elements/1.1/"
   xmlns:cc="http://creativecommons.org/ns#"
   xmlns:rdf="http://www.w3.org/1999/02/22-rdf-syntax-ns#"
   xmlns:svg="http://www.w3.org/2000/svg"
   xmlns="http://www.w3.org/2000/svg"
   xmlns:sodipodi="http://sodipodi.sourceforge.net/DTD/sodipodi-0.dtd"
   xmlns:inkscape="http://www.inkscape.org/namespaces/inkscape"
   version="1.1"
   id="Capa_1"
   x="0px"
   y="0px"
   viewBox="0 0 500.00002 475.00002"
   xml:space="preserve"
   sodipodi:docname="explorer.svg"
   inkscape:version="0.92.2 (unknown)"
   width="500"
   height="475"><metadata
     id="metadata79"><rdf:RDF><cc:Work
         rdf:about=""><dc:format>image/svg+xml</dc:format><dc:type
           rdf:resource="http://purl.org/dc/dcmitype/StillImage" /><dc:title></dc:title></cc:Work></rdf:RDF></metadata><defs
     id="defs77" /><sodipodi:namedview
     pagecolor="#ffffff"
     bordercolor="#666666"
     borderopacity="1"
     objecttolerance="10"
     gridtolerance="10"
     guidetolerance="10"
     inkscape:pageopacity="0"
     inkscape:pageshadow="2"
     inkscape:window-width="1024"
     inkscape:window-height="713"
     id="namedview75"
     showgrid="false"
     inkscape:zoom="0.46093662"
     inkscape:cx="256.31793"
     inkscape:cy="255.76507"
     inkscape:window-x="0"
     inkscape:window-y="27"
     inkscape:window-maximized="1"
     inkscape:current-layer="Capa_1" /><path
     style="fill:#f9c5b5;stroke-width:0.80771887"
     d="m 374.28239,388.08703 5.62899,-80.93424 c 36.3942,-36.85541 30.49219,-88.15444 30.49219,-88.15444 0,-53.91281 -43.15722,-97.61767 -96.39397,-97.61767 -53.23675,0 -96.39398,43.70405 -96.39398,97.61686 v 12.94935 L 200.8288,287.8685 c -0.94746,3.15656 1.41593,6.33413 4.71223,6.33413 h 21.9118 l 1.52174,51.24896 c 0.23989,8.07799 7.32036,14.23281 15.35312,13.34674 l 34.76503,-3.83424 7.18627,42.68794"
     id="path2"
     inkscape:connector-curvature="0" /><g
     style="opacity:0.1"
     id="g6"
     transform="matrix(0.80771887,0,0,0.80771887,0,68.467825)"><polygon
       points="450.54,295.504 443.572,397.063 463.35,394.916 470.351,295.504 "
       id="polygon4" /></g><path
     style="fill:#65cdef;stroke-width:0.80771887"
     d="m 161.08741,164.39817 c 17.08164,0 30.92837,-13.84673 30.92837,-30.92836 0,-17.08164 -13.84673,-30.92837 -30.92837,-30.92837 -1.16877,0 -2.31977,0.0703 -3.45461,0.19709 -6.72507,-16.007377 -22.54828,-27.250017 -40.99981,-27.250017 -24.551423,0 -44.454424,19.90301 -44.454424,44.454427 0,0.0113 8.08e-4,0.0226 8.08e-4,0.0339 -11.712731,0.63002 -21.016845,10.32507 -21.016845,22.1945 0,12.27571 9.951096,22.22762 22.227615,22.22762 h 87.697266 z"
     id="path8"
     inkscape:connector-curvature="0" /><path
     style="opacity:0.1;stroke-width:0.80771887;enable-background:new"
     d="m 161.07368,102.54225 c -1.16877,0 -2.31977,0.0703 -3.45461,0.19708 -6.72507,-16.007367 -22.54828,-27.250007 -40.99981,-27.250007 -3.90613,0 -7.69191,0.50725 -11.3008,1.4539 13.44206,3.52246 24.402,13.17631 29.70306,25.796107 1.13484,-0.126 2.28584,-0.19708 3.45461,-0.19708 17.08164,0 30.92836,13.84673 30.92836,30.92836 0,17.08083 -13.84672,30.92837 -30.92836,30.92837 h 22.59755 c 17.08164,0 30.92837,-13.84673 30.92837,-30.92837 -8.1e-4,-17.08163 -13.84754,-30.92836 -30.92837,-30.92836 z"
     id="path10"
     inkscape:connector-curvature="0" /><polygon
     style="opacity:0.1;enable-background:new"
     points="36.381,250.924 37.668,261.959 146.256,255.566 143.687,244.455 "
     id="polygon12"
     transform="matrix(0.80771887,0,0,0.80771887,0,68.467825)" /><path
     style="fill:#7c4238;stroke-width:0.80771887"
     d="m 350.14936,274.23824 -5.20009,21.90695 15.54212,-2.21153 7.20647,24.97467 c 0,0 45.85339,-32.57369 45.85339,-92.90302 0,-49.84595 -33.64552,-82.87761 -39.14367,-87.70211 -0.53228,-0.46687 -0.83195,-1.13646 -0.83195,-1.84403 V 96.537673 c 0,-1.99507 -1.76648,-3.52731 -3.74054,-3.24703 l -49.51721,7.031997 c -0.7431,0.10581 -1.49913,-0.0469 -2.14368,-0.431317 l -27.36956,-16.34904 c -1.40624,-0.83922 -3.21634,-0.5129 -4.24133,0.7641 l -27.88569,34.794107 c -1.10819,1.38281 -3.11618,1.63482 -4.53292,0.56863 l -19.21159,-14.47109 c -2.32461,-1.75033 -5.60799,0.1672 -5.22432,3.05156 l 10.94297,82.2799 c 0.32309,2.428 3.09599,3.65735 5.11205,2.26807 l 13.57857,-9.35984 c 1.18653,-0.81741 2.76724,-0.76572 3.89724,0.12843 l 17.15756,13.58179 c 1.12677,0.89091 2.70182,0.94584 3.88755,0.13489 l 17.19069,-11.7612 c 2.16226,-1.47893 5.10074,0.0485 5.13143,2.6679 l 0.70999,60.5773 c 0.021,1.79637 1.48297,3.24137 3.27934,3.24137 h 6.55221 c 1.51851,0 2.83833,-1.04195 3.19049,-2.51927 v 0 z"
     id="path14"
     inkscape:connector-curvature="0" /><g
     style="opacity:0.1"
     id="g18"
     transform="matrix(0.80771887,0,0,0.80771887,0,68.467825)"><path
       d="m 463.538,86.46 c -0.659,-0.578 -1.03,-1.407 -1.03,-2.283 V 34.752 c 0,-2.47 -2.187,-4.367 -4.631,-4.02 l -23.066,3.276 c 0.045,0.243 0.082,0.488 0.082,0.744 v 49.427 c 0,0.876 0.372,1.704 1.03,2.283 6.807,5.973 48.462,46.868 48.462,108.58 0,43.352 -19.125,75.125 -35.172,94.157 l 6.02,20.861 c 0,0 56.769,-40.328 56.769,-115.019 C 512,133.328 470.345,92.433 463.538,86.46 Z"
       id="path16"
       inkscape:connector-curvature="0" /></g><path
     style="fill:#ffaeae;stroke-width:0.80771887"
     d="m 323.08997,244.29449 c 10.04883,-10.04883 24.58616,-11.8032 32.46949,-3.91986 7.88334,7.88334 6.12897,22.42066 -3.91986,32.46949 -10.04883,10.04883 -24.58615,11.8032 -32.46949,3.91986 0,8.1e-4 -14.36689,-13.8863 3.91986,-32.46949 z"
     id="path20"
     inkscape:connector-curvature="0" /><polygon
     style="fill:#ffc433"
     points="162.113,191.22 162.113,243.111 129.605,245.483 30.052,252.287 30.052,182.043 "
     id="polygon22"
     transform="matrix(0.80771887,0,0,0.80771887,0,68.467825)" /><path
     style="fill:#dda322;stroke-width:0.80771887"
     d="m 143.74004,272.24479 h -7.8793 c -2.71717,0 -4.91982,-2.20265 -4.91982,-4.91981 V 220.4264 c 0,-2.71717 2.20265,-4.91982 4.91982,-4.91982 h 7.8793 c 2.71716,0 4.91981,2.20265 4.91981,4.91982 v 46.89858 c -8.1e-4,2.71797 -2.20265,4.91981 -4.91981,4.91981 z"
     id="path24"
     inkscape:connector-curvature="0" /><path
     style="fill:#ffc433;stroke-width:0.80771887"
     d="m 183.27787,259.01193 h -34.61883 v -30.27249 h 34.61883 c 2.26404,0 4.09998,1.83594 4.09998,4.09998 v 22.07334 c 0,2.26485 -1.83513,4.09917 -4.09998,4.09917 z"
     id="path26"
     inkscape:connector-curvature="0" /><path
     style="fill:#f9c5b5;stroke-width:0.80771887"
     d="M 218.88293,404.75754 117.4399,442.56201 99.983481,327.92489 117.00373,325.79817 c 4.49334,-0.56136 7.68141,-4.65973 7.11924,-9.15307 l 0.70837,-28.98661 5.62818,-23.0741 c 2.2915,-5.03128 0.0509,-11.02133 -4.98039,-13.31283 v 0 c -5.03128,-2.29149 -11.02133,-0.0509 -13.31283,4.9804 l -4.68961,10.29599 -78.090262,4.59835 6.5611,56.3085 c 0.561365,4.49334 4.659731,7.68141 9.153071,7.11924 L 56.194617,333.18718 68.559178,475 H 232.6198 Z"
     id="path28"
     inkscape:connector-curvature="0" /><polygon
     style="fill:#65cdef"
     points="477.879,498.519 270.989,503.307 270.989,478.186 270.989,447.266 270.989,416.345 346.983,407.549 477.879,393.338 "
     id="polygon30"
     transform="matrix(0.80771887,0,0,0.80771887,0,68.467825)" /><polygon
     style="opacity:0.1;enable-background:new"
     points="477.879,498.519 477.879,393.338 448.821,396.493 448.821,498.519 "
     id="polygon32"
     transform="matrix(0.80771887,0,0,0.80771887,0,68.467825)" /><path
     style="fill:#dda322;stroke-width:0.80771887"
     d="M 21.186466,287.30713 H 8.1991543 C 3.6710823,287.30713 0,283.63605 0,279.10798 v -70.46297 c 0,-4.52807 3.6710823,-8.19916 8.1991543,-8.19916 H 21.186466 c 4.528072,0 8.199154,3.67109 8.199154,8.19916 v 70.46297 c 0,4.52807 -3.670274,8.19915 -8.199154,8.19915 z"
     id="path34"
     inkscape:connector-curvature="0" /><path
     style="opacity:0.1;stroke-width:0.80771887;enable-background:new"
     d="m 183.27787,249.23046 h -34.61883 v 8.31304 c 0,2.71717 -2.20265,4.91982 -4.91981,4.91982 h -7.8793 c -2.71717,0 -4.91982,-2.20265 -4.91982,-4.91982 v -2.49343 l -26.25651,1.91591 -75.29798,5.14679 v 7.21212 c 0,4.52807 -3.671082,8.19915 -8.199154,8.19915 H 8.1991543 C 3.6710823,277.52404 0,273.85377 0,269.32489 v 9.18053 c 0,4.52807 3.6710823,8.19916 8.1991543,8.19916 H 21.186466 c 4.528072,0 8.199154,-3.67109 8.199154,-8.19916 v -7.21212 l 75.29798,-5.14678 7.84941,-0.57348 4.83743,-9.53432 9.14984,0.88849 4.41983,7.30178 v 2.49343 c 0,2.71717 2.20265,4.91981 4.91982,4.91981 h 7.8793 c 2.71716,0 4.91981,-2.20264 4.91981,-4.91981 v -8.31304 h 34.61883 c 2.26404,0 4.09998,-1.83595 4.09998,-4.09998 v -9.18054 c 0,2.26646 -1.83513,4.1016 -4.09998,4.1016 z"
     id="path36"
     inkscape:connector-curvature="0" /><path
     style="fill:#f2b8ad;stroke-width:0.80771887"
     d="m 125.91126,251.26995 c -5.03128,-2.2915 -11.02133,-0.0509 -13.31283,4.98039 L 98.460123,286.707 c 0,0 -18.195483,6.54333 -22.556357,23.36327 -0.320665,1.23823 -1.863408,1.62997 -2.730898,0.6906 -12.134361,-13.14886 -29.826635,-11.79916 -40.27044,-9.43901 l 3.044293,26.12971 c 0.522594,4.17671 4.100788,7.22101 8.21127,7.1782 0.311779,-0.003 0.625174,-0.0194 0.940992,-0.059 l 2.367424,-0.29562 8.740326,-0.93776 21.345587,-2.28989 c 0.01858,0.0525 0.03554,0.1042 0.05493,0.1567 l 5.703303,-0.77379 v 0 0 l 34.123707,-4.63227 c 4.49334,-0.56136 7.6814,-4.65973 7.11923,-9.15307 l 0.70837,-28.98661 5.62819,-23.0741 c 2.29311,-5.03209 0.0517,-11.02294 -4.97878,-13.31444 z"
     id="path38"
     inkscape:connector-curvature="0" /><g
     style="opacity:0.2"
     id="g42"
     transform="matrix(0.80771887,0,0,0.80771887,0,68.467825)"><path
       d="m 300.455,192.843 c -4.205,0 -7.613,3.408 -7.613,7.613 v 25.828 c 0,4.206 3.409,7.613 7.613,7.613 4.205,0 7.613,-3.408 7.613,-7.613 v -25.828 c 0,-4.206 -3.408,-7.613 -7.613,-7.613 z"
       id="path40"
       inkscape:connector-curvature="0" /></g><g
     id="g44"
     transform="translate(0,-37.000977)" /><g
     id="g46"
     transform="translate(0,-37.000977)" /><g
     id="g48"
     transform="translate(0,-37.000977)" /><g
     id="g50"
     transform="translate(0,-37.000977)" /><g
     id="g52"
     transform="translate(0,-37.000977)" /><g
     id="g54"
     transform="translate(0,-37.000977)" /><g
     id="g56"
     transform="translate(0,-37.000977)" /><g
     id="g58"
     transform="translate(0,-37.000977)" /><g
     id="g60"
     transform="translate(0,-37.000977)" /><g
     id="g62"
     transform="translate(0,-37.000977)" /><g
     id="g64"
     transform="translate(0,-37.000977)" /><g
     id="g66"
     transform="translate(0,-37.000977)" /><g
     id="g68"
     transform="translate(0,-37.000977)" /><g
     id="g70"
     transform="translate(0,-37.000977)" /><g
     id="g72"
     transform="translate(0,-37.000977)" /><g
     id="g989"
     transform="matrix(0.25143071,0.12468111,-0.12468111,0.25143071,403.8854,-26.064457)"><path
       id="path889"
       d="m 314.667,391.467 c 6.4,-21.333 19.2,-40.533 36.267,-55.467 32,-26.667 52.267,-67.2 52.267,-112 0,-83.2 -69.333,-151.467 -154.667,-147.2 C 172.8,80 110.933,144 108.8,219.733 107.733,266.667 128,308.267 161.067,336 179.2,350.933 192,370.133 198.4,391.467 Z"
       style="fill:#ffd15c"
       inkscape:connector-curvature="0" /><path
       id="path891"
       d="m 242.133,393.6 h 9.6 L 209.066,234.667 c 1.067,0 2.133,0 3.2,0 5.333,0 10.667,-2.133 14.933,-6.4 2.133,-2.133 4.267,-3.2 7.467,-3.2 3.2,0 5.333,1.067 7.467,3.2 7.467,8.533 20.267,8.533 27.733,0 2.133,-2.133 4.267,-3.2 7.467,-3.2 2.133,0 5.333,1.067 7.467,3.2 4.267,4.267 8.533,6.4 14.933,6.4 1.067,0 2.133,0 3.2,0 l -41.6,158.933 h 9.6 l 43.733,-166.4 c 0,-2.133 0,-4.267 -2.133,-5.333 -2.133,-1.067 -4.267,0 -5.333,1.067 -2.133,2.133 -4.267,3.2 -6.4,3.2 -3.2,0 -5.333,-1.067 -8.533,-3.2 -4.267,-4.267 -8.533,-6.4 -13.867,-6.4 -5.334,0 -9.6,2.133 -13.867,6.4 -4.267,4.267 -10.667,4.267 -14.933,0 -3.2,-4.267 -8.533,-6.4 -13.867,-6.4 v 0 c -5.333,0 -10.667,2.133 -13.867,6.4 -2.133,2.133 -5.333,3.2 -8.533,3.2 -2.133,0 -5.333,-1.067 -6.4,-3.2 -1.067,-1.067 -3.2,-2.133 -5.333,-1.067 -2.133,1.067 -3.2,3.2 -2.133,5.333 z"
       style="fill:#ffffff"
       inkscape:connector-curvature="0" /><g
       id="g897"><path
         id="path893"
         d="m 222.933,489.6 c 5.334,12.8 18.134,22.4 33.067,22.4 14.933,0 27.733,-9.6 33.067,-22.4 z"
         style="fill:#344a5e"
         inkscape:connector-curvature="0" /><path
         id="path895"
         d="M 295.467,490.667 H 217.6 c -10.667,0 -19.2,-8.533 -19.2,-19.2 V 390.4 h 116.267 v 81.067 c 0,10.666 -8.534,19.2 -19.2,19.2 z"
         style="fill:#344a5e"
         inkscape:connector-curvature="0" /></g><g
       id="g903"><path
         id="path899"
         d="M 313.6,430.933 H 198.4 c -6.4,0 -11.733,-5.333 -11.733,-11.733 v 0 c 0,-6.4 5.333,-11.733 11.733,-11.733 h 115.2 c 6.4,0 11.733,5.333 11.733,11.733 v 0 c 0,6.4 -5.333,11.733 -11.733,11.733 z"
         style="fill:#415a6b"
         inkscape:connector-curvature="0" /><path
         id="path901"
         d="M 313.6,468.267 H 198.4 c -6.4,0 -11.733,-5.333 -11.733,-11.733 v 0 c 0,-6.4 5.333,-11.733 11.733,-11.733 h 115.2 c 6.4,0 11.733,5.333 11.733,11.733 v 0 c 0,6.399 -5.333,11.733 -11.733,11.733 z"
         style="fill:#415a6b"
         inkscape:connector-curvature="0" /></g><g
       id="g919"><path
         id="path905"
         d="m 256,0 c -5.333,0 -10.667,4.267 -10.667,10.667 v 36.267 c 0,5.333 4.267,10.667 10.667,10.667 6.4,0 10.667,-4.267 10.667,-10.667 V 10.667 C 266.667,4.267 261.333,0 256,0 Z"
         style="fill:#ffd15c"
         inkscape:connector-curvature="0" /><path
         id="path907"
         d="M 113.067,65.067 C 108.8,60.8 102.4,60.8 98.134,65.067 c -4.266,4.267 -4.267,10.667 0,14.933 l 25.6,25.6 c 4.267,4.267 10.667,4.267 14.933,0 4.266,-4.267 4.267,-10.667 0,-14.933 z"
         style="fill:#ffd15c"
         inkscape:connector-curvature="0" /><path
         id="path909"
         d="M 80,212.267 H 43.733 c -5.333,0 -10.667,4.267 -10.667,10.667 v 0 c 0,5.333 4.267,10.667 10.667,10.667 H 80 c 5.333,0 10.667,-4.267 10.667,-10.667 v 0 C 90.667,217.6 85.333,212.267 80,212.267 Z"
         style="fill:#ffd15c"
         inkscape:connector-curvature="0" /><path
         id="path911"
         d="m 123.733,340.267 -25.6,25.6 c -4.267,4.267 -4.267,10.667 0,14.933 4.267,4.266 10.667,4.267 14.933,0 l 25.6,-25.6 c 4.267,-4.267 4.267,-10.667 0,-14.933 -4.267,-4.266 -10.666,-4.267 -14.933,0 z"
         style="fill:#ffd15c"
         inkscape:connector-curvature="0" /><path
         id="path913"
         d="M 388.267,340.267 C 384,336 377.6,336 373.333,340.267 c -4.267,4.267 -4.267,10.667 0,14.933 l 25.6,25.6 c 4.267,4.267 10.667,4.267 14.933,0 4.266,-4.267 4.267,-10.667 0,-14.933 z"
         style="fill:#ffd15c"
         inkscape:connector-curvature="0" /><path
         id="path915"
         d="M 468.267,212.267 H 432 c -5.333,0 -10.667,4.267 -10.667,10.667 v 0 c 0,5.333 4.267,10.667 10.667,10.667 h 36.267 c 5.333,0 10.667,-4.267 10.667,-10.667 v 0 c -0.001,-5.334 -4.267,-10.667 -10.667,-10.667 z"
         style="fill:#ffd15c"
         inkscape:connector-curvature="0" /><path
         id="path917"
         d="m 398.933,65.067 -25.6,25.6 c -4.267,4.267 -4.267,10.667 0,14.933 4.267,4.267 10.667,4.267 14.933,0 l 25.6,-25.6 c 4.267,-4.267 4.267,-10.667 0,-14.933 -4.267,-4.266 -10.666,-4.267 -14.933,0 z"
         style="fill:#ffd15c"
         inkscape:connector-curvature="0" /></g><g
       id="g921" /><g
       id="g923" /><g
       id="g925" /><g
       id="g927" /><g
       id="g929" /><g
       id="g931" /><g
       id="g933" /><g
       id="g935" /><g
       id="g937" /><g
       id="g939" /><g
       id="g941" /><g
       id="g943" /><g
       id="g945" /><g
       id="g947" /><g
       id="g949" /></g></svg>