<?xml version="1.0" encoding="UTF-8" standalone="no"?>
<!-- Created with Inkscape (http://www.inkscape.org/) -->

<svg
   xmlns:dc="http://purl.org/dc/elements/1.1/"
   xmlns:cc="http://creativecommons.org/ns#"
   xmlns:rdf="http://www.w3.org/1999/02/22-rdf-syntax-ns#"
   xmlns:svg="http://www.w3.org/2000/svg"
   xmlns="http://www.w3.org/2000/svg"
   xmlns:sodipodi="http://sodipodi.sourceforge.net/DTD/sodipodi-0.dtd"
   xmlns:inkscape="http://www.inkscape.org/namespaces/inkscape"
   width="500"
   height="327"
   viewBox="0 0 132.29166 86.518752"
   version="1.1"
   id="svg12237"
   sodipodi:docname="learn-programming.svg"
   inkscape:version="0.92.2 (unknown)">
  <defs
     id="defs12231" />
  <sodipodi:namedview
     id="base"
     pagecolor="#ffffff"
     bordercolor="#666666"
     borderopacity="1.0"
     inkscape:pageopacity="0.0"
     inkscape:pageshadow="2"
     inkscape:zoom="0.44723101"
     inkscape:cx="-47.449315"
     inkscape:cy="429.65788"
     inkscape:document-units="mm"
     inkscape:current-layer="g14371"
     showgrid="false"
     inkscape:window-width="1024"
     inkscape:window-height="713"
     inkscape:window-x="0"
     inkscape:window-y="27"
     inkscape:window-maximized="1"
     units="px" />
  <metadata
     id="metadata12234">
    <rdf:RDF>
      <cc:Work
         rdf:about="">
        <dc:format>image/svg+xml</dc:format>
        <dc:type
           rdf:resource="http://purl.org/dc/dcmitype/StillImage" />
        <dc:title />
      </cc:Work>
    </rdf:RDF>
  </metadata>
  <g
     inkscape:label="Camada 1"
     inkscape:groupmode="layer"
     id="layer1"
     transform="translate(0,-210.48123)">
    <g
       id="g12892"
       transform="matrix(0.26458333,0,0,0.26458333,-244.85298,-52.930356)" />
    <g
       id="g12894"
       transform="matrix(0.26458333,0,0,0.26458333,-244.85298,-52.930356)" />
    <g
       id="g12896"
       transform="matrix(0.26458333,0,0,0.26458333,-244.85298,-52.930356)" />
    <g
       id="g12898"
       transform="matrix(0.26458333,0,0,0.26458333,-244.85298,-52.930356)" />
    <g
       id="g12900"
       transform="matrix(0.26458333,0,0,0.26458333,-244.85298,-52.930356)" />
    <g
       id="g12902"
       transform="matrix(0.26458333,0,0,0.26458333,-244.85298,-52.930356)" />
    <g
       id="g12904"
       transform="matrix(0.26458333,0,0,0.26458333,-244.85298,-52.930356)" />
    <g
       id="g12906"
       transform="matrix(0.26458333,0,0,0.26458333,-244.85298,-52.930356)" />
    <g
       id="g12908"
       transform="matrix(0.26458333,0,0,0.26458333,-244.85298,-52.930356)" />
    <g
       id="g12910"
       transform="matrix(0.26458333,0,0,0.26458333,-244.85298,-52.930356)" />
    <g
       id="g12912"
       transform="matrix(0.26458333,0,0,0.26458333,-244.85298,-52.930356)" />
    <g
       id="g12914"
       transform="matrix(0.26458333,0,0,0.26458333,-244.85298,-52.930356)" />
    <g
       id="g12916"
       transform="matrix(0.26458333,0,0,0.26458333,-244.85298,-52.930356)" />
    <g
       id="g12918"
       transform="matrix(0.26458333,0,0,0.26458333,-244.85298,-52.930356)" />
    <g
       id="g12920"
       transform="matrix(0.26458333,0,0,0.26458333,-244.85298,-52.930356)" />
    <g
       id="g13356"
       transform="matrix(0.26458333,0,0,0.26458333,-31.44775,-48.167988)" />
    <g
       id="g13358"
       transform="matrix(0.26458333,0,0,0.26458333,-31.44775,-48.167988)" />
    <g
       id="g13360"
       transform="matrix(0.26458333,0,0,0.26458333,-31.44775,-48.167988)" />
    <g
       id="g13362"
       transform="matrix(0.26458333,0,0,0.26458333,-31.44775,-48.167988)" />
    <g
       id="g13364"
       transform="matrix(0.26458333,0,0,0.26458333,-31.44775,-48.167988)" />
    <g
       id="g13366"
       transform="matrix(0.26458333,0,0,0.26458333,-31.44775,-48.167988)" />
    <g
       id="g13368"
       transform="matrix(0.26458333,0,0,0.26458333,-31.44775,-48.167988)" />
    <g
       id="g13370"
       transform="matrix(0.26458333,0,0,0.26458333,-31.44775,-48.167988)" />
    <g
       id="g13372"
       transform="matrix(0.26458333,0,0,0.26458333,-31.44775,-48.167988)" />
    <g
       id="g13374"
       transform="matrix(0.26458333,0,0,0.26458333,-31.44775,-48.167988)" />
    <g
       id="g13376"
       transform="matrix(0.26458333,0,0,0.26458333,-31.44775,-48.167988)" />
    <g
       id="g13378"
       transform="matrix(0.26458333,0,0,0.26458333,-31.44775,-48.167988)" />
    <g
       id="g13380"
       transform="matrix(0.26458333,0,0,0.26458333,-31.44775,-48.167988)" />
    <g
       id="g13382"
       transform="matrix(0.26458333,0,0,0.26458333,-31.44775,-48.167988)" />
    <g
       id="g13384"
       transform="matrix(0.26458333,0,0,0.26458333,-31.44775,-48.167988)" />
    <g
       id="g13622"
       transform="matrix(0.34854982,0,0,0.34854982,-221.3218,117.37224)" />
    <g
       id="g13624"
       transform="matrix(0.34854982,0,0,0.34854982,-221.3218,117.37224)" />
    <g
       id="g13626"
       transform="matrix(0.34854982,0,0,0.34854982,-221.3218,117.37224)" />
    <g
       id="g13628"
       transform="matrix(0.34854982,0,0,0.34854982,-221.3218,117.37224)" />
    <g
       id="g13630"
       transform="matrix(0.34854982,0,0,0.34854982,-221.3218,117.37224)" />
    <g
       id="g13632"
       transform="matrix(0.34854982,0,0,0.34854982,-221.3218,117.37224)" />
    <g
       id="g13634"
       transform="matrix(0.34854982,0,0,0.34854982,-221.3218,117.37224)" />
    <g
       id="g13636"
       transform="matrix(0.34854982,0,0,0.34854982,-221.3218,117.37224)" />
    <g
       id="g13638"
       transform="matrix(0.34854982,0,0,0.34854982,-221.3218,117.37224)" />
    <g
       id="g13640"
       transform="matrix(0.34854982,0,0,0.34854982,-221.3218,117.37224)" />
    <g
       id="g13642"
       transform="matrix(0.34854982,0,0,0.34854982,-221.3218,117.37224)" />
    <g
       id="g13644"
       transform="matrix(0.34854982,0,0,0.34854982,-221.3218,117.37224)" />
    <g
       id="g13646"
       transform="matrix(0.34854982,0,0,0.34854982,-221.3218,117.37224)" />
    <g
       id="g13648"
       transform="matrix(0.34854982,0,0,0.34854982,-221.3218,117.37224)" />
    <g
       id="g13650"
       transform="matrix(0.34854982,0,0,0.34854982,-221.3218,117.37224)" />
    <g
       id="g14609"
       transform="matrix(0.53555588,0,0,0.53555588,146.06869,257.82731)">
      <path
         id="path13586"
         d="M -131.86893,-88.32104 H -266.6173 c -3.3905,0 -6.1249,2.77646 -6.1249,6.21912 v 98.17338 c 0,3.44266 2.7344,6.21912 6.1249,6.21912 h 134.63902 c 3.3905,0 6.1249,-2.77646 6.1249,-6.21912 v -98.17338 c 0,-3.44266 -2.7344,-6.21912 -6.01555,-6.21912 z"
         style="fill:#784421;fill-opacity:1;stroke-width:0.32503814"
         inkscape:connector-curvature="0" />
      <rect
         id="rect13588"
         height="99.274315"
         width="138.15678"
         style="fill:#004b00;fill-opacity:1;stroke-width:0.34854981"
         y="-82.652206"
         x="-268.37637" />
      <path
         id="path13590"
         d="m -226.77554,10.83094 h -18.67321 c -1.53641,0 -2.8365,1.30009 -2.8365,2.8365 v 2.95466 h 24.46402 v -2.95466 c -0.11816,-1.53641 -1.4179,-2.8365 -2.95431,-2.8365 z"
         style="fill:#fcfcfd;stroke-width:0.34854981"
         inkscape:connector-curvature="0" />
      <g
         aria-label="&lt;/code&gt;"
         style="font-style:normal;font-variant:normal;font-weight:normal;font-stretch:normal;font-size:26.5759716px;line-height:1;font-family:Anurati;-inkscape-font-specification:Anurati;letter-spacing:0px;word-spacing:0px;fill:#ffffff;fill-opacity:1;stroke:none;stroke-width:6.3076992"
         id="text13740">
        <path
           id="path1018"
           style="font-style:normal;font-variant:normal;font-weight:normal;font-stretch:normal;font-family:'Just Breathe';-inkscape-font-specification:'Just Breathe';text-align:center;text-anchor:middle;fill:#ffffff;stroke-width:6.3076992"
           d="m -177.0249,-7.3718596 0.29233,0.053152 c 0.45179,0.1063038 0.71755,0.3189116 1.14277,0.5315194 1.64771,0.903583 3.90667,1.4616784 5.89987,1.9931979 0.39864,0.1594558 0.85043,0.3720636 1.24907,0.4783674 0.47836,0.1860318 0.71755,0.3189117 1.16934,0.4783675 -1.00989,0.2657598 -2.31211,0.7707032 -3.29542,1.1693428 -1.06304,0.4252155 -2.07293,0.8504311 -2.92336,1.3287986 -0.82385,0.47836746 -1.24907,0.85043106 -1.96662,1.2756466 l -0.23918,0.15945583 c -0.61125,0.34548763 -0.0266,1.24907067 0.53152,0.87700707 l 0.26576,-0.15945583 c 0.34548,-0.23918375 0.74412,-0.50494346 1.14276,-0.77070318 1.72744,-1.19591869 4.33189,-2.04634979 6.59084,-2.81705299 0.58467,-0.1860318 1.30223,-0.4517915 1.27565,-1.2224947 -0.0266,-0.3720636 -0.47837,-0.5580954 -0.79728,-0.7175512 -0.37206,-0.1328799 -0.55809,-0.2657597 -0.90358,-0.3986396 -0.79728,-0.2923357 -1.59456,-0.6112473 -2.47157,-0.8504311 -1.38195,-0.3454876 -2.92335,-0.7441272 -4.17243,-1.3022226 -0.85043,-0.3454876 -1.38195,-0.8504311 -2.28553,-1.0630389 l -0.31891,-0.053152 c -0.15946,-0.026576 -0.29234,0 -0.39864,0.079728 -0.37206,0.2657597 -0.21261,0.8504311 0.21261,0.930159 z m -13.57492,2.7639011 c 0.50494,-2.3121096 1.4351,-4.0926997 3.4283,-4.8899788 1.24907,-0.4783675 3.26884,-0.5315197 4.88998,-0.2923357 0.71755,0.1063039 0.90358,0.1328799 1.00988,0.6378233 0.10631,0.6643993 0.13288,0.956735 0.0532,1.7274382 -0.26576,2.0197738 -1.43511,2.8967809 -3.72064,2.9499328 -1.94005,0.1063039 -3.88009,0.053152 -5.66068,-0.1328798 z m -0.18603,1.0098869 c 0.37206,0.053152 0.877,0.1063039 1.51483,0.1063039 1.46167,0.079728 2.79047,0.1328798 4.35846,0.053152 2.28553,-0.079728 3.56118,-0.7972791 4.3053,-2.3918374 0.47837,-1.1959188 0.82386,-3.5346043 -0.13288,-4.4647629 -0.50494,-0.53152 -2.15265,-0.637824 -3.24227,-0.690976 -1.38195,0 -2.57786,0.106304 -3.58775,0.53152 -1.2225,0.5049433 -2.15266,1.3022224 -2.87021,2.4449892 -0.58467,0.930159 -0.90358,2.1260777 -1.19592,3.2954205 -0.1063,0 -0.18603,-0.026576 -0.23918,-0.026576 -0.26576,-0.026576 -0.34549,-0.079728 -0.47837,-0.2126078 -0.55809,-0.3720636 -1.11619,0.4517915 -0.61124,0.8504311 0.29233,0.1860318 0.55809,0.3720636 1.00988,0.3986396 h 0.13288 c -0.26576,1.4616784 -0.18603,2.0463498 0.0532,3.37514839 0.1063,0.69097526 0.34548,1.24907066 0.69097,1.67428621 0.71755,0.9833109 2.41841,1.4616784 4.27873,0.9833109 1.64771,-0.4252155 3.10939,-0.7707031 4.35846,-1.5414063 l 0.82386,-0.50494346 c 0.53152,-0.37206361 0.0532,-1.2224947 -0.53152,-0.90358304 l -0.82386,0.50494346 c -1.19592,0.71755123 -2.52472,1.06303887 -4.0927,1.43510244 -0.79728,0.2126078 -1.46168,0.2391838 -2.04635,0.053152 -1.08961,-0.2923357 -1.4351,-0.79727918 -1.64771,-1.88689401 -0.21261,-1.22249469 -0.29233,-1.64771029 -0.0532,-2.97650879 0,0 0,-0.053152 0.0266,-0.1063039 z m -6.84332,1.2490706 c -0.15945,0 -0.29233,0.053152 -0.39864,0.1594559 l -0.34548,0.3986395 c -0.63783,0.7441273 -1.8869,2.17922972 -2.60445,2.9499329 -0.42521,0.4517915 -0.7707,0.6909753 -0.98331,0.6909753 -0.5581,0.053152 -0.98331,-0.2657598 -1.27565,-0.5315195 -0.31891,-0.50494343 -0.53152,-2.790477 -0.53152,-3.5346042 0,-1.2756466 0.13288,-2.817053 0.37207,-3.9598198 0.13288,-0.7441272 0.53152,-2.5778692 1.16934,-2.8436289 0.34549,-0.1328799 0.6644,-0.2391838 0.98331,-0.3189117 0.5581,-0.1063039 1.03646,0.1594558 1.40853,0.4252156 0.82385,0.6643993 1.19592,1.4882544 1.46168,2.737325 0.23918,1.3553746 0.47836,2.5247173 0.74412,3.8269399 z m -0.58467,-12.278099 v 1.621134 c 0,1.381951 0.15946,3.5080287 0.26576,4.8102513 -0.34549,-0.5580954 -0.74413,-1.1693428 -1.24907,-1.5414064 -0.58467,-0.3986399 -1.3288,-0.7972789 -2.25896,-0.6112469 -1.24907,0.292335 -1.88689,0.584671 -2.36526,1.8868936 -0.6644,1.807166 -0.98331,3.9066678 -0.98331,6.2719293 0,0.6378233 0.0797,1.40852647 0.21261,2.33868548 0.13288,0.93015902 0.15945,1.51483042 0.6644,1.94004592 0.47837,0.4252155 1.16934,0.8770071 2.07292,0.7972792 0.47837,-0.053152 1.00989,-0.3720637 1.62114,-1.009887 0.79728,-0.8504311 2.0995,-2.28553353 2.7639,-3.1093886 l 0.23918,1.91346991 c 0.15946,1.19591869 0.21261,1.67428619 0.34549,2.44498939 0.0532,0.3189117 1.06304,0.3189117 1.06304,-0.079728 0.0266,-0.3720636 -0.0531,-0.7441272 -0.0797,-1.1427668 -0.15945,-2.01977384 -0.42521,-3.2422685 -0.61125,-5.4746501 l -0.26576,-3.0296608 c -0.2126,-2.1792297 -0.39864,-4.1724275 -0.39864,-6.4048095 V -14.6271 c 0,-0.26576 -0.23918,-0.531519 -0.50494,-0.531519 -0.29233,0 -0.53152,0.265759 -0.53152,0.531519 z m -14.54785,5.8732899 c 0.0531,0 0.1063,0.026576 0.18603,0.026576 0.45179,0.1328798 0.98331,0.2657597 1.40853,0.4517915 1.35537,0.7441272 2.39184,1.9400459 2.60444,3.8269399 0.0532,0.7441272 0.13288,1.2224947 0,1.886894 -0.50494,1.62113424 -1.24907,3.24226851 -2.63102,3.9332438 -0.93016,0.5049434 -2.31211,0.5846713 -3.66748,0.5846713 -0.45179,0 -0.93016,-0.053152 -1.4351,-0.2126077 -1.64771,-0.4517915 -2.52472,-1.62113429 -2.52472,-3.6940601 0,-0.3720636 0.0266,-0.7175512 0.0797,-1.0364629 0.2126,-1.2224947 0.61124,-2.4449894 1.24907,-3.3485724 0.45179,-0.6909753 0.93016,-1.3022226 1.70086,-1.7008622 0.85043,-0.3454876 1.54141,-0.6378233 2.60444,-0.7175512 z m 1.64771,-1.0630389 h -1.3288 c -0.0797,0 -0.15945,0.026576 -0.21261,0.026576 -0.37206,-0.079728 -0.7707,-0.212608 -1.03646,0.053152 -0.18603,0.026576 -0.37206,0.053152 -0.53152,0.079728 -1.27565,0.2923356 -2.47156,0.7707031 -3.24227,1.5945583 -0.6644,0.7175512 -1.24907,1.5414063 -1.62113,2.4981413 -0.45179,1.1427668 -0.7707,2.1526537 -0.7707,3.6143321 0,3.1093887 1.88689,4.9431307 4.99628,4.9431307 1.00989,0 2.04635,-0.079728 2.89678,-0.2657597 2.41841,-0.4783675 3.85352,-2.63102117 4.38503,-5.0494346 0.18604,-0.7441272 0.10631,-1.3819505 0.0532,-2.2323816 -0.31892,-2.2058056 -1.43511,-3.720636 -3.08282,-4.5710671 0,-0.053152 0.0266,-0.1063039 0.0266,-0.1594558 0,-0.2657598 -0.26576,-0.5315195 -0.53152,-0.5315195 z m -12.6539,3.8269399 -0.15946,-0.2126077 c -0.45179,-0.5049435 -0.69097,-1.2224947 -1.14276,-1.7008622 -0.71755,-0.7972792 -1.72744,-1.3553746 -3.08282,-1.5148304 -1.86031,-0.1860318 -2.97651,0.3454876 -3.6409,1.5148304 -0.50495,0.8504311 -0.87701,1.5679823 -0.98332,2.7373251 -0.1063,0.9567349 -0.2126,1.3022226 -0.2126,2.2323816 0.0266,0.903583 0.15945,1.833742 0.45179,2.4981413 0.37206,1.19591872 1.16934,1.833742 2.2058,2.3386855 0.71756,0.3189117 1.64771,0.5049435 2.57787,0.5580954 l 0.77071,0.053152 c 1.99319,0.2923357 2.73732,-0.6378233 3.50802,-1.86031796 0.4518,-0.77070318 0.58468,-1.06303887 0.85044,-1.78059014 l 0.1063,-0.2657597 c 0.23918,-0.5846714 -0.79728,-0.9833109 -0.95674,-0.3454876 l -0.1063,0.2657597 c -0.0797,0.1860318 -0.15946,0.3986396 -0.23918,0.61124736 -0.18603,0.42521554 -0.93016,1.59455829 -1.2225,1.88689394 -0.31891,0.3189117 -0.63782,0.4783675 -1.14276,0.4783675 -0.26576,0 -0.50495,0 -0.71756,-0.026576 l -0.7707,-0.053152 c -0.58467,-0.026576 -1.00989,-0.1063039 -1.51483,-0.2391837 -0.58467,-0.1063039 -0.95673,-0.31891169 -1.38195,-0.61124738 -0.95673,-0.61124734 -1.30222,-1.96662192 -1.38195,-3.50802822 0,-0.8504311 0.1063,-1.1959188 0.21261,-2.1260778 0.0531,-1.0098869 0.39864,-1.5945583 0.85043,-2.3386855 0.29233,-0.5580954 0.58467,-0.7175512 1.14277,-0.903583 1.24907,-0.2923357 2.73732,0.053152 3.48145,0.6643993 l 0.45179,0.4517915 c 0.1063,0.1328799 0.21261,0.2391838 0.26576,0.3454876 0.21261,0.4252156 0.6644,1.1427668 0.93016,1.4882545 0.42521,0.5315194 1.16934,-0.026576 0.85043,-0.6378234 z m -18.2033,9.8862615 V 3.6571686 c 0,-0.1063039 0,-0.2391837 0.0532,-0.3986395 0.18603,-0.6909753 0.26576,-1.0896149 0.42521,-2.0995018 0.26576,-1.83374204 0.5581,-3.2422685 1.03646,-4.9962827 0.29234,-1.2756466 0.63783,-2.7107491 1.00989,-3.8800918 0.29234,-0.956735 0.85043,-2.2058057 1.19592,-3.1093888 0.37206,-0.983311 0.71755,-2.04635 1.22249,-2.896781 0.37207,-0.584671 0.6644,-1.195919 1.08962,-1.78059 l 0.21261,-0.26576 c 0.42521,-0.504943 -0.42522,-1.142766 -0.82386,-0.637823 l -0.21261,0.292336 c -0.47836,0.584671 -0.69097,1.24907 -1.14276,1.833742 -0.53152,0.903583 -0.93016,2.04635 -1.3288,3.082813 -0.61125,1.6477097 -1.3288,3.2156921 -1.72744,5.0760101 -0.34549,1.2490706 -0.71755,2.7107491 -0.95673,3.9332438 -0.31892,1.3819505 -0.53152,3.10938865 -0.82386,4.4913392 -0.13288,0.4783675 -0.26576,0.903583 -0.26576,1.3553745 v 0.2391838 c 0,0.2923357 0.23918,0.5049434 0.50494,0.5049434 0.26576,0 0.53152,-0.2126077 0.53152,-0.5049434 z m -4.44441,-12.6767385 h -0.18603 c -0.18604,0 -0.37207,0.026576 -0.5581,0.079728 -0.58467,0.2126078 -1.03646,0.2657597 -1.72744,0.3986396 -1.03646,0.2126078 -2.12608,0.6643993 -3.02966,0.956735 -0.55809,0.2126078 -0.95673,0.4517915 -1.4351,0.6378233 l -0.71755,0.3454876 c -0.29234,0.1328799 -0.5581,0.2923357 -0.77071,0.4783675 -0.47836,0.3720636 -1.40852,0.8238551 -1.16934,1.6211343 0.15946,0.5049435 0.50495,0.6112473 0.98331,0.8504311 l 0.95674,0.4783675 c 0.39864,0.2126077 0.79728,0.4517915 1.22249,0.6909752 1.3288,0.8238552 2.5513,1.51483041 4.01297,2.20580568 0.85044,0.42521554 1.35538,0.82385512 2.15266,1.08961482 l 0.37206,0.1328799 c 0.61125,0.2657597 0.93016,-0.77070321 0.34549,-0.95673501 l -0.37206,-0.15945583 c -0.23919,-0.05315194 -0.50495,-0.1860318 -0.77071,-0.34548763 -0.31891,-0.1860318 -0.74412,-0.42521554 -1.24907,-0.69097526 -1.4351,-0.66439927 -2.6576,-1.35537457 -3.95982,-2.15265367 -0.79728,-0.4783675 -1.86032,-1.009887 -2.60444,-1.4085265 0.0532,-0.079728 0.13288,-0.1328799 0.18603,-0.1594559 0.26576,-0.1328798 0.71755,-0.5580954 1.08961,-0.7441272 l 0.71755,-0.3189116 c 0.42522,-0.1860318 0.82386,-0.4517915 1.35538,-0.6112474 0.85043,-0.3189116 1.91347,-0.7175512 2.89678,-0.930159 0.50494,-0.1063039 0.87701,-0.1328798 1.3288,-0.2657597 0.21261,-0.053152 0.50494,-0.1860318 0.74413,-0.1860318 h 0.18603 c 0.26576,0 0.53152,-0.2126078 0.53152,-0.5049434 0,-0.2657598 -0.26576,-0.5315195 -0.53152,-0.5315196 z" />
      </g>
      <g
         id="g14479">
        <g
           id="g13564"
           transform="translate(-117.81553,-37.944021)">
          <polygon
             transform="matrix(0.26458333,0,0,0.26458333,29.028436,-65.554898)"
             id="polygon13286"
             points="169.083,442.738 169.083,414.218 95.746,414.218 95.746,442.738 132.414,475.331 "
             style="fill:#e6af78" />
          <path
             id="path13288"
             d="M 88.76606,55.115738 75.427092,51.977251 C 75.225744,51.92989 75.040271,51.849457 74.867233,51.751826 L 64.063238,58.053671 53.680194,51.446496 c -0.268817,0.253207 -0.602192,0.441061 -0.98134,0.530225 l -13.338968,3.138488 c -1.947863,0.458787 -3.32449,2.196835 -3.32449,4.197614 v 8.442854 c 0,1.190625 0.9652,2.15609 2.15609,2.15609 h 51.743239 c 1.190625,0 2.156089,-0.9652 2.156089,-2.15609 V 59.312823 C 92.09055,57.312309 90.714187,55.573996 88.76606,55.115738 Z"
             style="fill:#eff2fa;stroke-width:0.26458332"
             inkscape:connector-curvature="0" />
          <path
             id="path13290"
             d="m 54.361232,44.04028 v 7.961577 c 12.221897,4.403196 19.403747,-6.617229 19.403747,-6.617229 V 44.04028 Z"
             style="fill:#d29b6e;stroke-width:0.26458332"
             inkscape:connector-curvature="0" />
          <path
             id="path13292"
             d="m 50.049317,19.246441 0.939535,20.666339 c 0.08784,1.930664 1.034521,3.720835 2.580482,4.880504 l 4.45717,3.342746 c 1.119717,0.839787 2.481263,1.293548 3.880644,1.293548 h 4.311915 c 1.399381,0 2.761191,-0.454025 3.880643,-1.293548 l 4.457171,-3.342746 c 1.546225,-1.159669 2.49264,-2.94984 2.580481,-4.880504 L 78.076629,19.246176 H 50.049317 Z"
             style="fill:#f0c087;stroke-width:0.26458332"
             inkscape:connector-curvature="0" />
          <path
             id="path13294"
             d="m 60.828971,23.55862 c 4.311915,0 10.779919,-1.077913 12.313973,-4.311915 H 50.049317 l 0.939271,20.666604 c 0.08784,1.930665 1.034521,3.720835 2.580481,4.880504 l 4.457171,3.34301 c 1.119716,0.839788 2.481262,1.293548 3.880644,1.293548 h 2.156089 c -2.156089,0 -6.468004,-4.311914 -6.468004,-9.702006 0,-2.636043 0,-9.702006 0,-12.936008 2.65e-4,-1.078177 1.077912,-3.233737 3.234002,-3.233737 z"
             style="fill:#e6af78;stroke-width:0.26458332"
             inkscape:connector-curvature="0" />
          <g
             transform="matrix(0.26458333,0,0,0.26458333,29.028436,-65.554898)"
             id="g13300">
            <path
               id="path13296"
               d="m 208.435,485.558 26.401,-23.716 c 2.212,2.802 3.51,6.326 3.51,10.1 v 31.91 c 0,4.5 -3.648,8.149 -8.149,8.149 h -28.52 v -11.287 c 0,-5.783 2.457,-11.293 6.758,-15.156 z"
               style="fill:#e4eaf6"
               inkscape:connector-curvature="0" />
            <path
               id="path13298"
               d="M 56.393,485.558 29.992,461.842 c -2.212,2.802 -3.51,6.326 -3.51,10.1 v 31.91 c 0,4.5 3.648,8.149 8.149,8.149 h 28.52 v -11.287 c 10e-4,-5.783 -2.456,-11.293 -6.758,-15.156 z"
               style="fill:#e4eaf6"
               inkscape:connector-curvature="0" />
          </g>
          <polygon
             transform="matrix(0.26458333,0,0,0.26458333,29.028436,-65.554898)"
             id="polygon13302"
             points="124.775,475.331 140.054,475.331 142.6,512 122.228,512 "
             style="fill:#5b5d6e" />
          <path
             id="path13304"
             d="M 66.758019,58.053671 H 61.367927 V 58.6765 c 0,1.442244 1.168929,2.611173 2.611173,2.611173 h 0.167217 c 1.442244,0 2.611173,-1.168929 2.611173,-2.611173 v -0.622829 z"
             style="fill:#515262;stroke-width:0.26458332"
             inkscape:connector-curvature="0" />
          <g
             transform="matrix(0.26458333,0,0,0.26458333,29.028436,-65.554898)"
             id="g13310">
            <path
               id="path13306"
               d="m 95.174,433.666 37.24,33.516 c 0,0 -10.43,5.265 -23.3,15.876 -2.655,2.189 -6.671,1.302 -8.095,-1.831 l -17.496,-38.492 5.535,-8.302 c 1.378,-2.066 4.269,-2.429 6.116,-0.767 z"
               style="fill:#e4eaf6"
               inkscape:connector-curvature="0" />
            <path
               id="path13308"
               d="m 169.655,433.666 -37.24,33.516 c 0,0 10.43,5.265 23.3,15.876 2.655,2.189 6.671,1.302 8.095,-1.831 l 17.496,-38.492 -5.535,-8.302 c -1.378,-2.066 -4.269,-2.429 -6.116,-0.767 z"
               style="fill:#e4eaf6"
               inkscape:connector-curvature="0" />
          </g>
          <path
             id="path13312"
             d="m 70.598446,12.104807 1.010708,7.141898 c 4.613275,0.922602 5.277908,8.162131 5.373688,10.230115 0.01746,0.375179 0.137318,0.737658 0.340783,1.053306 l 1.760273,2.730235 c 0,0 -0.602721,-4.514321 2.156089,-7.545916 -2.64e-4,-2.65e-4 0.94668,-17.9215523 -10.641541,-13.609638 z"
             style="fill:#785550;stroke-width:0.26458332"
             inkscape:connector-curvature="0" />
          <path
             id="path13314"
             d="m 80.16525,32.798928 -1.217348,4.869391 c -0.144198,0.576792 -0.662781,0.981605 -1.257565,0.981605 v 0 c -0.653785,0 -1.204912,-0.486569 -1.286139,-1.135063 l -0.622565,-4.980516 c -0.166423,-1.331913 0.872067,-2.50825 2.214298,-2.50825 h 0.0045 c 1.451504,2.64e-4 2.516981,1.364456 2.164821,2.772833 z"
             style="fill:#f0c087;stroke-width:0.26458332"
             inkscape:connector-curvature="0" />
          <path
             id="path13316"
             d="m 51.08225,10.173614 1.594644,1.089025 c -7.208837,5.322622 -5.861579,14.451806 -5.861579,14.451806 2.156089,2.156089 2.156089,7.545916 2.156089,7.545916 l 2.15609,-2.156089 c 0,0 -0.832115,-6.228027 3.234002,-8.623829 3.772958,-2.223294 7.074429,-1.077913 10.44284,-1.077913 9.028112,0 11.554618,-3.402542 11.116733,-7.545917 C 75.694585,11.71243 72.416398,7.2467927 64.063238,7.3886094 60.691917,7.4457594 54.361232,8.4665219 51.08225,10.173614 Z"
             style="fill:#694b4b;stroke-width:0.26458332"
             inkscape:connector-curvature="0" />
          <path
             id="path13318"
             d="m 50.4536,20.459026 c 0,0 -1.145381,-4.514321 2.223294,-9.196652 -7.208837,5.322623 -5.861579,14.451806 -5.861579,14.451806 2.156089,2.15609 2.156089,7.545917 2.156089,7.545917 l 2.15609,-2.15609 c 0,0 -0.832115,-6.228027 3.234002,-8.623829 3.772958,-2.223294 7.074429,-1.077913 10.44284,-1.077913 1.468172,0 2.747962,-0.09842 3.887258,-0.266964 C 61.738609,21.368928 57.639948,16.102397 50.4536,20.459026 Z"
             style="fill:#5a4146;stroke-width:0.26458332"
             inkscape:connector-curvature="0" />
          <path
             id="path13320"
             d="m 47.960961,32.798928 1.217348,4.869391 c 0.144198,0.576792 0.662781,0.981605 1.257564,0.981605 v 0 c 0.653786,0 1.204913,-0.486569 1.28614,-1.135063 l 0.622564,-4.980516 c 0.166423,-1.331913 -0.872066,-2.50825 -2.214298,-2.50825 h -0.0045 c -1.451505,2.64e-4 -2.516982,1.364456 -2.164821,2.772833 z"
             style="fill:#e6af78;stroke-width:0.26458332"
             inkscape:connector-curvature="0" />
          <path
             id="path13322"
             d="M 76.998981,67.755677 H 71.60889 c -1.190625,0 -2.15609,0.9652 -2.15609,2.15609 v 0 h 9.702006 v 0 c 0,-1.19089 -0.9652,-2.15609 -2.155825,-2.15609 z"
             style="fill:#e4eaf6;stroke-width:0.26458332"
             inkscape:connector-curvature="0" />
        </g>
        <g
           style="fill:#333333"
           transform="translate(62.7113,16.33724)"
           id="g13576">
          <path
             id="path13572"
             d="m -92.116583,9.692733 h -50.112087 c -2.2225,0 -3.65125,1.772708 -3.175,3.915833 l 5.74146,26.035 c 0.29104,1.322917 1.87854,2.354792 3.57188,2.354792 h 37.808956 c 1.693333,0 3.280833,-1.031875 3.571875,-2.354792 l 5.741458,-26.035 c 0.47625,-2.143125 -0.926042,-3.915833 -3.148542,-3.915833 z"
             style="fill:#333333;stroke-width:0.26458332"
             inkscape:connector-curvature="0" />
          <ellipse
             id="ellipse13574"
             ry="3.2279165"
             rx="7.1172915"
             cy="24.8269"
             cx="-117.17262"
             style="fill:#cccccc;stroke-width:0.26458332" />
        </g>
      </g>
      <g
         id="g14454">
        <g
           id="g13543"
           transform="translate(-217.63386,-29.144235)">
          <path
             id="path13324"
             d="m 124.78961,8.0860511 c -21.74637,0 -19.33522,26.4451039 -19.236,45.6094039 0.004,0.723635 0.38285,1.376362 1.00277,1.749954 2.40982,1.452827 9.02785,4.849018 18.23323,4.849018 9.20538,0 15.82341,-3.396191 18.23323,-4.849018 0.61992,-0.373592 0.99907,-1.026319 1.00277,-1.749954 0.0992,-19.163771 2.51037,-45.6094039 -19.236,-45.6094039 z"
             style="fill:#694b4b;stroke-width:0.26458332"
             inkscape:connector-curvature="0" />
          <path
             id="path13326"
             d="M 123.38838,8.1408198 C 103.16336,9.274824 105.45651,34.957928 105.55361,53.695455 c 0.004,0.723635 0.38285,1.376362 1.00277,1.749954 2.40982,1.452827 9.02785,4.849018 18.23323,4.849018 l 5.49566,-38.469357"
             style="fill:#5a4146;stroke-width:0.26458332"
             inkscape:connector-curvature="0" />
          <path
             id="path13328"
             d="m 124.78961,8.0860511 c -12.36504,0 -13.22388,14.9410209 -13.22388,14.9410209 7.12709,-1.202267 11.50647,1.803135 18.71954,-1.202267 l -5.49566,38.469622 c 9.20565,0 15.82341,-3.396191 18.23323,-4.849018 0.61992,-0.373592 0.99907,-1.026319 1.00277,-1.749954 0.0992,-19.163771 2.51037,-45.6094039 -19.236,-45.6094039 z"
             style="fill:#694b4b;stroke-width:0.26458332"
             inkscape:connector-curvature="0" />
          <path
             id="path13330"
             d="m 144.02535,53.695455 c 0.0852,-16.467402 1.86293,-38.295262 -11.43238,-44.1166248 -0.23178,1.2046478 -0.65194,4.5675018 0.43973,6.7505788 2.74797,5.495661 5.49566,5.495661 8.24336,9.61734 2.74796,15.113 -5.25013,31.153629 -7.90681,33.337235 v 0 c 4.70668,-1.119452 8.08038,-2.890573 9.65306,-3.838575 0.62018,-0.373592 0.99933,-1.026054 1.00304,-1.749954 z"
             style="fill:#785550;stroke-width:0.26458332"
             inkscape:connector-curvature="0" />
          <path
             id="path13332"
             d="m 145.60941,57.8637 -12.25947,-5.108045 c -1.02394,-0.426509 -1.69095,-1.427163 -1.69095,-2.536561 v -3.319991 h -13.73902 v 3.319991 c 0,1.109398 -0.66702,2.110052 -1.69095,2.536561 L 103.96955,57.8637 c -1.53591,0.640028 -2.53656,2.14048 -2.53656,3.804709 v 5.49566 c 0,1.51765 1.23031,2.747963 2.74796,2.747963 h 41.21679 c 1.51765,0 2.74796,-1.230313 2.74796,-2.747963 v -5.49566 c 0,-1.664229 -1.00039,-3.164681 -2.53629,-3.804709 z"
             style="fill:#e6af78;stroke-width:0.26458332"
             inkscape:connector-curvature="0" />
          <path
             id="path13334"
             d="m 145.60941,57.8637 -11.85334,-4.938977 -8.96646,3.869796 -8.96646,-3.869796 -11.85334,4.938977 c -1.5359,0.640028 -2.53656,2.14048 -2.53656,3.804709 v 5.49566 c 0,1.51765 1.23031,2.747963 2.74796,2.747963 h 41.2168 c 1.51765,0 2.74796,-1.230313 2.74796,-2.747963 v -5.49566 c -2.7e-4,-1.664229 -1.00066,-3.164681 -2.53656,-3.804709 z"
             style="fill:#b4e1fa;stroke-width:0.26458332"
             inkscape:connector-curvature="0" />
          <path
             id="path13336"
             d="m 131.65899,46.898838 h -13.73902 v 3.319992 c 0,1.109398 -0.66702,2.110052 -1.69095,2.53656 l -1.91453,0.797983 c 14.65236,3.736182 17.3445,-6.654535 17.3445,-6.654535 z"
             style="fill:#d29b6e;stroke-width:0.26458332"
             inkscape:connector-curvature="0" />
          <g
             transform="matrix(0.26458333,0,0,0.26458333,29.028436,-65.554898)"
             id="g13348">
            <path
               id="path13338"
               d="m 298.966,486.552 -20.843,-16.579 c -2.793,2.856 -4.467,6.718 -4.467,10.871 v 20.771 c 0,5.736 4.65,10.386 10.386,10.386 h 20.771 v -13.283 c -10e-4,-4.734 -2.152,-9.21 -5.847,-12.166 z"
               style="fill:#a0d2f0"
               inkscape:connector-curvature="0" />
            <path
               id="path13340"
               d="m 450.207,501.614 v -20.771 c 0,-4.121 -1.646,-7.957 -4.399,-10.806 l -20.91,16.514 c -3.695,2.956 -5.846,7.432 -5.846,12.164 V 512 h 20.771 c 5.735,0 10.384,-4.65 10.384,-10.386 z"
               style="fill:#a0d2f0"
               inkscape:connector-curvature="0" />
            <path
               id="path13342"
               d="m 362.711,501.614 h -1.558 c -2.438,0 -4.414,-1.976 -4.414,-4.414 v -34.765 h 10.386 V 497.2 c -10e-4,2.438 -1.977,4.414 -4.414,4.414 z"
               style="fill:#a0d2f0"
               inkscape:connector-curvature="0" />
            <path
               id="path13344"
               d="m 361.932,462.423 -29.72,-22.29 c -1.908,-1.431 -4.626,-0.966 -5.949,1.018 l -5.873,8.809 18.221,25.51 c 1.385,1.939 4.115,2.318 5.975,0.83 z"
               style="fill:#a0d2f0"
               inkscape:connector-curvature="0" />
            <path
               id="path13346"
               d="m 361.932,462.423 29.72,-22.29 c 1.908,-1.431 4.626,-0.966 5.949,1.018 l 5.873,8.809 -18.221,25.51 c -1.385,1.939 -4.115,2.318 -5.975,0.83 z"
               style="fill:#a0d2f0"
               inkscape:connector-curvature="0" />
          </g>
          <path
             id="path13350"
             d="m 131.65899,20.451353 c -6.86938,6.869377 -20.35096,1.373981 -20.35096,12.365037 l 0.85302,8.09625 c 0.16457,1.811073 1.21443,3.423444 2.80405,4.306623 l 7.82267,4.345781 c 1.24487,0.691621 2.75828,0.691621 4.00315,0 l 7.82267,-4.345781 c 1.58962,-0.883179 2.63948,-2.49555 2.80405,-4.306623 l 0.98478,-9.615487 c 0.0701,-0.683419 0.0849,-1.371071 0.0619,-2.056871 -0.51382,-3.497262 -5.43163,-6.041231 -6.80534,-8.788929 z"
             style="fill:#f0c087;stroke-width:0.26458332"
             inkscape:connector-curvature="0" />
          <path
             id="path13352"
             d="m 111.30803,32.81639 0.85302,8.09625 c 0.16457,1.811073 1.21443,3.423444 2.80405,4.306623 l 7.82267,4.345781 c 0.86387,0.479954 1.85447,0.604044 2.79744,0.418042 v 0 c 0,0 -3.94388,-1.195388 -6.29126,-7.549356 -0.71914,-1.94654 -1.71715,-12.250738 -0.85857,-13.510154 1.6973,-2.4892 11.16277,-2.747963 13.95968,-7.365736 -0.13811,-0.17145 -0.26564,-0.343164 -0.38206,-0.515143 -0.009,-0.01376 -0.0206,-0.02778 -0.0302,-0.0418 -0.12145,-0.182828 -0.23151,-0.365919 -0.32385,-0.549805 -6.86938,6.869907 -20.35096,1.373982 -20.35096,12.365302 z"
             style="fill:#e6af78;stroke-width:0.26458332"
             inkscape:connector-curvature="0" />
          <path
             id="path13354"
             d="m 134.81891,67.163804 h -3.57214 c -1.28985,0 -2.33575,1.045898 -2.33575,2.335742 v 0.412221 h 8.24336 v -0.412221 c 2.7e-4,-1.289844 -1.04563,-2.335742 -2.33547,-2.335742 z"
             style="fill:#a0d2f0;stroke-width:0.26458332"
             inkscape:connector-curvature="0" />
        </g>
        <g
           style="stroke:#cccccc"
           id="g13582"
           transform="translate(22.6285,28.32684)">
          <path
             inkscape:connector-curvature="0"
             style="fill:#e6e9ee;stroke:#cccccc;stroke-width:0.5;stroke-miterlimit:4;stroke-dasharray:none"
             d="m -92.116583,9.692733 h -50.112087 c -2.2225,0 -3.65125,1.772708 -3.175,3.915833 l 5.74146,26.035 c 0.29104,1.322917 1.87854,2.354792 3.57188,2.354792 h 37.808956 c 1.693333,0 3.280833,-1.031875 3.571875,-2.354792 l 5.741458,-26.035 c 0.47625,-2.143125 -0.926042,-3.915833 -3.148542,-3.915833 z"
             id="path13578" />
          <ellipse
             style="fill:#1a1a1a;stroke:#cccccc;stroke-width:0.26458332"
             cx="-117.17262"
             cy="24.8269"
             rx="7.1172915"
             ry="3.2279165"
             id="ellipse13580" />
        </g>
      </g>
      <g
         aria-label="&lt;code&gt;"
         style="font-style:normal;font-variant:normal;font-weight:normal;font-stretch:normal;font-size:26.5759716px;line-height:1;font-family:Anurati;-inkscape-font-specification:Anurati;letter-spacing:0px;word-spacing:0px;fill:#ffffff;fill-opacity:1;stroke:none;stroke-width:6.30769968"
         id="text13740-5">
        <path
           id="path997"
           style="font-style:normal;font-variant:normal;font-weight:normal;font-stretch:normal;font-family:'Just Breathe';-inkscape-font-specification:'Just Breathe';text-align:center;text-anchor:middle;fill:#ffffff;stroke-width:6.30769968"
           d="m -187.59213,-66.337608 0.29233,0.05315 c 0.45179,0.106304 0.71755,0.318912 1.14277,0.53152 1.64771,0.903583 3.90667,1.461678 5.89986,1.993198 0.39864,0.159455 0.85043,0.372063 1.24907,0.478367 0.47837,0.186032 0.71756,0.318912 1.16935,0.478368 -1.00989,0.265759 -2.31211,0.770703 -3.29542,1.169342 -1.06304,0.425216 -2.07293,0.850431 -2.92336,1.328799 -0.82386,0.478367 -1.24907,0.850431 -1.96662,1.275647 l -0.23919,0.159455 c -0.61124,0.345488 -0.0266,1.249071 0.53152,0.877007 l 0.26576,-0.159455 c 0.34549,-0.239184 0.74413,-0.504944 1.14277,-0.770704 1.72744,-1.195918 4.33188,-2.046349 6.59084,-2.817053 0.58467,-0.186031 1.30222,-0.451791 1.27565,-1.222494 -0.0266,-0.372064 -0.47837,-0.558096 -0.79728,-0.717551 -0.37206,-0.13288 -0.5581,-0.26576 -0.90358,-0.39864 -0.79728,-0.292336 -1.59456,-0.611247 -2.47157,-0.850431 -1.38195,-0.345488 -2.92336,-0.744127 -4.17243,-1.302223 -0.85043,-0.345487 -1.38195,-0.850431 -2.28553,-1.063039 l -0.31891,-0.05315 c -0.15946,-0.02658 -0.29234,0 -0.39864,0.07973 -0.37207,0.26576 -0.21261,0.850431 0.21261,0.930159 z m -13.57493,2.763901 c 0.50495,-2.312109 1.4351,-4.092699 3.4283,-4.889978 1.24907,-0.478368 3.26885,-0.53152 4.88998,-0.292336 0.71755,0.106304 0.90358,0.13288 1.00989,0.637823 0.1063,0.6644 0.13288,0.956735 0.0531,1.727438 -0.26576,2.019774 -1.4351,2.896781 -3.72064,2.949933 -1.94004,0.106304 -3.88009,0.05315 -5.66068,-0.13288 z m -0.18603,1.009887 c 0.37206,0.05315 0.87701,0.106304 1.51483,0.106304 1.46168,0.07973 2.79048,0.13288 4.35846,0.05315 2.28553,-0.07973 3.56118,-0.797279 4.30531,-2.391837 0.47837,-1.195919 0.82385,-3.534605 -0.13288,-4.464764 -0.50495,-0.531519 -2.15266,-0.637823 -3.24227,-0.690975 -1.38195,0 -2.57787,0.106304 -3.58776,0.53152 -1.22249,0.504943 -2.15265,1.302222 -2.8702,2.444989 -0.58467,0.930159 -0.90358,2.126078 -1.19592,3.295421 -0.1063,0 -0.18603,-0.02658 -0.23918,-0.02658 -0.26576,-0.02658 -0.34549,-0.07973 -0.47837,-0.212608 -0.5581,-0.372064 -1.11619,0.451791 -0.61125,0.850431 0.29234,0.186032 0.5581,0.372063 1.00989,0.398639 h 0.13288 c -0.26576,1.461679 -0.18603,2.04635 0.0532,3.375149 0.1063,0.690975 0.34549,1.24907 0.69097,1.674286 0.71756,0.983311 2.41842,1.461678 4.27874,0.983311 1.64771,-0.425216 3.10938,-0.770703 4.35846,-1.541406 l 0.82385,-0.504944 c 0.53152,-0.372063 0.0532,-1.222495 -0.53152,-0.903583 l -0.82385,0.504944 c -1.19592,0.717551 -2.52472,1.063038 -4.0927,1.435102 -0.79728,0.212608 -1.46168,0.239184 -2.04635,0.05315 -1.08962,-0.292336 -1.43511,-0.797279 -1.64771,-1.886894 -0.21261,-1.222495 -0.29234,-1.64771 -0.0532,-2.976509 0,0 0,-0.05315 0.0266,-0.106304 z m -6.84332,1.249071 c -0.15945,0 -0.29233,0.05315 -0.39864,0.159456 l -0.34548,0.398639 c -0.63783,0.744128 -1.8869,2.17923 -2.60445,2.949933 -0.42521,0.451792 -0.7707,0.690975 -0.98331,0.690975 -0.55809,0.05315 -0.98331,-0.265759 -1.27565,-0.531519 -0.31891,-0.504943 -0.53152,-2.790477 -0.53152,-3.534604 0,-1.275647 0.13288,-2.817053 0.37207,-3.95982 0.13288,-0.744127 0.53152,-2.577869 1.16934,-2.843629 0.34549,-0.13288 0.6644,-0.239184 0.98331,-0.318912 0.5581,-0.106303 1.03646,0.159456 1.40853,0.425216 0.82385,0.664399 1.19592,1.488254 1.46168,2.737325 0.23918,1.355375 0.47836,2.524717 0.74412,3.82694 z m -0.58467,-12.278099 v 1.621134 c 0,1.381951 0.15946,3.508029 0.26576,4.810251 -0.34549,-0.558095 -0.74412,-1.169343 -1.24907,-1.541406 -0.58467,-0.39864 -1.3288,-0.797279 -2.25896,-0.611247 -1.24907,0.292335 -1.88689,0.584671 -2.36526,1.886894 -0.6644,1.807166 -0.98331,3.906667 -0.98331,6.271929 0,0.637823 0.0797,1.408526 0.21261,2.338685 0.13288,0.930159 0.15946,1.514831 0.6644,1.940046 0.47837,0.425216 1.16934,0.877007 2.07292,0.797279 0.47837,-0.05315 1.00989,-0.372063 1.62114,-1.009887 0.79728,-0.850431 2.0995,-2.285533 2.7639,-3.109388 l 0.23918,1.91347 c 0.15946,1.195918 0.21261,1.674286 0.34549,2.444989 0.0531,0.318912 1.06304,0.318912 1.06304,-0.07973 0.0266,-0.372063 -0.0531,-0.744127 -0.0797,-1.142767 -0.15945,-2.019773 -0.42521,-3.242268 -0.61125,-5.47465 l -0.26575,-3.02966 c -0.21261,-2.17923 -0.39864,-4.172428 -0.39864,-6.40481 v -1.621134 c 0,-0.26576 -0.23919,-0.531519 -0.50495,-0.531519 -0.29233,0 -0.53152,0.265759 -0.53152,0.531519 z m -14.54785,5.87329 c 0.0532,0 0.1063,0.02658 0.18603,0.02658 0.45179,0.13288 0.98331,0.26576 1.40853,0.451791 1.35537,0.744128 2.39184,1.940046 2.60444,3.82694 0.0532,0.744127 0.13288,1.222495 0,1.886894 -0.50494,1.621134 -1.24907,3.242269 -2.63102,3.933244 -0.93016,0.504943 -2.31211,0.584671 -3.66748,0.584671 -0.45179,0 -0.93016,-0.05315 -1.4351,-0.212607 -1.64771,-0.451792 -2.52472,-1.621135 -2.52472,-3.69406 0,-0.372064 0.0266,-0.717552 0.0797,-1.036463 0.2126,-1.222495 0.61124,-2.44499 1.24907,-3.348573 0.45179,-0.690975 0.93016,-1.302222 1.70086,-1.700862 0.85043,-0.345488 1.54141,-0.637823 2.60445,-0.717551 z m 1.64771,-1.063039 h -1.3288 c -0.0797,0 -0.15945,0.02658 -0.21261,0.02658 -0.37206,-0.07973 -0.7707,-0.212608 -1.03646,0.05315 -0.18603,0.02658 -0.37206,0.05315 -0.53152,0.07973 -1.27564,0.292335 -2.47156,0.770703 -3.24227,1.594558 -0.6644,0.717551 -1.24907,1.541406 -1.62113,2.498141 -0.45179,1.142767 -0.7707,2.152654 -0.7707,3.614333 0,3.109388 1.88689,4.94313 4.99628,4.94313 1.00989,0 2.04635,-0.07973 2.89678,-0.265759 2.41841,-0.478368 3.85352,-2.631022 4.38504,-5.049435 0.18603,-0.744127 0.1063,-1.381951 0.0532,-2.232382 -0.31891,-2.205805 -1.43511,-3.720636 -3.08282,-4.571067 0,-0.05315 0.0266,-0.106304 0.0266,-0.159456 0,-0.265759 -0.26576,-0.531519 -0.53152,-0.531519 z m -12.6539,3.82694 -0.15945,-0.212608 c -0.45179,-0.504943 -0.69098,-1.222495 -1.14277,-1.700862 -0.71755,-0.797279 -1.72744,-1.355375 -3.08281,-1.51483 -1.86032,-0.186032 -2.97651,0.345487 -3.64091,1.51483 -0.50494,0.850431 -0.87701,1.567982 -0.98331,2.737325 -0.10631,0.956735 -0.21261,1.302223 -0.21261,2.232382 0.0266,0.903583 0.15946,1.833742 0.45179,2.498141 0.37207,1.195919 1.16934,1.833742 2.20581,2.338685 0.71755,0.318912 1.64771,0.504944 2.57787,0.558096 l 0.7707,0.05315 c 1.9932,0.292335 2.73732,-0.637824 3.50803,-1.860318 0.45179,-0.770703 0.58467,-1.063039 0.85043,-1.78059 l 0.1063,-0.26576 c 0.23919,-0.584671 -0.79728,-0.983311 -0.95673,-0.345488 l -0.10631,0.26576 c -0.0797,0.186032 -0.15945,0.39864 -0.23918,0.611247 -0.18603,0.425216 -0.93016,1.594559 -1.22249,1.886894 -0.31892,0.318912 -0.63783,0.478368 -1.14277,0.478368 -0.26576,0 -0.50494,0 -0.71755,-0.02658 l -0.77071,-0.05315 c -0.58467,-0.02658 -1.00988,-0.106304 -1.51483,-0.239184 -0.58467,-0.106304 -0.95673,-0.318911 -1.38195,-0.611247 -0.95673,-0.611247 -1.30222,-1.966622 -1.38195,-3.508028 0,-0.850431 0.10631,-1.195919 0.21261,-2.126078 0.0531,-1.009887 0.39864,-1.594558 0.85043,-2.338686 0.29234,-0.558095 0.58467,-0.717551 1.14277,-0.903583 1.24907,-0.292335 2.73732,0.05315 3.48145,0.6644 l 0.45179,0.451791 c 0.10631,0.13288 0.21261,0.239184 0.26576,0.345488 0.21261,0.425215 0.6644,1.142767 0.93016,1.488254 0.42522,0.53152 1.16934,-0.02658 0.85043,-0.637823 z m -12.62981,-2.790477 h -0.18603 c -0.18604,0 -0.37207,0.02658 -0.5581,0.07973 -0.58467,0.212608 -1.03646,0.265759 -1.72744,0.398639 -1.03646,0.212608 -2.12608,0.6644 -3.02966,0.956735 -0.55809,0.212608 -0.95673,0.451792 -1.4351,0.637824 l -0.71755,0.345487 c -0.29234,0.13288 -0.5581,0.292336 -0.77071,0.478368 -0.47836,0.372063 -1.40852,0.823855 -1.16934,1.621134 0.15946,0.504943 0.50494,0.611247 0.98331,0.850431 l 0.95674,0.478368 c 0.39864,0.212607 0.79728,0.451791 1.22249,0.690975 1.3288,0.823855 2.5513,1.51483 4.01297,2.205806 0.85043,0.425215 1.35538,0.823855 2.15266,1.089614 l 0.37206,0.13288 c 0.61125,0.26576 0.93016,-0.770703 0.34549,-0.956735 l -0.37206,-0.159456 c -0.23919,-0.05315 -0.50495,-0.186031 -0.77071,-0.345487 -0.31891,-0.186032 -0.74413,-0.425216 -1.24907,-0.690976 -1.4351,-0.664399 -2.6576,-1.355374 -3.95982,-2.152653 -0.79728,-0.478368 -1.86032,-1.009887 -2.60444,-1.408527 0.0532,-0.07973 0.13288,-0.13288 0.18603,-0.159456 0.26576,-0.132879 0.71755,-0.558095 1.08961,-0.744127 l 0.71755,-0.318911 c 0.42522,-0.186032 0.82386,-0.451792 1.35538,-0.611248 0.85043,-0.318911 1.91347,-0.717551 2.89678,-0.930159 0.50494,-0.106304 0.87701,-0.13288 1.3288,-0.265759 0.21261,-0.05315 0.50494,-0.186032 0.74413,-0.186032 h 0.18603 c 0.26576,0 0.53152,-0.212608 0.53152,-0.504944 0,-0.265759 -0.26576,-0.531519 -0.53152,-0.531519 z" />
      </g>
      <g
         id="g14371">
        <g
           id="g13227"
           transform="matrix(0.62985191,0,0,0.69987993,-97.74797,10.38584)">
          <path
             id="path12872"
             d="m -92.116583,41.998358 c 6.958542,0 12.673542,-5.609167 12.726458,-12.567709 0,-0.05292 0,-0.07937 0,-0.132291 0,-17.806458 -16.906874,-32.2262498 -37.782495,-32.2262498 -20.87563,0 -37.7825,14.4197918 -37.7825,32.2262498 0,0.05292 0,0.07937 0,0.132291 0.0264,6.958542 5.74145,12.567709 12.72645,12.567709 z"
             style="fill:#4cdbc4;stroke-width:0.26458332"
             inkscape:connector-curvature="0" />
          <path
             id="path12874"
             d="m -92.725124,-15.257475 c 0,0.02646 0,0.07937 0,0.105833 -0.608542,8.7312502 -4.974167,16.8275001 -11.906246,22.1720834 -0.79375,0.6085416 -1.61396,1.2170833 -2.46063,1.7991666 -2.91042,1.984375 -6.27062,3.889375 -10.08062,5.662083 -3.81,-1.772708 -7.17021,-3.677708 -10.08063,-5.6885413 -0.84667,-0.5820834 -1.66687,-1.190625 -2.46062,-1.7991667 -6.93209,-5.3445832 -11.29771,-13.4408331 -11.90625,-22.172083 v -0.105833 c 0.52916,-4.656667 2.83104,-9.286875 6.90562,-13.626042 4.07458,-4.339166 9.92188,-8.41375 17.54188,-11.985625 15.24,7.14375 23.415621,16.324792 24.447496,25.638125 z"
             style="fill:#2c9984;stroke-width:0.26458332"
             inkscape:connector-curvature="0" />
          <path
             id="path12876"
             d="m -107.092,8.819608 c -2.91042,1.984375 -6.27062,3.889375 -10.08062,5.662083 -3.81,-1.772708 -7.17021,-3.677708 -10.08063,-5.6885413 l 1.11125,-10.9537499 h 17.96521 z"
             style="fill:#f9b54c;stroke-width:0.26458332"
             inkscape:connector-curvature="0" />
          <g
             transform="matrix(0.26458333,0,0,0.26458333,-184.37679,-70.317266)"
             id="g12882">
            <path
               id="path12878"
               d="m 321.4,202.1 c 0,50.7 -29.9,91.8 -66.9,91.8 -33.5,0 -61.3,-33.8 -66.1,-78 -0.5,-4.5 -7.7,-9.4 -4,-36.4 5.5,-39.9 39,-69.3 70.1,-69.3 36.9,0.1 66.9,41.2 66.9,91.9 z"
               style="fill:#ffd05b"
               inkscape:connector-curvature="0" />
            <polygon
               id="polygon12880"
               points="188.3,215.9 184.7,208.1 188.3,204.1 193,212.1 "
               style="fill:#ffd05b" />
          </g>
          <path
             id="path12884"
             d="m -115.0295,-44.679141 c 0.66146,0.211666 14.07583,0.555625 19.658542,10.662708 l -3.518958,-2.196042 c 0,0 2.725208,2.751667 3.148542,8.969375 0.264583,3.96875 -0.502709,7.911042 -2.143125,11.58875 l -1.772709,3.942292 c 0,0 0.529167,-13.943542 -2.460622,-15.504584 0,0 -2.32834,2.8575 0,5.503334 0,0 -7.27604,-0.132292 -6.11188,-9.789583 0,0 -10.26583,-0.978959 -10.90083,8.889999 0,0 -4.28625,-0.211666 -3.75708,-5.609166 0,0 -5.58271,0.449791 -6.87917,6.376458 0,0 -0.29104,-3.4925 -2.72521,-5.662083 0,0 -1.905,9.36625 -2.03729,14.313958 0,0 -14.20813,-25.638125 18.97062,-31.670625 0.18521,-0.02646 0.34396,0.105834 0.52917,0.185209 z"
             style="fill:#324a5e;stroke-width:0.26458332"
             inkscape:connector-curvature="0" />
          <path
             id="path12886"
             d="m -117.17262,-54.442266 v 0 c -0.0265,0 -0.0529,0 -0.0794,0 -0.0265,0 -0.0529,0 -0.0794,0 v 0 c -13.54667,0.343958 -24.4475,16.166041 -24.4475,35.612916 0,1.190625 0.0529,2.38125 0.13229,3.571875 0.87312,-7.567083 6.50875,-15.054792 16.88041,-21.404791 4.60375,-2.831042 10.42459,-2.831042 15.02834,0 10.371664,6.349999 16.007289,13.837708 16.880414,21.404791 0.07937,-1.164167 0.132292,-2.354792 0.132292,-3.571875 0.02646,-19.446875 -10.900836,-35.268958 -24.447496,-35.612916 z"
             style="fill:#4cdbc4;stroke-width:0.26458332"
             inkscape:connector-curvature="0" />
        </g>
        <g
           id="g13217"
           style="stroke:#cccccc"
           transform="translate(-54.65536,16.32858)">
          <path
             id="path12888"
             d="m -92.116583,9.692733 h -50.112087 c -2.2225,0 -3.65125,1.772708 -3.175,3.915833 l 5.74146,26.035 c 0.29104,1.322917 1.87854,2.354792 3.57188,2.354792 h 37.808956 c 1.693333,0 3.280833,-1.031875 3.571875,-2.354792 l 5.741458,-26.035 c 0.47625,-2.143125 -0.926042,-3.915833 -3.148542,-3.915833 z"
             style="fill:#e6e9ee;stroke:#cccccc;stroke-width:0.5;stroke-miterlimit:4;stroke-dasharray:none"
             inkscape:connector-curvature="0" />
          <ellipse
             id="ellipse12890"
             ry="3.2279165"
             rx="7.1172915"
             cy="24.8269"
             cx="-117.17262"
             style="fill:#1a1a1a;stroke:#cccccc;stroke-width:0.26458332" />
        </g>
        <g
           aria-label="..."
           style="font-style:normal;font-variant:normal;font-weight:normal;font-stretch:normal;font-size:70.55555725px;line-height:1;font-family:Anurati;-inkscape-font-specification:Anurati;letter-spacing:0px;word-spacing:0px;fill:#ffffff;fill-opacity:1;stroke:none;stroke-width:6.30769968"
           id="text13740-5-0">
          <path
             id="path1030"
             style="font-style:normal;font-variant:normal;font-weight:normal;font-stretch:normal;font-family:'Just Breathe';-inkscape-font-specification:'Just Breathe';text-align:center;text-anchor:middle;fill:#ffffff;stroke-width:6.30769968"
             d="m -196.19827,-31.749645 c 0,0.846666 0.70556,1.622777 1.55223,1.622777 0.77611,0 1.41111,-0.635 1.41111,-1.411111 0,-0.776111 -0.77611,-1.552222 -1.62278,-1.552222 -0.77611,0 -1.34056,0.635 -1.34056,1.340556 z m -9.92187,0 c 0,0.846666 0.70555,1.622777 1.55222,1.622777 0.77611,0 1.41111,-0.635 1.41111,-1.411111 0,-0.776111 -0.77611,-1.552222 -1.62278,-1.552222 -0.77611,0 -1.34055,0.635 -1.34055,1.340556 z m -9.92188,0 c 0,0.846666 0.70556,1.622777 1.55223,1.622777 0.77611,0 1.41111,-0.635 1.41111,-1.411111 0,-0.776111 -0.77611,-1.552222 -1.62278,-1.552222 -0.77611,0 -1.34056,0.635 -1.34056,1.340556 z" />
        </g>
      </g>
      <g
         id="g14432">
        <g
           id="g13147"
           transform="matrix(0.1267607,0,0,0.13488148,-162.89337,-14.60825)"
           inkscape:transform-center-x="49.97994"
           inkscape:transform-center-y="102.50992">
          <g
             id="g13047">
            <g
               id="g13213">
              <path
                 inkscape:connector-curvature="0"
                 style="fill:#ffd7a3"
                 d="M 370.802,365.011 C 369.05,351.869 360.9,340.45 349.041,334.521 l -17.232,-8.616 c -2.567,-1.284 -5.51,-0.145 -6.766,2.29 L 316.36,325 C 376.227,308.691 408,280 408,280 376.5,218.5 385,125 360,72 335,19 288,0 232,0 176,0 129,19 104,72 79,125 87.5,218.5 56,280 c 0,0 31.774,28.69 91.641,44.999 l -8.682,3.195 c -1.242,-2.438 -4.18,-3.584 -6.742,-2.303 l -15.714,7.857 c -13.41,6.705 -21.552,18.121 -23.304,31.262 l -0.388,2.908 c 0,10e-4 0,10e-4 0,10e-4 l -9.188,68.908 C 81.705,451.216 92.898,464 107.413,464 h 249.175 c 14.515,0 25.708,-12.784 23.789,-27.172 z"
                 id="path12957" />
              <g
                 id="g12961">
                <path
                   inkscape:connector-curvature="0"
                   style="fill:#9d6e48"
                   d="M 360,72 C 335,19 288,0 232,0 176,0 129,19 104,72 79,125 87.5,218.5 56,280 c 0,0 62,56 176,56 114,0 176,-56 176,-56 C 376.5,218.5 385,125 360,72 Z"
                   id="path12959" />
              </g>
              <path
                 inkscape:connector-curvature="0"
                 style="fill:#8d5f3d"
                 d="M 184,143 C 184,87 204.909,34.707 247.137,0.55 242.164,0.219 237.135,0 232,0 176,0 129,19 104,72 79,125 87.5,218.5 56,280 c 0,0 45.431,39.895 128,52.264 0,10e-4 0,-145.264 0,-189.264 z"
                 id="path12963" />
              <g
                 id="g12969">
                <path
                   inkscape:connector-curvature="0"
                   style="fill:#ffd7a3"
                   d="m 371.19,367.921 c -1.962,-14.712 -11.908,-27.128 -25.837,-32.253 l -54.412,-20.02 c -6.533,-2.178 -10.94,-8.292 -10.94,-15.179 V 248 h -96 v 52.468 c 0,6.887 -4.407,13.001 -10.94,15.179 l -54.412,20.02 c -13.929,5.125 -23.875,17.541 -25.837,32.253 l -9.188,68.908 C 81.706,451.216 92.899,464 107.413,464 h 249.176 c 14.515,0 25.708,-12.784 23.789,-27.172 z"
                   id="path12965" />
                <path
                   inkscape:connector-curvature="0"
                   style="fill:#fdc88e"
                   d="m 184,300.469 c 0,0.391 -0.017,0.777 -0.046,1.161 -0.014,0.2 -0.04,0.396 -0.062,0.595 -0.018,0.16 -0.034,0.32 -0.057,0.478 -0.043,0.307 -0.098,0.609 -0.158,0.911 -0.001,0.006 -0.002,0.013 -0.004,0.019 -0.888,4.4 -3.587,8.228 -7.424,10.538 C 243.173,325.732 280,274.667 280,274.667 L 184,274 Z"
                   id="path12967" />
              </g>
              <path
                 inkscape:connector-curvature="0"
                 style="fill:#ffe1b2"
                 d="m 344,160 v -16 c 0,-22.091 -17.909,-40 -40,-40 H 160 c -22.091,0 -40,17.909 -40,40 v 16 c -13.255,0 -24,10.746 -24,24 0,13.255 10.745,24 24,24 v 8 c 0,19.377 11.651,36.854 29.538,44.308 l 51.691,21.538 c 9.75,4.063 20.208,6.154 30.77,6.154 v 0 c 10.562,0 21.019,-2.092 30.769,-6.154 l 51.694,-21.539 C 332.349,252.855 344,235.378 344,216 v -8 c 13.255,0 24,-10.745 24,-24 0,-13.255 -10.745,-24 -24,-24 z"
                 id="path12971" />
              <path
                 inkscape:connector-curvature="0"
                 style="fill:#ffd7a3"
                 d="M 302,127.625 V 107 H 144.811 C 130.255,112.981 120,127.288 120,144 v 16 c -13.255,0 -24,10.745 -24,24 0,13.255 10.745,24 24,24 v 8 c 0,19.378 11.651,36.855 29.538,44.308 l 51.69,21.538 c 2.53,1.054 5.112,1.962 7.727,2.749 -22.844,-16.711 -38.05,-31.32 -46.96,-40.872 C 155.513,236.773 152,227.602 152,218.098 v -58.21 c 25.806,-0.635 107.684,-4.821 150,-32.263 z"
                 id="path12973" />
              <path
                 inkscape:connector-curvature="0"
                 style="fill:#9d6e48"
                 d="m 136,144 c 0,0 51,5 80,-8 4.081,-1.829 16,-28 16,-28 v 36 c 0,0 36.786,-1.903 75,-17.326 V 98 H 130.55 c 3.633,18.297 5.45,46 5.45,46 z"
                 id="path12989" />
              <g
                 id="g12993">
                <path
                   inkscape:connector-curvature="0"
                   style="fill:#ff6473"
                   d="m 349.041,334.521 -17.232,-8.616 c -2.92,-1.46 -6.327,0.212 -7.184,3.362 -11.09,40.761 -48.352,70.736 -92.626,70.736 -44.285,0 -81.555,-29.99 -92.635,-70.767 -0.852,-3.134 -4.242,-4.797 -7.146,-3.345 l -15.714,7.857 c -13.41,6.705 -21.552,18.121 -23.304,31.262 l -9.576,71.817 c -1.918,14.388 9.275,27.172 23.789,27.172 h 249.176 c 14.515,0 25.708,-12.784 23.789,-27.172 L 370.802,365.01 C 369.05,351.87 360.9,340.45 349.041,334.521 Z"
                   id="path12991" />
              </g>
              <g
                 id="g12997">
                <path
                   inkscape:connector-curvature="0"
                   style="fill:#f05467"
                   d="m 96.843,353.124 c -1.813,3.734 -3.087,7.708 -3.645,11.887 l -9.576,71.817 C 81.704,451.216 92.897,464 107.412,464 H 144 v -32 c 0,-10.386 -3.369,-20.491 -9.6,-28.8 z"
                   id="path12995" />
              </g>
              <g
                 id="g13001">
                <path
                   inkscape:connector-curvature="0"
                   style="fill:#f05467"
                   d="m 367.157,353.124 c 1.813,3.734 3.087,7.708 3.645,11.887 l 9.576,71.817 C 382.296,451.216 371.103,464 356.588,464 H 320 v -32 c 0,-10.386 3.368,-20.491 9.6,-28.8 z"
                   id="path12999" />
              </g>
              <g
                 id="g13007">
                <g
                   id="g13005">
                  <path
                     inkscape:connector-curvature="0"
                     style="fill:#bd445a"
                     d="m 332,103.649 c 0,10.77 -21.73,19.5 -32.5,19.5 -10.77,0 -19.5,-8.73 -19.5,-19.5 0,-10.77 8.73,-19.5 19.5,-19.5 10.77,0 32.5,8.731 32.5,19.5 z"
                     id="path13003" />
                </g>
              </g>
              <g
                 id="g13013">
                <g
                   id="g13011">
                  <path
                     inkscape:connector-curvature="0"
                     style="fill:#bd445a"
                     d="m 332,103.649 c 0,-10.77 21.73,-19.5 32.5,-19.5 10.77,0 19.5,8.73 19.5,19.5 0,10.77 -8.73,19.5 -19.5,19.5 -10.77,0 -32.5,-8.73 -32.5,-19.5 z"
                     id="path13009" />
                </g>
              </g>
              <g
                 id="g13019">
                <g
                   id="g13017">
                  <path
                     inkscape:connector-curvature="0"
                     style="fill:#ff6473"
                     d="m 332,103.649 c 9.327,5.385 6.022,28.569 0.638,37.896 -5.385,9.327 -17.311,12.522 -26.638,7.138 -9.327,-5.384 -12.522,-17.311 -7.138,-26.638 5.386,-9.327 23.812,-23.781 33.138,-18.396 z"
                     id="path13015" />
                </g>
              </g>
              <g
                 id="g13025">
                <g
                   id="g13023">
                  <path
                     inkscape:connector-curvature="0"
                     style="fill:#ff6473"
                     d="m 332,103.649 c -9.327,-5.385 -6.022,-28.569 -0.637,-37.896 5.385,-9.327 17.311,-12.522 26.638,-7.138 9.327,5.384 12.522,17.311 7.138,26.638 -5.386,9.327 -23.812,23.781 -33.139,18.396 z"
                     id="path13021" />
                </g>
              </g>
              <g
                 id="g13031">
                <g
                   id="g13029">
                  <path
                     inkscape:connector-curvature="0"
                     style="fill:#f05467"
                     d="m 332,103.649 c -9.327,5.385 -6.022,28.569 -0.637,37.896 5.385,9.327 17.311,12.522 26.638,7.138 9.327,-5.384 12.522,-17.311 7.138,-26.638 C 359.753,112.718 341.327,98.264 332,103.649 Z"
                     id="path13027" />
                </g>
              </g>
              <g
                 id="g13037">
                <g
                   id="g13035">
                  <path
                     inkscape:connector-curvature="0"
                     style="fill:#f05467"
                     d="m 332,103.649 c 9.327,-5.385 6.022,-28.569 0.638,-37.896 -5.385,-9.327 -17.311,-12.522 -26.638,-7.138 -9.327,5.384 -12.522,17.311 -7.138,26.638 5.386,9.327 23.812,23.781 33.138,18.396 z"
                     id="path13033" />
                </g>
              </g>
              <g
                 id="g13043">
                <g
                   id="g13041">
                  <circle
                     style="fill:#ffffff"
                     cx="332"
                     cy="103.649"
                     r="13"
                     id="circle13039" />
                </g>
              </g>
              <path
                 inkscape:connector-curvature="0"
                 style="fill:#8d5f3d"
                 d="m 130.546,98 c 3.635,18.297 5.455,46 5.455,46 0,0 23.071,2.249 47,-0.225 0,-0.256 0,-0.525 0,-0.775 0,-15.386 1.7,-30.476 4.981,-45 z"
                 id="path13045" />
            </g>
          </g>
          <g
             id="g13049" />
          <g
             id="g13051" />
          <g
             id="g13053" />
          <g
             id="g13055" />
          <g
             id="g13057" />
          <g
             id="g13059" />
          <g
             id="g13061" />
          <g
             id="g13063" />
          <g
             id="g13065" />
          <g
             id="g13067" />
          <g
             id="g13069" />
          <g
             id="g13071" />
          <g
             id="g13073" />
          <g
             id="g13075" />
          <g
             id="g13077" />
        </g>
        <g
           id="g13233"
           transform="translate(-19.49113,31.14558)"
           style="fill:#333333">
          <path
             inkscape:connector-curvature="0"
             style="fill:#333333;stroke-width:0.26458332"
             d="m -92.116583,9.692733 h -50.112087 c -2.2225,0 -3.65125,1.772708 -3.175,3.915833 l 5.74146,26.035 c 0.29104,1.322917 1.87854,2.354792 3.57188,2.354792 h 37.808956 c 1.693333,0 3.280833,-1.031875 3.571875,-2.354792 l 5.741458,-26.035 c 0.47625,-2.143125 -0.926042,-3.915833 -3.148542,-3.915833 z"
             id="path13229" />
          <ellipse
             style="fill:#cccccc;stroke-width:0.26458332"
             cx="-117.17262"
             cy="24.8269"
             rx="7.1172915"
             ry="3.2279165"
             id="ellipse13231" />
        </g>
      </g>
    </g>
  </g>
  <style
     type="text/css"
     id="style10107">
	.st0{fill:none;stroke:#000000;stroke-linejoin:round;stroke-miterlimit:10;}
	.st1{fill:none;stroke:#000000;stroke-width:3;stroke-linejoin:round;stroke-miterlimit:10;}
</style>
</svg>
