<?xml version="1.0" encoding="UTF-8" standalone="no"?>
<!-- Created with Inkscape (http://www.inkscape.org/) -->

<svg
   xmlns:dc="http://purl.org/dc/elements/1.1/"
   xmlns:cc="http://creativecommons.org/ns#"
   xmlns:rdf="http://www.w3.org/1999/02/22-rdf-syntax-ns#"
   xmlns:svg="http://www.w3.org/2000/svg"
   xmlns="http://www.w3.org/2000/svg"
   xmlns:sodipodi="http://sodipodi.sourceforge.net/DTD/sodipodi-0.dtd"
   xmlns:inkscape="http://www.inkscape.org/namespaces/inkscape"
   width="500.00003"
   height="139.10001"
   viewBox="0 0 132.29167 36.803543"
   version="1.1"
   id="svg1264"
   inkscape:version="0.92.2 (unknown)"
   sodipodi:docname="logo-text.svg">
  <defs
     id="defs1258" />
  <sodipodi:namedview
     id="base"
     pagecolor="#ffffff"
     bordercolor="#666666"
     borderopacity="1.0"
     inkscape:pageopacity="0.0"
     inkscape:pageshadow="2"
     inkscape:zoom="0.49497475"
     inkscape:cx="345.19948"
     inkscape:cy="23.373434"
     inkscape:document-units="mm"
     inkscape:current-layer="g909"
     showgrid="false"
     inkscape:window-width="1117"
     inkscape:window-height="713"
     inkscape:window-x="0"
     inkscape:window-y="27"
     inkscape:window-maximized="1"
     units="px"
     showguides="true"
     inkscape:guide-bbox="true">
    <sodipodi:guide
       position="-88.877969,-269.13796"
       orientation="1,0"
       id="guide1395"
       inkscape:locked="false" />
    <sodipodi:guide
       position="-58.541447,-254.87557"
       orientation="1,0"
       id="guide1500"
       inkscape:locked="false" />
    <sodipodi:guide
       position="133.5836,-29.248715"
       orientation="1,0"
       id="guide2645"
       inkscape:locked="false" />
  </sodipodi:namedview>
  <metadata
     id="metadata1261">
    <rdf:RDF>
      <cc:Work
         rdf:about="">
        <dc:format>image/svg+xml</dc:format>
        <dc:type
           rdf:resource="http://purl.org/dc/dcmitype/StillImage" />
        <dc:title></dc:title>
      </cc:Work>
    </rdf:RDF>
  </metadata>
  <g
     inkscape:label="Camada 1"
     inkscape:groupmode="layer"
     id="layer1"
     transform="translate(0,-260.19646)">
    <g
       id="g11538"
       transform="matrix(0.23992004,0,0,0.23992004,322.19969,-311.59913)" />
    <g
       id="g11540"
       transform="matrix(0.23992004,0,0,0.23992004,322.19969,-311.59913)" />
    <g
       id="g11542"
       transform="matrix(0.23992004,0,0,0.23992004,322.19969,-311.59913)" />
    <g
       id="g11544"
       transform="matrix(0.23992004,0,0,0.23992004,322.19969,-311.59913)" />
    <g
       id="g11546"
       transform="matrix(0.23992004,0,0,0.23992004,322.19969,-311.59913)" />
    <g
       id="g11548"
       transform="matrix(0.23992004,0,0,0.23992004,322.19969,-311.59913)" />
    <g
       id="g11550"
       transform="matrix(0.23992004,0,0,0.23992004,322.19969,-311.59913)" />
    <g
       id="g11552"
       transform="matrix(0.23992004,0,0,0.23992004,322.19969,-311.59913)" />
    <g
       id="g11554"
       transform="matrix(0.23992004,0,0,0.23992004,322.19969,-311.59913)" />
    <g
       id="g11556"
       transform="matrix(0.23992004,0,0,0.23992004,322.19969,-311.59913)" />
    <g
       id="g11558"
       transform="matrix(0.23992004,0,0,0.23992004,322.19969,-311.59913)" />
    <g
       id="g11560"
       transform="matrix(0.23992004,0,0,0.23992004,322.19969,-311.59913)" />
    <g
       id="g11562"
       transform="matrix(0.23992004,0,0,0.23992004,322.19969,-311.59913)" />
    <g
       id="g11564"
       transform="matrix(0.23992004,0,0,0.23992004,322.19969,-311.59913)" />
    <g
       id="g11566"
       transform="matrix(0.23992004,0,0,0.23992004,322.19969,-311.59913)" />
    <g
       id="g11776"
       transform="matrix(0.17297807,0,0,0.17297807,146.71543,-251.27638)" />
    <g
       id="g11778"
       transform="matrix(0.17297807,0,0,0.17297807,146.71543,-251.27638)" />
    <g
       id="g11780"
       transform="matrix(0.17297807,0,0,0.17297807,146.71543,-251.27638)" />
    <g
       id="g11782"
       transform="matrix(0.17297807,0,0,0.17297807,146.71543,-251.27638)" />
    <g
       id="g11784"
       transform="matrix(0.17297807,0,0,0.17297807,146.71543,-251.27638)" />
    <g
       id="g11786"
       transform="matrix(0.17297807,0,0,0.17297807,146.71543,-251.27638)" />
    <g
       id="g11788"
       transform="matrix(0.17297807,0,0,0.17297807,146.71543,-251.27638)" />
    <g
       id="g11790"
       transform="matrix(0.17297807,0,0,0.17297807,146.71543,-251.27638)" />
    <g
       id="g11792"
       transform="matrix(0.17297807,0,0,0.17297807,146.71543,-251.27638)" />
    <g
       id="g11794"
       transform="matrix(0.17297807,0,0,0.17297807,146.71543,-251.27638)" />
    <g
       id="g11796"
       transform="matrix(0.17297807,0,0,0.17297807,146.71543,-251.27638)" />
    <g
       id="g11798"
       transform="matrix(0.17297807,0,0,0.17297807,146.71543,-251.27638)" />
    <g
       id="g11800"
       transform="matrix(0.17297807,0,0,0.17297807,146.71543,-251.27638)" />
    <g
       id="g11802"
       transform="matrix(0.17297807,0,0,0.17297807,146.71543,-251.27638)" />
    <g
       id="g11804"
       transform="matrix(0.17297807,0,0,0.17297807,146.71543,-251.27638)" />
    <g
       transform="matrix(0.90678443,0,0,0.90678443,219.78822,-503.67595)"
       id="layer1-4"
       inkscape:label="Camada 1">
      <g
         id="g12171" />
    </g>
    <g
       id="g1006"
       transform="matrix(0.90678443,0,0,0.90678443,185.37614,-221.72211)">
      <g
         id="g909"
         transform="matrix(1.9486444,0,0,1.9486444,55.696718,-541.83423)">
        <g
           aria-label="SIGNALS"
           transform="matrix(0.88130225,0,0,1.1346845,-0.38566168,29.948625)"
           style="font-style:normal;font-variant:normal;font-weight:normal;font-stretch:normal;font-size:10.71866608px;line-height:15;font-family:Anurati;-inkscape-font-specification:Anurati;letter-spacing:0px;word-spacing:0px;fill:#4d4d4d;fill-opacity:1;stroke:none;stroke-width:1.60779989"
           id="text2500">
          <path
             id="path1030"
             style="font-style:normal;font-variant:normal;font-weight:normal;font-stretch:normal;font-family:couture;-inkscape-font-specification:couture;fill:#4d4d4d;fill-opacity:1;stroke-width:1.75268912"
             d="m -103.87638,474.40632 q 0,0.42064 0.15191,0.71276 0.15189,0.29212 0.39727,0.47907 0.25706,0.17527 0.58422,0.26875 0.33887,0.0818 0.71276,0.0818 0.24539,0 0.52581,-0.0351 0.28043,-0.0468 0.52581,-0.16358 0.24537,-0.11685 0.40897,-0.31549 0.16358,-0.21032 0.16358,-0.52581 0,-0.33885 -0.22201,-0.54916 -0.21032,-0.21033 -0.56086,-0.35054 -0.35054,-0.15191 -0.79455,-0.24538 -0.44402,-0.10519 -0.89972,-0.2337 -0.46739,-0.11683 -0.9114,-0.28043 -0.44401,-0.17527 -0.79454,-0.44401 -0.35054,-0.26874 -0.57255,-0.66602 -0.21033,-0.39727 -0.21033,-0.98151 0,-0.64264 0.26875,-1.11003 0.28043,-0.47908 0.72444,-0.79456 0.44402,-0.31547 1.00488,-0.46738 0.56086,-0.1519 1.12172,-0.1519 0.65433,0 1.25026,0.1519 0.6076,0.14022 1.074972,0.46738 0.467387,0.32717 0.736133,0.84129 0.280433,0.50245 0.280433,1.22688 h -1.776058 q -0.0233,-0.3739 -0.16359,-0.61928 -0.12853,-0.24537 -0.35053,-0.38559 -0.22202,-0.14022 -0.51412,-0.19864 -0.29212,-0.0584 -0.61929,-0.0584 -0.22201,0 -0.44401,0.0468 -0.22202,0.0468 -0.40896,0.16358 -0.17527,0.11685 -0.29212,0.30381 -0.11685,0.17527 -0.11685,0.43233 0,0.24537 0.0935,0.39727 0.0935,0.1519 0.36223,0.28043 0.28043,0.11685 0.75949,0.25706 0.49076,0.12854 1.27363,0.32718 0.15189,0.0351 0.39727,0.10519 0.24537,0.0584 0.51412,0.17527 0.280432,0.1052 0.549179,0.28043 0.280432,0.17527 0.502434,0.43233 0.233699,0.25706 0.37391,0.61929 0.140211,0.35054 0.140211,0.81792 0,0.57254 -0.222002,1.0633 -0.222002,0.49075 -0.666018,0.85297 -0.432329,0.35054 -1.086674,0.56087 -0.64265,0.19863 -1.49563,0.19863 -0.68939,0 -1.34373,-0.17527 -0.64264,-0.17527 -1.1334,-0.53749 -0.49075,-0.36221 -0.79456,-0.92308 -0.2921,-0.56086 -0.28042,-1.33205 z m -8.36326,2.71082 v -8.31943 h 1.79944 v 6.77707 h 4.27656 v 1.54236 z m -10.04455,0.0584 3.78581,-8.33112 h 1.84617 l 3.72739,8.33112 h -1.71764 l -0.87634,-1.84617 h -4.21814 l -0.87635,1.84617 z m 4.73226,-6.76538 -1.40215,3.22494 h 2.76926 l -1.35542,-3.22494 z m -11.30173,0.66602 v 6.11104 h -1.44889 v -8.37785 h 1.44889 0.65434 l 3.72738,5.21133 v -5.21133 h 1.55406 v 8.37785 h -1.55406 z m -2.26408,1.92795 q 0,0.11685 -0.0351,0.39729 -0.0351,0.26874 -0.0934,0.58422 -0.0584,0.31548 -0.1519,0.61929 -0.0818,0.30379 -0.19864,0.46738 -0.26875,0.50244 -0.66603,0.92308 -0.39727,0.40896 -0.88802,0.70108 -0.49076,0.29212 -1.0633,0.4557 -0.56086,0.16358 -1.16846,0.16358 -0.88803,0 -1.6709,-0.33885 -0.78287,-0.33885 -1.37878,-0.92309 -0.58422,-0.59591 -0.92309,-1.37878 -0.33885,-0.78287 -0.33885,-1.68258 0,-0.88803 0.33885,-1.6709 0.33887,-0.78287 0.92309,-1.36709 0.59591,-0.59592 1.37878,-0.93477 0.78287,-0.33885 1.6709,-0.33885 0.6076,0 1.16846,0.16358 0.56086,0.16359 1.03993,0.45571 0.49075,0.28042 0.88803,0.68939 0.39727,0.39727 0.6777,0.88801 -0.28043,0.14023 -0.4557,0.2337 -0.16358,0.0935 -0.32716,0.17527 -0.1519,0.0701 -0.33885,0.16359 -0.18696,0.0934 -0.49076,0.24537 -0.32717,-0.54918 -0.89971,-0.88803 -0.57255,-0.33885 -1.26194,-0.33885 -0.52581,0 -0.9932,0.19864 -0.45569,0.19864 -0.79454,0.53749 -0.33886,0.33885 -0.53749,0.80624 -0.19864,0.45569 -0.19864,0.9815 0,0.5258 0.19864,0.99319 0.19863,0.4557 0.53749,0.80624 0.33885,0.33885 0.79454,0.53749 0.46739,0.18696 0.9932,0.18696 0.70107,0 1.2853,-0.35054 0.58424,-0.35054 0.92309,-0.9114 0,0 -0.16358,0 -0.16359,-0.0117 -0.40897,0 -0.24538,0 -0.53748,0 -0.28044,0 -0.52581,0.0117 -0.24539,0 -0.40897,0 -0.16358,0 -0.16358,-0.0117 v -1.26194 q 0.44401,0 0.95814,0 0.5258,0 1.07498,0 0.56085,0 1.12172,0.0117 0.57255,0 1.11003,0 z m -11.34482,-4.17139 h 1.83448 v 8.3428 h -1.83448 z m -6.32648,5.57355 q 0,0.42064 0.1519,0.71276 0.1519,0.29212 0.39728,0.47907 0.25706,0.17527 0.58423,0.26875 0.33885,0.0818 0.71276,0.0818 0.24537,0 0.52581,-0.0351 0.28043,-0.0468 0.5258,-0.16358 0.24538,-0.11685 0.40896,-0.31549 0.16358,-0.21032 0.16358,-0.52581 0,-0.33885 -0.222,-0.54916 -0.21033,-0.21033 -0.56086,-0.35054 -0.35054,-0.15191 -0.79456,-0.24538 -0.44401,-0.10519 -0.8997,-0.2337 -0.46739,-0.11683 -0.91141,-0.28043 -0.44401,-0.17527 -0.79455,-0.44401 -0.35054,-0.26874 -0.57254,-0.66602 -0.21033,-0.39727 -0.21033,-0.98151 0,-0.64264 0.26875,-1.11003 0.28043,-0.47908 0.72445,-0.79456 0.44401,-0.31547 1.00487,-0.46738 0.56086,-0.1519 1.12172,-0.1519 0.65434,0 1.25025,0.1519 0.6076,0.14022 1.07499,0.46738 0.46737,0.32717 0.73612,0.84129 0.28043,0.50245 0.28043,1.22688 h -1.77606 q -0.0233,-0.3739 -0.16358,-0.61928 -0.12853,-0.24537 -0.35054,-0.38559 -0.222,-0.14022 -0.51412,-0.19864 -0.29211,-0.0584 -0.61928,-0.0584 -0.22201,0 -0.44402,0.0468 -0.222,0.0468 -0.40896,0.16358 -0.17527,0.11685 -0.29212,0.30381 -0.11683,0.17527 -0.11683,0.43233 0,0.24537 0.0934,0.39727 0.0934,0.1519 0.36221,0.28043 0.28043,0.11685 0.75951,0.25706 0.49075,0.12854 1.27361,0.32718 0.15191,0.0351 0.39728,0.10519 0.24538,0.0584 0.51413,0.17527 0.28043,0.1052 0.54917,0.28043 0.28043,0.17527 0.50244,0.43233 0.23369,0.25706 0.37391,0.61929 0.14021,0.35054 0.14021,0.81792 0,0.57254 -0.222,1.0633 -0.22202,0.49075 -0.66603,0.85297 -0.43233,0.35054 -1.08666,0.56087 -0.64266,0.19863 -1.49563,0.19863 -0.6894,0 -1.34373,-0.17527 -0.64266,-0.17527 -1.13341,-0.53749 -0.49076,-0.36221 -0.79455,-0.92308 -0.29212,-0.56086 -0.28043,-1.33205 z"
             inkscape:connector-curvature="0" />
        </g>
        <path
           sodipodi:nodetypes="ccccc"
           inkscape:connector-curvature="0"
           d="m -133.49142,550.80419 h 45.848864 l -0.02103,3.30576 -45.828094,-0.0486 z"
           style="opacity:1;vector-effect:none;fill:#e47128;fill-opacity:0.93333333;stroke:none;stroke-width:2.24608707;stroke-linecap:butt;stroke-linejoin:miter;stroke-miterlimit:4;stroke-dasharray:none;stroke-dashoffset:0;stroke-opacity:1"
           id="path2727" />
        <path
           sodipodi:nodetypes="ccccc"
           inkscape:connector-curvature="0"
           d="m -133.49101,555.70217 h 65.06551 l -0.03084,3.30576 -65.03602,-0.0486 z"
           style="opacity:1;vector-effect:none;fill:#00d455;fill-opacity:1;stroke:none;stroke-width:2.6757009;stroke-linecap:butt;stroke-linejoin:miter;stroke-miterlimit:4;stroke-dasharray:none;stroke-dashoffset:0;stroke-opacity:1"
           id="path2731" />
        <g
           id="g3118"
           transform="matrix(0.91722241,0,0,0.91722241,78.87231,72.488045)"
           style="fill:#4d4d4d">
          <path
             id="path81"
             d="m -179.38397,535.44171 0.85537,-2.72577 h 0.75901 l 0.86805,2.72577 h -0.71701 l -0.15104,-0.55767 h -0.78409 l -0.13835,0.55767 z m 1.20761,-2.0799 -0.24727,0.99811 h 0.51568 z"
             style="fill:#4d4d4d;stroke-width:0.14579417"
             inkscape:connector-curvature="0" />
          <path
             id="path83"
             d="m -176.4694,532.71594 h 1.0987 c 0.75478,0 1.03995,0.38577 1.03995,0.91004 0,0.37324 -0.1509,0.65841 -0.44861,0.81762 l 0.53244,0.99811 h -0.79676 l -0.41085,-0.86383 h -0.3397 v 0.86383 h -0.67517 z m 1.42163,0.91427 c 0,-0.24318 -0.088,-0.36477 -0.40268,-0.36477 h -0.34378 v 0.77154 h 0.35646 c 0.23488,0 0.39,-0.10483 0.39,-0.40677 z"
             style="fill:#4d4d4d;stroke-width:0.14579417"
             inkscape:connector-curvature="0" />
          <path
             id="path85"
             d="m -173.78518,532.71594 h 0.89313 c 1.01896,0 1.35866,0.48243 1.35866,1.3378 0,0.64588 -0.19712,1.38811 -1.35443,1.38811 h -0.89736 z m 0.67517,0.5495 v 1.61875 h 0.25572 c 0.55781,0 0.59965,-0.3397 0.59965,-0.80099 0,-0.53244 -0.0546,-0.81762 -0.65841,-0.81762 h -0.19696 z"
             style="fill:#4d4d4d;stroke-width:0.14579417"
             inkscape:connector-curvature="0" />
          <path
             id="path87"
             d="m -169.53703,532.71594 h 0.64995 v 1.79064 c 0,0.80508 -0.61642,0.97712 -1.09857,0.97712 -0.46551,0 -1.06094,-0.15513 -1.06094,-0.98134 v -1.78642 h 0.67517 v 1.66074 c 0,0.45284 0.15936,0.55766 0.41523,0.55766 0.30617,0 0.4193,-0.13835 0.4193,-0.55358 v -1.66482 z"
             style="fill:#4d4d4d;stroke-width:0.14579417"
             inkscape:connector-curvature="0" />
          <path
             id="path89"
             d="m -168.28306,534.88404 h 0.70448 v -1.61029 h -0.70448 v -0.55781 h 2.08836 v 0.55781 h -0.70871 v 1.61029 h 0.70871 v 0.55767 h -2.08836 z"
             style="fill:#4d4d4d;stroke-width:0.14579417"
             inkscape:connector-curvature="0" />
          <path
             id="path91"
             d="m -164.99919,535.44171 h -0.63741 v -2.72577 h 0.73393 l 0.88467,1.63552 v -1.63552 h 0.62896 v 2.72577 h -0.68348 l -0.93104,-1.74443 z"
             style="fill:#4d4d4d;stroke-width:0.14579417"
             inkscape:connector-curvature="0" />
          <path
             id="path93"
             d="m -160.6293,534.07897 c 0,0.78831 -0.28926,1.40487 -1.16577,1.40487 -0.78423,0 -1.14492,-0.47398 -1.14492,-1.37557 0,-0.82198 0.31448,-1.43009 1.14069,-1.43009 0.77562,0 1.17,0.36069 1.17,1.40079 z m -0.71702,0 c 0,-0.66672 -0.0546,-0.8513 -0.45284,-0.8513 -0.36069,0 -0.42353,0.21389 -0.42353,0.8806 0,0.54936 0.0377,0.82607 0.42777,0.82607 0.39408,0 0.4486,-0.22641 0.4486,-0.85537 z"
             style="fill:#4d4d4d;stroke-width:0.14579417"
             inkscape:connector-curvature="0" />
          <path
             id="path95"
             d="m -176.99382,538.08218 c 0,0.79677 -0.32702,1.40488 -1.16155,1.40488 -0.78845,0 -1.13646,-0.49906 -1.13646,-1.38388 0,-0.8303 0.33547,-1.42164 1.14477,-1.42164 0.78423,-1.4e-4 1.15324,0.41099 1.15324,1.40064 z m -0.57443,0 c 0,-0.68348 -0.1006,-0.95189 -0.57881,-0.95189 -0.45706,0 -0.5702,0.27672 -0.5702,0.97289 0,0.60811 0.0838,0.93512 0.56189,0.93512 0.47398,-1.4e-4 0.58712,-0.3104 0.58712,-0.95612 z"
             style="fill:#4d4d4d;stroke-width:0.14579417"
             inkscape:connector-curvature="0" />
          <path
             id="path97"
             d="m -176.36866,536.71915 h 1.02741 c 0.7297,0 1.00219,0.38169 1.00219,0.91428 0,0.57035 -0.36477,0.94358 -1.02318,0.94358 h -0.46538 v 0.86806 h -0.54104 z m 1.45503,0.93528 c 0,-0.28518 -0.1006,-0.48652 -0.48229,-0.48652 h -0.43184 v 0.96034 h 0.44861 c 0.29363,0 0.46552,-0.12159 0.46552,-0.47382 z"
             style="fill:#4d4d4d;stroke-width:0.14579417"
             inkscape:connector-curvature="0" />
          <path
             id="path99"
             d="m -171.7136,536.71915 v 0.44876 h -1.3881 v 0.66263 h 1.25791 v 0.44453 h -1.25791 v 0.71702 h 1.38373 v 0.45283 h -1.92478 v -2.72577 z"
             style="fill:#4d4d4d;stroke-width:0.14579417"
             inkscape:connector-curvature="0" />
          <path
             id="path101"
             d="m -170.53077,539.44492 h -0.51173 v -2.72577 h 0.59134 l 1.06094,1.85363 v -1.85363 h 0.50314 v 2.72577 h -0.54936 l -1.0987,-1.93731 z"
             style="fill:#4d4d4d;stroke-width:0.14579417"
             inkscape:connector-curvature="0" />
          <path
             id="path103"
             d="m -167.81331,538.60209 v -0.44045 h 1.14901 v 0.44045 z"
             style="fill:#4d4d4d;stroke-width:0.14579417"
             inkscape:connector-curvature="0" />
          <path
             id="path105"
             d="m -165.46034,537.4404 c 0,-0.44453 0.44861,-0.759 1.01065,-0.759 0.30616,0 0.57866,0.063 0.83452,0.20556 l -0.15089,0.50314 c -0.17612,-0.15513 -0.40269,-0.25995 -0.6794,-0.25995 -0.25573,0 -0.4403,0.0796 -0.4403,0.27249 0,0.49059 1.37965,0.32716 1.37965,1.27905 0,0.5702 -0.52428,0.80508 -1.10279,0.80508 -0.29786,0 -0.62896,-0.0672 -0.90582,-0.24742 l 0.17612,-0.49905 c 0.21388,0.18865 0.47792,0.30194 0.78408,0.30194 0.26418,0 0.46975,-0.0881 0.46975,-0.30631 -2.9e-4,-0.57837 -1.37557,-0.36857 -1.37557,-1.29553 z"
             style="fill:#4d4d4d;stroke-width:0.14579417"
             inkscape:connector-curvature="0" />
          <path
             id="path107"
             d="m -160.63775,538.08218 c 0,0.79677 -0.32702,1.40488 -1.16155,1.40488 -0.78846,0 -1.13647,-0.49906 -1.13647,-1.38388 0,-0.8303 0.33548,-1.42164 1.14478,-1.42164 0.78423,-1.4e-4 1.15324,0.41099 1.15324,1.40064 z m -0.57443,0 c 0,-0.68348 -0.10061,-0.95189 -0.57881,-0.95189 -0.45707,0 -0.5702,0.27672 -0.5702,0.97289 0,0.60811 0.0838,0.93512 0.56189,0.93512 0.47383,-1.4e-4 0.58712,-0.3104 0.58712,-0.95612 z"
             style="fill:#4d4d4d;stroke-width:0.14579417"
             inkscape:connector-curvature="0" />
          <path
             id="path109"
             d="m -158.54065,536.71915 h 0.52427 v 1.75711 c 0,0.73394 -0.46552,1.0108 -1.06094,1.0108 -0.57866,0 -1.0315,-0.23911 -1.0315,-0.99811 v -1.7698 h 0.5409 v 1.67751 c 0,0.50737 0.17204,0.64587 0.51159,0.64587 0.38577,0 0.51582,-0.17627 0.51582,-0.65418 v -1.6692 z"
             style="fill:#4d4d4d;stroke-width:0.14579417"
             inkscape:connector-curvature="0" />
          <path
             id="path111"
             d="m -157.33275,536.71915 h 1.01065 c 0.7297,0 1.00642,0.34816 1.00642,0.88075 0,0.37323 -0.16359,0.64995 -0.46975,0.79676 l 0.57443,1.04826 h -0.6415 l -0.47806,-0.94358 h -0.46115 v 0.94358 h -0.54104 z m 1.44249,0.8892 c 0,-0.30631 -0.12582,-0.44044 -0.48229,-0.44044 h -0.4193 v 0.89313 h 0.43184 c 0.27278,0 0.46975,-0.11313 0.46975,-0.45269 z"
             style="fill:#4d4d4d;stroke-width:0.14579417"
             inkscape:connector-curvature="0" />
          <path
             id="path113"
             d="m -152.56047,539.27303 c -0.27672,0.14682 -0.54512,0.21403 -0.85537,0.21403 -0.78423,0 -1.23284,-0.46553 -1.23284,-1.40065 0,-0.89736 0.5116,-1.40487 1.30399,-1.40487 0.28108,0 0.54512,0.0713 0.75914,0.20134 l -0.18034,0.46129 c -0.19711,-0.15512 -0.39,-0.21388 -0.60388,-0.21388 -0.46129,0 -0.70448,0.31448 -0.70448,0.94358 0,0.63742 0.22219,0.96881 0.70856,0.96881 0.26418,0 0.49906,-0.0797 0.6794,-0.20135 z"
             style="fill:#4d4d4d;stroke-width:0.14579417"
             inkscape:connector-curvature="0" />
          <path
             id="path115"
             d="m -149.90556,536.71915 v 0.44876 h -1.3881 v 0.66263 h 1.25791 v 0.44453 h -1.25791 v 0.71702 h 1.38373 v 0.45283 h -1.92477 v -2.72577 z"
             style="fill:#4d4d4d;stroke-width:0.14579417"
             inkscape:connector-curvature="0" />
          <path
             id="path117"
             d="m -177.09442,543.27639 c -0.27672,0.14682 -0.54512,0.21403 -0.85538,0.21403 -0.78422,0 -1.23283,-0.46552 -1.23283,-1.40065 0,-0.89736 0.51159,-1.40487 1.30398,-1.40487 0.28109,0 0.54513,0.0713 0.759,0.20135 l -0.18019,0.46129 c -0.19712,-0.15513 -0.39001,-0.21389 -0.60389,-0.21389 -0.46129,0 -0.70448,0.31448 -0.70448,0.94359 0,0.63741 0.2222,0.9688 0.70857,0.9688 0.26417,0 0.49905,-0.0797 0.6794,-0.20134 z"
             style="fill:#4d4d4d;stroke-width:0.14579417"
             inkscape:connector-curvature="0" />
          <path
             id="path119"
             d="m -174.26777,542.08555 c 0,0.79676 -0.32701,1.40487 -1.16154,1.40487 -0.78845,0 -1.13646,-0.49906 -1.13646,-1.38388 0,-0.83029 0.33547,-1.42164 1.14477,-1.42164 0.78408,-1.4e-4 1.15323,0.411 1.15323,1.40065 z m -0.57457,0 c 0,-0.68349 -0.1006,-0.9519 -0.5788,-0.9519 -0.45707,0 -0.5702,0.27672 -0.5702,0.97289 0,0.60811 0.0838,0.93513 0.56188,0.93513 0.47399,-1.5e-4 0.58712,-0.3104 0.58712,-0.95612 z"
             style="fill:#4d4d4d;stroke-width:0.14579417"
             inkscape:connector-curvature="0" />
          <path
             id="path121"
             d="m -172.01976,541.5655 -0.46538,0.93921 h -0.38577 l -0.50314,-0.97712 v 1.9207 h -0.43607 v -2.72577 h 0.47806 l 0.65403,1.24975 0.63742,-1.24975 h 0.46537 v 2.72577 h -0.44452 z"
             style="fill:#4d4d4d;stroke-width:0.14579417"
             inkscape:connector-curvature="0" />
          <path
             id="path123"
             d="m -169.29385,541.5655 -0.46538,0.93921 h -0.38577 l -0.50313,-0.97712 v 1.9207 h -0.43607 v -2.72577 h 0.47806 l 0.65403,1.24975 0.63741,-1.24975 h 0.46538 v 2.72577 h -0.44453 z"
             style="fill:#4d4d4d;stroke-width:0.14579417"
             inkscape:connector-curvature="0" />
          <path
             id="path125"
             d="m -166.71883,540.72252 h 0.52428 v 1.75711 c 0,0.73393 -0.46553,1.01079 -1.06095,1.01079 -0.57866,0 -1.03149,-0.2391 -1.03149,-0.99811 v -1.76979 h 0.54089 v 1.6775 c 0,0.50737 0.17204,0.64587 0.51159,0.64587 0.38577,0 0.51582,-0.17626 0.51582,-0.65418 v -1.66919 z"
             style="fill:#4d4d4d;stroke-width:0.14579417"
             inkscape:connector-curvature="0" />
          <path
             id="path127"
             d="m -165.07879,543.44829 h -0.51174 v -2.72577 h 0.59134 l 1.06095,1.85362 v -1.85362 h 0.50313 v 2.72577 h -0.54935 l -1.0987,-1.93732 z"
             style="fill:#4d4d4d;stroke-width:0.14579417"
             inkscape:connector-curvature="0" />
          <path
             id="path129"
             d="m -162.78487,542.99545 h 0.72547 v -1.81995 h -0.72547 v -0.45284 h 2.00452 v 0.45284 h -0.73801 v 1.81995 h 0.73801 v 0.45284 h -2.00452 z"
             style="fill:#4d4d4d;stroke-width:0.14579417"
             inkscape:connector-curvature="0" />
          <path
             id="path131"
             d="m -157.93255,541.17127 h -0.8596 v 2.27702 h -0.54104 v -2.27702 h -0.85961 v -0.44875 h 2.26025 z"
             style="fill:#4d4d4d;stroke-width:0.14579417"
             inkscape:connector-curvature="0" />
          <path
             id="path133"
             d="m -156.28857,541.94281 0.56189,-1.22029 h 0.5409 l -0.85538,1.65228 v 1.07349 h -0.54512 v -1.06095 l -0.89737,-1.66482 h 0.58289 z"
             style="fill:#4d4d4d;stroke-width:0.14579417"
             inkscape:connector-curvature="0" />
        </g>
      </g>
    </g>
  </g>
  <style
     type="text/css"
     id="style10107">
	.st0{fill:none;stroke:#000000;stroke-linejoin:round;stroke-miterlimit:10;}
	.st1{fill:none;stroke:#000000;stroke-width:3;stroke-linejoin:round;stroke-miterlimit:10;}
</style>
  <style
     type="text/css"
     id="style10107-4">
	.st0{fill:none;stroke:#000000;stroke-linejoin:round;stroke-miterlimit:10;}
	.st1{fill:none;stroke:#000000;stroke-width:3;stroke-linejoin:round;stroke-miterlimit:10;}
</style>
  <style
     type="text/css"
     id="style10107-8">
	.st0{fill:none;stroke:#000000;stroke-linejoin:round;stroke-miterlimit:10;}
	.st1{fill:none;stroke:#000000;stroke-width:3;stroke-linejoin:round;stroke-miterlimit:10;}
</style>
  <style
     type="text/css"
     id="style10107-9">
	.st0{fill:none;stroke:#000000;stroke-linejoin:round;stroke-miterlimit:10;}
	.st1{fill:none;stroke:#000000;stroke-width:3;stroke-linejoin:round;stroke-miterlimit:10;}
</style>
  <style
     type="text/css"
     id="style10107-4-7">
	.st0{fill:none;stroke:#000000;stroke-linejoin:round;stroke-miterlimit:10;}
	.st1{fill:none;stroke:#000000;stroke-width:3;stroke-linejoin:round;stroke-miterlimit:10;}
</style>
  <style
     type="text/css"
     id="style10107-8-3">
	.st0{fill:none;stroke:#000000;stroke-linejoin:round;stroke-miterlimit:10;}
	.st1{fill:none;stroke:#000000;stroke-width:3;stroke-linejoin:round;stroke-miterlimit:10;}
</style>
</svg>
