<?xml version="1.0" encoding="UTF-8" standalone="no"?>
<!-- Created with Inkscape (http://www.inkscape.org/) -->

<svg
   xmlns:dc="http://purl.org/dc/elements/1.1/"
   xmlns:cc="http://creativecommons.org/ns#"
   xmlns:rdf="http://www.w3.org/1999/02/22-rdf-syntax-ns#"
   xmlns:svg="http://www.w3.org/2000/svg"
   xmlns="http://www.w3.org/2000/svg"
   xmlns:sodipodi="http://sodipodi.sourceforge.net/DTD/sodipodi-0.dtd"
   xmlns:inkscape="http://www.inkscape.org/namespaces/inkscape"
   width="500.00003"
   height="332"
   viewBox="0 0 132.29167 87.841665"
   version="1.1"
   id="svg1264"
   inkscape:version="0.92.2 (unknown)"
   sodipodi:docname="logo2.svg">
  <defs
     id="defs1258" />
  <sodipodi:namedview
     id="base"
     pagecolor="#ffffff"
     bordercolor="#666666"
     borderopacity="1.0"
     inkscape:pageopacity="0.0"
     inkscape:pageshadow="2"
     inkscape:zoom="0.35"
     inkscape:cx="-201.19331"
     inkscape:cy="10.569148"
     inkscape:document-units="mm"
     inkscape:current-layer="g909"
     showgrid="false"
     inkscape:window-width="1024"
     inkscape:window-height="713"
     inkscape:window-x="0"
     inkscape:window-y="27"
     inkscape:window-maximized="1"
     units="px"
     showguides="true"
     inkscape:guide-bbox="true">
    <sodipodi:guide
       position="-88.877969,-269.13796"
       orientation="1,0"
       id="guide1395"
       inkscape:locked="false" />
    <sodipodi:guide
       position="-58.541447,-254.87557"
       orientation="1,0"
       id="guide1500"
       inkscape:locked="false" />
    <sodipodi:guide
       position="133.5836,-29.248715"
       orientation="1,0"
       id="guide2645"
       inkscape:locked="false" />
  </sodipodi:namedview>
  <metadata
     id="metadata1261">
    <rdf:RDF>
      <cc:Work
         rdf:about="">
        <dc:format>image/svg+xml</dc:format>
        <dc:type
           rdf:resource="http://purl.org/dc/dcmitype/StillImage" />
        <dc:title></dc:title>
      </cc:Work>
    </rdf:RDF>
  </metadata>
  <g
     inkscape:label="Camada 1"
     inkscape:groupmode="layer"
     id="layer1"
     transform="translate(0,-209.15834)">
    <g
       id="g11538"
       transform="matrix(0.23992004,0,0,0.23992004,322.19969,-311.59913)" />
    <g
       id="g11540"
       transform="matrix(0.23992004,0,0,0.23992004,322.19969,-311.59913)" />
    <g
       id="g11542"
       transform="matrix(0.23992004,0,0,0.23992004,322.19969,-311.59913)" />
    <g
       id="g11544"
       transform="matrix(0.23992004,0,0,0.23992004,322.19969,-311.59913)" />
    <g
       id="g11546"
       transform="matrix(0.23992004,0,0,0.23992004,322.19969,-311.59913)" />
    <g
       id="g11548"
       transform="matrix(0.23992004,0,0,0.23992004,322.19969,-311.59913)" />
    <g
       id="g11550"
       transform="matrix(0.23992004,0,0,0.23992004,322.19969,-311.59913)" />
    <g
       id="g11552"
       transform="matrix(0.23992004,0,0,0.23992004,322.19969,-311.59913)" />
    <g
       id="g11554"
       transform="matrix(0.23992004,0,0,0.23992004,322.19969,-311.59913)" />
    <g
       id="g11556"
       transform="matrix(0.23992004,0,0,0.23992004,322.19969,-311.59913)" />
    <g
       id="g11558"
       transform="matrix(0.23992004,0,0,0.23992004,322.19969,-311.59913)" />
    <g
       id="g11560"
       transform="matrix(0.23992004,0,0,0.23992004,322.19969,-311.59913)" />
    <g
       id="g11562"
       transform="matrix(0.23992004,0,0,0.23992004,322.19969,-311.59913)" />
    <g
       id="g11564"
       transform="matrix(0.23992004,0,0,0.23992004,322.19969,-311.59913)" />
    <g
       id="g11566"
       transform="matrix(0.23992004,0,0,0.23992004,322.19969,-311.59913)" />
    <g
       id="g11776"
       transform="matrix(0.17297807,0,0,0.17297807,146.71543,-251.27638)" />
    <g
       id="g11778"
       transform="matrix(0.17297807,0,0,0.17297807,146.71543,-251.27638)" />
    <g
       id="g11780"
       transform="matrix(0.17297807,0,0,0.17297807,146.71543,-251.27638)" />
    <g
       id="g11782"
       transform="matrix(0.17297807,0,0,0.17297807,146.71543,-251.27638)" />
    <g
       id="g11784"
       transform="matrix(0.17297807,0,0,0.17297807,146.71543,-251.27638)" />
    <g
       id="g11786"
       transform="matrix(0.17297807,0,0,0.17297807,146.71543,-251.27638)" />
    <g
       id="g11788"
       transform="matrix(0.17297807,0,0,0.17297807,146.71543,-251.27638)" />
    <g
       id="g11790"
       transform="matrix(0.17297807,0,0,0.17297807,146.71543,-251.27638)" />
    <g
       id="g11792"
       transform="matrix(0.17297807,0,0,0.17297807,146.71543,-251.27638)" />
    <g
       id="g11794"
       transform="matrix(0.17297807,0,0,0.17297807,146.71543,-251.27638)" />
    <g
       id="g11796"
       transform="matrix(0.17297807,0,0,0.17297807,146.71543,-251.27638)" />
    <g
       id="g11798"
       transform="matrix(0.17297807,0,0,0.17297807,146.71543,-251.27638)" />
    <g
       id="g11800"
       transform="matrix(0.17297807,0,0,0.17297807,146.71543,-251.27638)" />
    <g
       id="g11802"
       transform="matrix(0.17297807,0,0,0.17297807,146.71543,-251.27638)" />
    <g
       id="g11804"
       transform="matrix(0.17297807,0,0,0.17297807,146.71543,-251.27638)" />
    <g
       transform="matrix(0.90678443,0,0,0.90678443,219.78822,-503.67595)"
       id="layer1-4"
       inkscape:label="Camada 1">
      <g
         id="g12171" />
    </g>
    <g
       id="g1006"
       transform="matrix(0.90678443,0,0,0.90678443,185.37614,-221.72211)">
      <g
         id="g909"
         transform="matrix(1.9486444,0,0,1.9486444,55.696718,-541.83423)">
        <g
           id="g3193"
           transform="matrix(2.1433487,0,0,2.1433487,148.59636,-649.09852)">
          <path
             style="fill:none;fill-opacity:1;stroke:#62aeb2;stroke-width:0.41693237;stroke-linecap:butt;stroke-linejoin:miter;stroke-miterlimit:4;stroke-dasharray:none;stroke-opacity:1"
             d="m -112.49142,556.68718 0.87108,0.11625 v 0 l 0.63655,1.51015 1.1056,-1.04547 0.63656,2.2072 0.77058,-1.8587 0.90458,2.09099 0.56955,-3.02032 0.63657,4.06584 0.73706,-5.576 1.0051,3.13646 1.14748,-1.21973 0.92971,1.45209 0.77056,-3.02034 0.9381,3.71735 1.239614,-3.13649 2.91105,-0.0114"
             id="path2496"
             inkscape:connector-curvature="0"
             sodipodi:nodetypes="cccccccccccccccccc" />
          <text
             xml:space="preserve"
             style="font-style:normal;font-variant:normal;font-weight:normal;font-stretch:normal;font-size:5.00089693px;line-height:15;font-family:Anurati;-inkscape-font-specification:Anurati;letter-spacing:0px;word-spacing:0px;fill:#4d4d4d;fill-opacity:1;stroke:none;stroke-width:0.75013453"
             x="-148.73203"
             y="501.84921"
             id="text2500"
             transform="scale(0.88130224,1.1346845)"><tspan
               sodipodi:role="line"
               id="tspan2498"
               x="-148.73203"
               y="501.84921"
               style="font-style:normal;font-variant:normal;font-weight:normal;font-stretch:normal;font-family:couture;-inkscape-font-specification:couture;fill:#4d4d4d;fill-opacity:1;stroke-width:0.75013453">SIGNALS</tspan></text>
          <g
             transform="matrix(0.0665967,0,0,0.0665967,-145.81376,533.15362)"
             id="g2725">
            <g
               id="g2723">
              <path
                 style="fill:#62aeb2"
                 inkscape:connector-curvature="0"
                 d="m 345.23,245.898 0.872,-1.612 c -8.086,-4.307 -16.404,-7.133 -24.769,-8.328 -3.465,-0.491 -6.956,-0.74 -10.377,-0.74 -27.598,0 -52.288,16.601 -61.44,41.308 l 8.883,3.289 c 7.781,-21.009 28.903,-35.124 52.558,-35.124 2.978,0 6.021,0.217 9.042,0.646 16.037,2.291 31.447,11.039 45.803,26 l 5.229,-5.019 c -7.064,-7.549 -15.685,-14.948 -25.801,-20.42 z"
                 id="path2647" />
              <path
                 style="fill:#62aeb2"
                 inkscape:connector-curvature="0"
                 d="m 280.472,356.516 c -23.789,-11.059 -39.16,-34.446 -39.16,-59.582 0,-12.716 3.727,-25.022 10.776,-35.588 2.682,-4.024 5.851,-7.796 9.416,-11.21 l 4.367,4.562 c -3.233,3.094 -6.103,6.509 -8.53,10.15 -6.355,9.526 -9.715,20.62 -9.715,32.085 0,23.038 13.605,43.675 35.508,53.855 z"
                 id="path2649" />
              <path
                 style="fill:#62aeb2"
                 inkscape:connector-curvature="0"
                 d="m 396.354,304.689 -2.738,-6.389 c -0.25,-0.493 -0.595,-1.154 -1.013,-1.933 -4.795,9.08 -30.021,53.416 -71.498,59.339 -3.387,0.484 -6.88,1.592 -10.183,1.592 -9.66,-0.004 -18.926,-2.037 -27.538,-6.044 l -3.162,5.795 c 9.61,4.471 19.938,6.739 30.705,6.743 3.651,0 7.397,-0.271 11.134,-0.805 40.02,-5.716 65.279,-42.317 74.582,-58.423 z"
                 id="path2651" />
              <path
                 style="fill:#e47128"
                 inkscape:connector-curvature="0"
                 d="m 405.128,335.549 c -8.114,11.026 -17.068,20.572 -26.674,28.371 l 2.318,2.854 c 9.499,-7.713 18.374,-17.07 26.441,-27.847 16.509,22.525 43.977,49.245 83.794,54.929 l 0.943,-6.603 c -40.696,-5.811 -67.953,-34.586 -84.16,-59.075 -0.763,-1.156 -2.662,7.371 -2.662,7.371 z"
                 id="path2653" />
              <path
                 style="fill:#e5ad24"
                 inkscape:connector-curvature="0"
                 d="m 511.482,362.999 c -5.256,0.344 -10.605,0.145 -15.971,-0.622 -12.228,-1.748 -24.078,-6.63 -35.223,-14.511 l -3.465,4.898 c 11.929,8.436 24.659,13.668 37.838,15.552 3.966,0.567 7.967,0.854 11.891,0.854 1.651,0 3.293,-0.063 4.93,-0.163 z"
                 id="path2655" />
              <path
                 style="fill:#e47128"
                 inkscape:connector-curvature="0"
                 d="m 399.523,303.331 -3.17,1.358 -2.738,-6.389 c -2.051,-4.038 -9.736,-18.259 -22.584,-31.983 l -5.229,5.019 c 11.268,11.742 18.037,23.381 20.425,27.84 l 9.612,16.774 8.217,-4.711 z"
                 id="path2657" />
              <path
                 style="fill:#62aeb2"
                 inkscape:connector-curvature="0"
                 d="m 506.553,357.661 c -3.405,0 -6.858,-0.248 -10.263,-0.738 -42.807,-6.113 -67.851,-49.576 -72.437,-58.228 l 6.623,-3.51 c 2.628,4.957 26.83,48.599 66.878,54.318 3.056,0.439 6.148,0.663 9.198,0.663 v 7.495 z"
                 id="path2659" />
              <path
                 style="fill:#00878f"
                 inkscape:connector-curvature="0"
                 d="m 566.199,280.234 c -2.853,-9.264 -8.175,-17.812 -15.393,-24.721 -9.459,-9.048 -21.471,-14.832 -34.738,-16.726 l 1.213,-8.492 c 15.051,2.147 28.694,8.725 39.456,19.02 8.272,7.918 14.379,17.736 17.661,28.394 z"
                 id="path2661" />
              <path
                 style="fill:#00878f"
                 inkscape:connector-curvature="0"
                 d="m 451.607,252.945 -4.043,-4.604 c 14.56,-12.787 30.402,-20.478 47.089,-22.858 3.94,-0.563 7.934,-0.849 11.867,-0.849 20.32,0 39.357,7.507 53.604,21.139 l -4.236,4.428 c -13.101,-12.535 -30.633,-19.439 -49.367,-19.439 -3.645,0 -7.346,0.266 -11.001,0.788 -15.489,2.209 -30.263,9.408 -43.913,21.395 z"
                 id="path2663" />
              <path
                 style="fill:#e5ad24"
                 inkscape:connector-curvature="0"
                 d="m 420.48,312.622 -21.253,-10.11 5.055,-10.627 c 3.283,-6.899 15.691,-30.904 37.54,-50.085 l 8.844,-7.764 15.527,17.688 -8.844,7.764 c -18.944,16.63 -29.825,38.328 -31.813,42.509 z"
                 id="path2665" />
              <path
                 style="fill:#00878f"
                 inkscape:connector-curvature="0"
                 d="m 240.581,325.311 c -3.925,-8.957 -5.915,-18.505 -5.915,-28.377 0,-19.555 7.901,-37.88 22.248,-51.602 5.012,-4.794 10.668,-8.883 16.812,-12.153 l 3.455,6.49 c -5.55,2.955 -10.659,6.647 -15.186,10.978 -12.882,12.32 -19.977,28.759 -19.977,46.287 0,8.851 1.782,17.404 5.296,25.426 z"
                 id="path2667" />
              <path
                 style="fill:#e5ad24"
                 inkscape:connector-curvature="0"
                 d="m 265.907,254.738 -4.439,-4.643 c 13.137,-12.562 30.713,-19.48 49.489,-19.48 3.66,0 7.372,0.265 11.032,0.787 8.964,1.281 17.812,4.258 26.297,8.846 l -3.055,5.65 c -7.816,-4.226 -15.941,-6.963 -24.151,-8.137 -3.359,-0.479 -6.766,-0.723 -10.123,-0.723 -17.114,10e-4 -33.113,6.287 -45.05,17.7 z"
                 id="path2669" />
              <path
                 style="fill:#e5ad24"
                 inkscape:connector-curvature="0"
                 d="m 221.919,296.934 h -3.922 c 0,-24.146 9.729,-46.749 27.395,-63.645 l 2.711,2.834 c -16.885,16.149 -26.184,37.745 -26.184,60.811 z"
                 id="path2671" />
              <path
                 style="fill:#00878f"
                 inkscape:connector-curvature="0"
                 d="m 377.118,229.892 c -15.847,-12.668 -33.217,-20.424 -51.628,-23.053 -4.822,-0.688 -9.712,-1.036 -14.533,-1.036 -19.073,0 -37.384,5.363 -52.953,15.511 l -2.855,-4.381 c 16.42,-10.703 35.719,-16.36 55.809,-16.36 5.067,0 10.206,0.366 15.272,1.089 19.349,2.763 37.568,10.887 54.154,24.145 z"
                 id="path2673" />
              <path
                 style="fill:#00878f"
                 inkscape:connector-curvature="0"
                 d="m 413.901,263.84 -10.318,-7.281 c 16.506,-23.396 45.024,-52.546 87.146,-58.56 l 1.785,12.502 c -37.663,5.378 -63.538,31.974 -78.613,53.339 z"
                 id="path2675" />
              <path
                 style="fill:#62aeb2"
                 inkscape:connector-curvature="0"
                 d="m 425.715,265.347 -7.301,-5.52 c 14.446,-19.11 39.062,-42.947 74.293,-47.974 4.582,-0.655 9.23,-0.987 13.813,-0.987 11.874,0 23.376,2.166 34.187,6.438 l -3.363,8.512 c -9.735,-3.847 -20.105,-5.797 -30.823,-5.797 -4.151,0 -8.363,0.302 -12.52,0.896 -32.146,4.586 -54.877,26.693 -68.286,44.432 z"
                 id="path2677" />
              <path
                 style="fill:#62aeb2"
                 inkscape:connector-curvature="0"
                 d="m 410.996,280.249 -10.215,-4.158 3.037,-7.463 0.262,-0.413 c 13.188,-20.874 42.108,-56.862 87.627,-63.356 4.915,-0.702 9.899,-1.058 14.813,-1.058 v 11.029 c -4.394,0 -8.854,0.319 -13.254,0.947 -38.844,5.542 -64.693,34.458 -79.603,57.918 z"
                 id="path2679" />
              <path
                 style="fill:#62aeb2"
                 inkscape:connector-curvature="0"
                 d="m 410.822,268.945 -5.285,-6.484 c -8.783,-12.447 -18.619,-23.062 -29.235,-31.549 l 4.898,-6.128 c 11.16,8.922 21.479,20.038 30.667,33.04 l 5.031,6.158 z"
                 id="path2681" />
              <path
                 style="fill:#e47128"
                 inkscape:connector-curvature="0"
                 d="m 573.146,232.169 c -17.769,-17.003 -41.43,-26.366 -66.625,-26.366 -4.817,0 -9.706,0.349 -14.53,1.036 l -0.738,-5.178 c 5.067,-0.723 10.205,-1.089 15.269,-1.089 26.549,0 51.494,9.879 70.24,27.817 z"
                 id="path2683" />
              <path
                 style="fill:#00878f"
                 inkscape:connector-curvature="0"
                 d="m 324.215,378.084 -1.906,-13.346 c 53.362,-7.618 79.951,-69.773 80.213,-70.4 1.182,-2.841 29.705,-69.851 90.745,-78.562 l 1.904,13.346 c -53.525,7.638 -79.944,69.772 -80.205,70.399 -1.186,2.85 -29.727,69.85 -90.751,78.563 z"
                 id="path2685" />
              <path
                 style="fill:#00878f"
                 inkscape:connector-curvature="0"
                 d="m 268.146,364.592 5.853,-10.072 c 14.362,8.344 31.006,11.457 48.135,9.006 l 1.65,11.526 c 11.158,-1.593 22.06,-5.413 32.401,-11.353 l -9.766,-17.004 c -8.176,4.696 -16.726,7.706 -25.413,8.946 -3.368,0.481 -6.759,0.725 -10.084,0.725 -16.981,-10e-4 -32.855,-6.243 -44.698,-17.576 -5.736,-5.49 -10.21,-11.846 -13.295,-18.889 l -16.833,7.373 c 4.019,9.171 9.881,17.582 17.419,24.796 l -0.848,0.886 c 4.715,4.512 9.913,8.398 15.479,11.636 z"
                 id="path2687" />
              <path
                 style="fill:#00878f"
                 inkscape:connector-curvature="0"
                 d="m 310.927,381.103 c -23.386,-0.001 -45.333,-8.682 -61.805,-24.441 l 3.701,-3.868 c 15.471,14.803 36.104,22.955 58.098,22.956 4.24,0 8.554,-0.31 12.827,-0.921 44.007,-6.285 70.607,-43.525 82.582,-65.257 l 3.037,-7.188 4.932,2.084 -3.211,7.564 c -12.424,22.588 -40.193,61.472 -86.582,68.096 -4.524,0.646 -9.092,0.975 -13.579,0.975 z"
                 id="path2689" />
              <path
                 style="fill:#00878f"
                 inkscape:connector-curvature="0"
                 d="m 310.927,395.585 c -27.139,-0.004 -52.641,-10.112 -71.815,-28.463 l 6.779,-7.084 c 17.341,16.597 40.436,25.738 65.031,25.742 4.719,0 9.51,-0.344 14.243,-1.022 18.344,-2.621 35.622,-10.432 51.357,-23.216 l 6.182,7.609 c -17.134,13.92 -36.025,22.437 -56.15,25.312 -5.191,0.744 -10.449,1.122 -15.627,1.122 z"
                 id="path2691" />
              <path
                 style="fill:#e5ad24"
                 inkscape:connector-curvature="0"
                 d="m 325.601,387.789 -1.213,-8.492 c 39.533,-5.645 65.689,-35.059 80.683,-58.772 0.459,-0.796 4.496,-7.801 6.042,-10.741 l 7.594,3.992 c -1.712,3.255 -6.065,10.794 -6.25,11.113 l -0.087,0.146 c -15.953,25.253 -43.955,56.641 -86.769,62.754 z"
                 id="path2693" />
              <path
                 style="fill:#62aeb2"
                 inkscape:connector-curvature="0"
                 d="m 268.458,364.057 c -24.613,-14.292 -39.307,-39.385 -39.307,-67.123 0,-4.036 0.317,-8.083 0.944,-12.027 l 6.051,0.961 c -0.575,3.628 -0.868,7.351 -0.868,11.066 0,25.529 13.554,48.642 36.256,61.824 z"
                 id="path2695" />
              <path
                 style="fill:#e47128"
                 inkscape:connector-curvature="0"
                 d="m 238.933,286.309 -11.623,-1.844 c 3.364,-21.195 15.08,-39.924 32.991,-52.735 18.191,-13.013 40.842,-18.38 63.796,-15.105 5.169,0.739 10.318,1.945 15.307,3.584 l -3.674,11.18 c -4.335,-1.424 -8.809,-2.472 -13.297,-3.114 -40.727,-5.797 -77.413,19.682 -83.5,58.034 z"
                 id="path2697" />
              <path
                 style="fill:#e5ad24"
                 inkscape:connector-curvature="0"
                 d="M 237.418,368.893 C 226.687,358.626 218.56,346.567 213.262,333.05 l 13.691,-5.367 c 4.514,11.515 11.455,21.805 20.631,30.584 z"
                 id="path2699" />
              <path
                 style="fill:#62aeb2"
                 inkscape:connector-curvature="0"
                 d="m 310.927,388.842 c -25.394,-0.003 -49.241,-9.446 -67.157,-26.591 -16.307,-15.605 -26.196,-36.384 -27.847,-58.507 l -0.009,-0.159 -0.242,-6.491 8.572,-0.32 0.239,6.41 c 1.51,19.978 10.464,38.75 25.218,52.87 16.312,15.609 38.054,24.207 61.221,24.21 4.453,0 8.982,-0.325 13.465,-0.967 l 1.215,8.492 c -4.884,0.698 -9.822,1.053 -14.675,1.053 z"
                 id="path2701" />
              <path
                 style="fill:#e5ad24"
                 inkscape:connector-curvature="0"
                 d="m 350.312,358.852 -2.665,-4.644 2.321,-1.332 c 30.274,-17.379 47.186,-50.602 50.269,-57.085 l 1.149,-2.417 4.834,2.299 -1.149,2.417 c -3.202,6.735 -20.781,41.258 -52.437,59.429 z"
                 id="path2703" />
              <path
                 style="fill:#00878f"
                 inkscape:connector-curvature="0"
                 d="m 417.194,293.418 c -0.268,-0.643 -2.177,-5.146 -5.808,-11.729 l 1.363,-0.751 c -12.627,-22.914 -40.847,-62.358 -87.973,-69.085 -4.584,-0.655 -9.234,-0.987 -13.82,-0.987 v 9.152 c 4.154,0 8.368,0.302 12.526,0.896 5.095,0.728 9.944,1.895 14.571,3.399 l -3.348,10.179 c 43.5,14.308 65.375,65.454 65.586,65.956 1.206,2.899 30.249,71.119 92.633,80.023 l 2.586,-18.121 c -51.977,-7.419 -78.062,-68.328 -78.316,-68.932 z"
                 id="path2705" />
              <path
                 style="fill:#e5ad24"
                 inkscape:connector-curvature="0"
                 d="m 588.917,296.934 h -7.354 c 0,-20.25 -8.935,-39.615 -24.514,-53.13 -16.736,-14.519 -39.445,-20.973 -62.312,-17.715 L 493.7,218.81 c 24.973,-3.564 49.821,3.523 68.168,19.439 17.19,14.912 27.049,36.302 27.049,58.685 z"
                 id="path2707" />
              <rect
                 style="fill:#e5ad24"
                 x="301.64801"
                 y="266.091"
                 width="19.886999"
                 height="61.699001"
                 id="rect2709" />
              <rect
                 style="fill:#00878f"
                 x="280.74301"
                 y="286.99799"
                 width="61.695"
                 height="19.889999"
                 id="rect2711" />
              <path
                 style="fill:#62aeb2"
                 inkscape:connector-curvature="0"
                 d="m 607.156,305.922 -7.859,-0.729 c 0.251,-2.714 0.379,-5.492 0.379,-8.26 0,-24.208 -9.749,-46.866 -27.451,-63.803 l 5.457,-5.703 c 19.272,18.439 29.887,43.124 29.887,69.506 -10e-4,3.009 -0.139,6.034 -0.413,8.989 z"
                 id="path2713" />
              <path
                 style="fill:#00878f"
                 inkscape:connector-curvature="0"
                 d="m 580.115,310.515 -5.131,-1.02 c 0.824,-4.148 1.242,-8.411 1.242,-12.669 0,-17.818 -7.21,-34.53 -20.301,-47.057 l 3.615,-3.779 c 14.133,13.523 21.916,31.577 21.916,50.836 10e-4,4.6 -0.451,9.205 -1.341,13.689 z"
                 id="path2715" />
              <path
                 style="fill:#e47128"
                 inkscape:connector-curvature="0"
                 d="m 571.13,311.774 -11.875,-3.027 c 0.978,-3.834 1.473,-7.809 1.474,-11.814 0,-28.039 -24.317,-50.851 -54.208,-50.851 -2.91,0 -5.886,0.213 -8.845,0.632 -0.783,0.112 -1.564,0.241 -2.342,0.384 l -2.211,-12.055 c 0.938,-0.172 1.877,-0.326 2.827,-0.462 3.532,-0.501 7.087,-0.755 10.57,-0.755 36.648,0 66.464,28.311 66.464,63.107 -0.001,5.027 -0.625,10.019 -1.854,14.841 z"
                 id="path2717" />
              <path
                 style="fill:#00878f"
                 inkscape:connector-curvature="0"
                 d="m 472.94,248.847 -1.413,-2.549 c -28.136,15.598 -44.606,46.13 -47.623,52.093 l -2.979,6.064 -3.151,-1.549 -1.299,2.885 11.18,5.02 5.012,-11.162 c 2.948,-5.463 25.839,-45.765 62.673,-52.552 l -1.108,-6.016 c -7.232,1.336 -14.381,3.938 -21.292,7.766 z"
                 id="path2719" />
              <path
                 style="fill:#62aeb2"
                 inkscape:connector-curvature="0"
                 d="m 506.553,383.94 c -4.619,0 -9.324,-0.338 -13.984,-1.004 -20.805,-2.971 -40.108,-12.638 -57.375,-28.731 l 7.52,-8.068 c 15.586,14.527 32.885,23.235 51.415,25.882 4.951,0.706 9.925,0.976 14.812,0.861 l 0.258,11.027 c -0.883,0.021 -1.763,0.033 -2.646,0.033 z"
                 id="path2721" />
            </g>
          </g>
          <path
             id="path2727"
             style="opacity:1;vector-effect:none;fill:#e47128;fill-opacity:0.93333333;stroke:none;stroke-width:0.96130425;stroke-linecap:butt;stroke-linejoin:miter;stroke-miterlimit:4;stroke-dasharray:none;stroke-dashoffset:0;stroke-opacity:1"
             d="m -131.1486,560.62897 h 19.62289 l -0.009,1.41483 -19.614,-0.0208 z"
             inkscape:connector-curvature="0"
             sodipodi:nodetypes="ccccc" />
          <path
             id="path2731"
             style="opacity:1;vector-effect:none;fill:#00d455;fill-opacity:1;stroke:none;stroke-width:1.14517498;stroke-linecap:butt;stroke-linejoin:miter;stroke-miterlimit:4;stroke-dasharray:none;stroke-dashoffset:0;stroke-opacity:1"
             d="m -131.14842,562.72526 h 27.84743 l -0.0132,1.41483 -27.83481,-0.0208 z"
             inkscape:connector-curvature="0"
             sodipodi:nodetypes="ccccc" />
          <g
             style="fill:#4d4d4d"
             transform="matrix(0.39256262,0,0,0.39256262,-40.258904,355.91413)"
             id="g3118">
            <path
               inkscape:connector-curvature="0"
               style="fill:#4d4d4d;stroke-width:0.14579417"
               d="m -179.38397,535.44171 0.85537,-2.72577 h 0.75901 l 0.86805,2.72577 h -0.71701 l -0.15104,-0.55767 h -0.78409 l -0.13835,0.55767 z m 1.20761,-2.0799 -0.24727,0.99811 h 0.51568 z"
               id="path81" />
            <path
               inkscape:connector-curvature="0"
               style="fill:#4d4d4d;stroke-width:0.14579417"
               d="m -176.4694,532.71594 h 1.0987 c 0.75478,0 1.03995,0.38577 1.03995,0.91004 0,0.37324 -0.1509,0.65841 -0.44861,0.81762 l 0.53244,0.99811 h -0.79676 l -0.41085,-0.86383 h -0.3397 v 0.86383 h -0.67517 z m 1.42163,0.91427 c 0,-0.24318 -0.088,-0.36477 -0.40268,-0.36477 h -0.34378 v 0.77154 h 0.35646 c 0.23488,0 0.39,-0.10483 0.39,-0.40677 z"
               id="path83" />
            <path
               inkscape:connector-curvature="0"
               style="fill:#4d4d4d;stroke-width:0.14579417"
               d="m -173.78518,532.71594 h 0.89313 c 1.01896,0 1.35866,0.48243 1.35866,1.3378 0,0.64588 -0.19712,1.38811 -1.35443,1.38811 h -0.89736 z m 0.67517,0.5495 v 1.61875 h 0.25572 c 0.55781,0 0.59965,-0.3397 0.59965,-0.80099 0,-0.53244 -0.0546,-0.81762 -0.65841,-0.81762 h -0.19696 z"
               id="path85" />
            <path
               inkscape:connector-curvature="0"
               style="fill:#4d4d4d;stroke-width:0.14579417"
               d="m -169.53703,532.71594 h 0.64995 v 1.79064 c 0,0.80508 -0.61642,0.97712 -1.09857,0.97712 -0.46551,0 -1.06094,-0.15513 -1.06094,-0.98134 v -1.78642 h 0.67517 v 1.66074 c 0,0.45284 0.15936,0.55766 0.41523,0.55766 0.30617,0 0.4193,-0.13835 0.4193,-0.55358 v -1.66482 z"
               id="path87" />
            <path
               inkscape:connector-curvature="0"
               style="fill:#4d4d4d;stroke-width:0.14579417"
               d="m -168.28306,534.88404 h 0.70448 v -1.61029 h -0.70448 v -0.55781 h 2.08836 v 0.55781 h -0.70871 v 1.61029 h 0.70871 v 0.55767 h -2.08836 z"
               id="path89" />
            <path
               inkscape:connector-curvature="0"
               style="fill:#4d4d4d;stroke-width:0.14579417"
               d="m -164.99919,535.44171 h -0.63741 v -2.72577 h 0.73393 l 0.88467,1.63552 v -1.63552 h 0.62896 v 2.72577 h -0.68348 l -0.93104,-1.74443 z"
               id="path91" />
            <path
               inkscape:connector-curvature="0"
               style="fill:#4d4d4d;stroke-width:0.14579417"
               d="m -160.6293,534.07897 c 0,0.78831 -0.28926,1.40487 -1.16577,1.40487 -0.78423,0 -1.14492,-0.47398 -1.14492,-1.37557 0,-0.82198 0.31448,-1.43009 1.14069,-1.43009 0.77562,0 1.17,0.36069 1.17,1.40079 z m -0.71702,0 c 0,-0.66672 -0.0546,-0.8513 -0.45284,-0.8513 -0.36069,0 -0.42353,0.21389 -0.42353,0.8806 0,0.54936 0.0377,0.82607 0.42777,0.82607 0.39408,0 0.4486,-0.22641 0.4486,-0.85537 z"
               id="path93" />
            <path
               inkscape:connector-curvature="0"
               style="fill:#4d4d4d;stroke-width:0.14579417"
               d="m -176.99382,538.08218 c 0,0.79677 -0.32702,1.40488 -1.16155,1.40488 -0.78845,0 -1.13646,-0.49906 -1.13646,-1.38388 0,-0.8303 0.33547,-1.42164 1.14477,-1.42164 0.78423,-1.4e-4 1.15324,0.41099 1.15324,1.40064 z m -0.57443,0 c 0,-0.68348 -0.1006,-0.95189 -0.57881,-0.95189 -0.45706,0 -0.5702,0.27672 -0.5702,0.97289 0,0.60811 0.0838,0.93512 0.56189,0.93512 0.47398,-1.4e-4 0.58712,-0.3104 0.58712,-0.95612 z"
               id="path95" />
            <path
               inkscape:connector-curvature="0"
               style="fill:#4d4d4d;stroke-width:0.14579417"
               d="m -176.36866,536.71915 h 1.02741 c 0.7297,0 1.00219,0.38169 1.00219,0.91428 0,0.57035 -0.36477,0.94358 -1.02318,0.94358 h -0.46538 v 0.86806 h -0.54104 z m 1.45503,0.93528 c 0,-0.28518 -0.1006,-0.48652 -0.48229,-0.48652 h -0.43184 v 0.96034 h 0.44861 c 0.29363,0 0.46552,-0.12159 0.46552,-0.47382 z"
               id="path97" />
            <path
               inkscape:connector-curvature="0"
               style="fill:#4d4d4d;stroke-width:0.14579417"
               d="m -171.7136,536.71915 v 0.44876 h -1.3881 v 0.66263 h 1.25791 v 0.44453 h -1.25791 v 0.71702 h 1.38373 v 0.45283 h -1.92478 v -2.72577 z"
               id="path99" />
            <path
               inkscape:connector-curvature="0"
               style="fill:#4d4d4d;stroke-width:0.14579417"
               d="m -170.53077,539.44492 h -0.51173 v -2.72577 h 0.59134 l 1.06094,1.85363 v -1.85363 h 0.50314 v 2.72577 h -0.54936 l -1.0987,-1.93731 z"
               id="path101" />
            <path
               inkscape:connector-curvature="0"
               style="fill:#4d4d4d;stroke-width:0.14579417"
               d="m -167.81331,538.60209 v -0.44045 h 1.14901 v 0.44045 z"
               id="path103" />
            <path
               inkscape:connector-curvature="0"
               style="fill:#4d4d4d;stroke-width:0.14579417"
               d="m -165.46034,537.4404 c 0,-0.44453 0.44861,-0.759 1.01065,-0.759 0.30616,0 0.57866,0.063 0.83452,0.20556 l -0.15089,0.50314 c -0.17612,-0.15513 -0.40269,-0.25995 -0.6794,-0.25995 -0.25573,0 -0.4403,0.0796 -0.4403,0.27249 0,0.49059 1.37965,0.32716 1.37965,1.27905 0,0.5702 -0.52428,0.80508 -1.10279,0.80508 -0.29786,0 -0.62896,-0.0672 -0.90582,-0.24742 l 0.17612,-0.49905 c 0.21388,0.18865 0.47792,0.30194 0.78408,0.30194 0.26418,0 0.46975,-0.0881 0.46975,-0.30631 -2.9e-4,-0.57837 -1.37557,-0.36857 -1.37557,-1.29553 z"
               id="path105" />
            <path
               inkscape:connector-curvature="0"
               style="fill:#4d4d4d;stroke-width:0.14579417"
               d="m -160.63775,538.08218 c 0,0.79677 -0.32702,1.40488 -1.16155,1.40488 -0.78846,0 -1.13647,-0.49906 -1.13647,-1.38388 0,-0.8303 0.33548,-1.42164 1.14478,-1.42164 0.78423,-1.4e-4 1.15324,0.41099 1.15324,1.40064 z m -0.57443,0 c 0,-0.68348 -0.10061,-0.95189 -0.57881,-0.95189 -0.45707,0 -0.5702,0.27672 -0.5702,0.97289 0,0.60811 0.0838,0.93512 0.56189,0.93512 0.47383,-1.4e-4 0.58712,-0.3104 0.58712,-0.95612 z"
               id="path107" />
            <path
               inkscape:connector-curvature="0"
               style="fill:#4d4d4d;stroke-width:0.14579417"
               d="m -158.54065,536.71915 h 0.52427 v 1.75711 c 0,0.73394 -0.46552,1.0108 -1.06094,1.0108 -0.57866,0 -1.0315,-0.23911 -1.0315,-0.99811 v -1.7698 h 0.5409 v 1.67751 c 0,0.50737 0.17204,0.64587 0.51159,0.64587 0.38577,0 0.51582,-0.17627 0.51582,-0.65418 v -1.6692 z"
               id="path109" />
            <path
               inkscape:connector-curvature="0"
               style="fill:#4d4d4d;stroke-width:0.14579417"
               d="m -157.33275,536.71915 h 1.01065 c 0.7297,0 1.00642,0.34816 1.00642,0.88075 0,0.37323 -0.16359,0.64995 -0.46975,0.79676 l 0.57443,1.04826 h -0.6415 l -0.47806,-0.94358 h -0.46115 v 0.94358 h -0.54104 z m 1.44249,0.8892 c 0,-0.30631 -0.12582,-0.44044 -0.48229,-0.44044 h -0.4193 v 0.89313 h 0.43184 c 0.27278,0 0.46975,-0.11313 0.46975,-0.45269 z"
               id="path111" />
            <path
               inkscape:connector-curvature="0"
               style="fill:#4d4d4d;stroke-width:0.14579417"
               d="m -152.56047,539.27303 c -0.27672,0.14682 -0.54512,0.21403 -0.85537,0.21403 -0.78423,0 -1.23284,-0.46553 -1.23284,-1.40065 0,-0.89736 0.5116,-1.40487 1.30399,-1.40487 0.28108,0 0.54512,0.0713 0.75914,0.20134 l -0.18034,0.46129 c -0.19711,-0.15512 -0.39,-0.21388 -0.60388,-0.21388 -0.46129,0 -0.70448,0.31448 -0.70448,0.94358 0,0.63742 0.22219,0.96881 0.70856,0.96881 0.26418,0 0.49906,-0.0797 0.6794,-0.20135 z"
               id="path113" />
            <path
               inkscape:connector-curvature="0"
               style="fill:#4d4d4d;stroke-width:0.14579417"
               d="m -149.90556,536.71915 v 0.44876 h -1.3881 v 0.66263 h 1.25791 v 0.44453 h -1.25791 v 0.71702 h 1.38373 v 0.45283 h -1.92477 v -2.72577 z"
               id="path115" />
            <path
               inkscape:connector-curvature="0"
               style="fill:#4d4d4d;stroke-width:0.14579417"
               d="m -177.09442,543.27639 c -0.27672,0.14682 -0.54512,0.21403 -0.85538,0.21403 -0.78422,0 -1.23283,-0.46552 -1.23283,-1.40065 0,-0.89736 0.51159,-1.40487 1.30398,-1.40487 0.28109,0 0.54513,0.0713 0.759,0.20135 l -0.18019,0.46129 c -0.19712,-0.15513 -0.39001,-0.21389 -0.60389,-0.21389 -0.46129,0 -0.70448,0.31448 -0.70448,0.94359 0,0.63741 0.2222,0.9688 0.70857,0.9688 0.26417,0 0.49905,-0.0797 0.6794,-0.20134 z"
               id="path117" />
            <path
               inkscape:connector-curvature="0"
               style="fill:#4d4d4d;stroke-width:0.14579417"
               d="m -174.26777,542.08555 c 0,0.79676 -0.32701,1.40487 -1.16154,1.40487 -0.78845,0 -1.13646,-0.49906 -1.13646,-1.38388 0,-0.83029 0.33547,-1.42164 1.14477,-1.42164 0.78408,-1.4e-4 1.15323,0.411 1.15323,1.40065 z m -0.57457,0 c 0,-0.68349 -0.1006,-0.9519 -0.5788,-0.9519 -0.45707,0 -0.5702,0.27672 -0.5702,0.97289 0,0.60811 0.0838,0.93513 0.56188,0.93513 0.47399,-1.5e-4 0.58712,-0.3104 0.58712,-0.95612 z"
               id="path119" />
            <path
               inkscape:connector-curvature="0"
               style="fill:#4d4d4d;stroke-width:0.14579417"
               d="m -172.01976,541.5655 -0.46538,0.93921 h -0.38577 l -0.50314,-0.97712 v 1.9207 h -0.43607 v -2.72577 h 0.47806 l 0.65403,1.24975 0.63742,-1.24975 h 0.46537 v 2.72577 h -0.44452 z"
               id="path121" />
            <path
               inkscape:connector-curvature="0"
               style="fill:#4d4d4d;stroke-width:0.14579417"
               d="m -169.29385,541.5655 -0.46538,0.93921 h -0.38577 l -0.50313,-0.97712 v 1.9207 h -0.43607 v -2.72577 h 0.47806 l 0.65403,1.24975 0.63741,-1.24975 h 0.46538 v 2.72577 h -0.44453 z"
               id="path123" />
            <path
               inkscape:connector-curvature="0"
               style="fill:#4d4d4d;stroke-width:0.14579417"
               d="m -166.71883,540.72252 h 0.52428 v 1.75711 c 0,0.73393 -0.46553,1.01079 -1.06095,1.01079 -0.57866,0 -1.03149,-0.2391 -1.03149,-0.99811 v -1.76979 h 0.54089 v 1.6775 c 0,0.50737 0.17204,0.64587 0.51159,0.64587 0.38577,0 0.51582,-0.17626 0.51582,-0.65418 v -1.66919 z"
               id="path125" />
            <path
               inkscape:connector-curvature="0"
               style="fill:#4d4d4d;stroke-width:0.14579417"
               d="m -165.07879,543.44829 h -0.51174 v -2.72577 h 0.59134 l 1.06095,1.85362 v -1.85362 h 0.50313 v 2.72577 h -0.54935 l -1.0987,-1.93732 z"
               id="path127" />
            <path
               inkscape:connector-curvature="0"
               style="fill:#4d4d4d;stroke-width:0.14579417"
               d="m -162.78487,542.99545 h 0.72547 v -1.81995 h -0.72547 v -0.45284 h 2.00452 v 0.45284 h -0.73801 v 1.81995 h 0.73801 v 0.45284 h -2.00452 z"
               id="path129" />
            <path
               inkscape:connector-curvature="0"
               style="fill:#4d4d4d;stroke-width:0.14579417"
               d="m -157.93255,541.17127 h -0.8596 v 2.27702 h -0.54104 v -2.27702 h -0.85961 v -0.44875 h 2.26025 z"
               id="path131" />
            <path
               inkscape:connector-curvature="0"
               style="fill:#4d4d4d;stroke-width:0.14579417"
               d="m -156.28857,541.94281 0.56189,-1.22029 h 0.5409 l -0.85538,1.65228 v 1.07349 h -0.54512 v -1.06095 l -0.89737,-1.66482 h 0.58289 z"
               id="path133" />
          </g>
        </g>
      </g>
    </g>
  </g>
  <style
     type="text/css"
     id="style10107">
	.st0{fill:none;stroke:#000000;stroke-linejoin:round;stroke-miterlimit:10;}
	.st1{fill:none;stroke:#000000;stroke-width:3;stroke-linejoin:round;stroke-miterlimit:10;}
</style>
  <style
     type="text/css"
     id="style10107-4">
	.st0{fill:none;stroke:#000000;stroke-linejoin:round;stroke-miterlimit:10;}
	.st1{fill:none;stroke:#000000;stroke-width:3;stroke-linejoin:round;stroke-miterlimit:10;}
</style>
  <style
     type="text/css"
     id="style10107-8">
	.st0{fill:none;stroke:#000000;stroke-linejoin:round;stroke-miterlimit:10;}
	.st1{fill:none;stroke:#000000;stroke-width:3;stroke-linejoin:round;stroke-miterlimit:10;}
</style>
  <style
     type="text/css"
     id="style10107-9">
	.st0{fill:none;stroke:#000000;stroke-linejoin:round;stroke-miterlimit:10;}
	.st1{fill:none;stroke:#000000;stroke-width:3;stroke-linejoin:round;stroke-miterlimit:10;}
</style>
  <style
     type="text/css"
     id="style10107-4-7">
	.st0{fill:none;stroke:#000000;stroke-linejoin:round;stroke-miterlimit:10;}
	.st1{fill:none;stroke:#000000;stroke-width:3;stroke-linejoin:round;stroke-miterlimit:10;}
</style>
  <style
     type="text/css"
     id="style10107-8-3">
	.st0{fill:none;stroke:#000000;stroke-linejoin:round;stroke-miterlimit:10;}
	.st1{fill:none;stroke:#000000;stroke-width:3;stroke-linejoin:round;stroke-miterlimit:10;}
</style>
</svg>
