<?xml version="1.0" encoding="UTF-8" standalone="no"?>
<!-- Created with Inkscape (http://www.inkscape.org/) -->

<svg
   xmlns:dc="http://purl.org/dc/elements/1.1/"
   xmlns:cc="http://creativecommons.org/ns#"
   xmlns:rdf="http://www.w3.org/1999/02/22-rdf-syntax-ns#"
   xmlns:svg="http://www.w3.org/2000/svg"
   xmlns="http://www.w3.org/2000/svg"
   xmlns:sodipodi="http://sodipodi.sourceforge.net/DTD/sodipodi-0.dtd"
   xmlns:inkscape="http://www.inkscape.org/namespaces/inkscape"
   width="57.414585mm"
   height="36mm"
   viewBox="0 0 57.414584 36"
   version="1.1"
   id="svg1777"
   inkscape:version="0.92.2 (unknown)"
   sodipodi:docname="logo-pinguino.svg">
  <defs
     id="defs1771" />
  <sodipodi:namedview
     id="base"
     pagecolor="#ffffff"
     bordercolor="#666666"
     borderopacity="1.0"
     inkscape:pageopacity="0.0"
     inkscape:pageshadow="2"
     inkscape:zoom="0.49497475"
     inkscape:cx="210.16568"
     inkscape:cy="149.7795"
     inkscape:document-units="mm"
     inkscape:current-layer="layer1"
     showgrid="false"
     inkscape:window-width="1024"
     inkscape:window-height="713"
     inkscape:window-x="0"
     inkscape:window-y="27"
     inkscape:window-maximized="1"
     units="mm" />
  <metadata
     id="metadata1774">
    <rdf:RDF>
      <cc:Work
         rdf:about="">
        <dc:format>image/svg+xml</dc:format>
        <dc:type
           rdf:resource="http://purl.org/dc/dcmitype/StillImage" />
        <dc:title></dc:title>
      </cc:Work>
    </rdf:RDF>
  </metadata>
  <g
     inkscape:label="Camada 1"
     inkscape:groupmode="layer"
     id="layer1"
     transform="translate(0,-260.99998)">
    <g
       id="g2431"
       inkscape:export-xdpi="96"
       inkscape:export-ydpi="96">
      <g
         transform="matrix(-1,0,0,1,-1376.2369,632.85699)"
         id="g1857">
        <polygon
           transform="matrix(0,-0.13229691,0.29764056,0,-1410.544,-356.93119)"
           points="70.471,71.917 50,51.446 29.529,71.917 "
           id="polygon1774"
           style="fill:#ffff00" />
        <rect
           id="rect1762"
           height="10.846282"
           width="10.700119"
           transform="matrix(0.70710678,0.70710678,0.70710678,-0.70710678,0,0)"
           y="-727.09436"
           x="-1241.1853"
           style="stroke-width:0.35323474"
           inkscape:transform-center-x="5.5475456"
           inkscape:transform-center-y="4.1770434" />
        <polygon
           transform="matrix(-0.24444791,0,0,0.24444791,-1375.4252,-364.60927)"
           points="5,6.446 5,93.554 26.337,72.216 48.554,50 "
           id="polygon1776" />
        <polygon
           transform="matrix(0,0.25427346,-0.25427346,0,-1362.8954,-365.15746)"
           points="52.469,95 95,95 95,52.469 73.734,73.734 "
           id="polygon1780" />
        <polygon
           style="fill:#1a1a1a;stroke:#ffffff"
           id="polygon1788"
           points="6.446,95 49.577,95 70.614,73.962 27.484,73.962 "
           transform="matrix(0,-0.33740643,-0.33740643,0,-1352.4961,-334.08937)" />
        <path
           sodipodi:nodetypes="ccc"
           id="path1841"
           d="m -1383.7971,-365.80615 -1.3856,-1.24547 -0.3137,1.33434"
           inkscape:connector-curvature="0"
           style="fill:none;stroke:#ffffff;stroke-width:0.49824739;stroke-linecap:round;stroke-linejoin:round" />
      </g>
      <path
         id="path1710"
         style="font-style:normal;font-variant:normal;font-weight:normal;font-stretch:normal;font-size:medium;line-height:15;font-family:Tagon;-inkscape-font-specification:Tagon;letter-spacing:0px;word-spacing:0px;fill:#1a1a1a;fill-opacity:1;stroke:none;stroke-width:1.40499914"
         d="m 54.956226,290.41163 1.34,-1.34005 v -1.89346 l -1.34,-1.34005 h -1.8935 l -1.34,1.34005 v 1.89346 l 1.34,1.34005 z m -2.2731,0.91472 -1.8751,-1.87517 v -2.65266 l 1.8751,-1.87517 h 2.6527 l 1.8752,1.87517 v 2.65266 l -1.8752,1.87517 z m -7.8208,-4.84341 v 4.84341 h -0.9147 v -7.04787 l 5.4883,5.48828 v -4.84341 h 0.9147 v 7.04787 z m -1.372,4.84341 h -0.9147 v -6.403 h 0.9147 z m -2.2868,-6.403 h 0.9147 v 4.52783 l -1.8752,1.87517 h -2.6526 l -1.8752,-1.87517 v -4.52783 h 0.9147 v 4.14823 l 1.3401,1.34005 h 1.8934 l 1.3401,-1.34005 z m -6.8604,3.65886 h -2.7441 v -0.91472 h 3.6588 v 1.78369 l -1.8751,1.87517 h -2.6527 l -1.8751,-1.87517 v -2.65266 l 1.8751,-1.87517 h 3.1558 v 0.91472 h -2.7762 l -1.34,1.34005 v 1.89346 l 1.34,1.34005 h 1.8935 l 1.34,-1.34005 z m -11.4339,-2.09927 v 4.84341 h -0.9147 v -7.04787 l 5.4883,5.48828 v -4.84341 h 0.9147 v 7.04787 z m -1.3721,4.84341 h -0.9147 v -6.403 h 0.9147 z m -6.8603,-5.48828 v 1.82942 h 3.6909 l 0.8827,-0.88269 v -0.064 l -0.8827,-0.8827 z m -0.9147,-0.91472 h 4.9852 l 1.4178,1.41781 v 0.82324 l -1.4178,1.41781 h -4.0705 v 2.74414 h -0.9147 z"
         inkscape:connector-curvature="0" />
      <path
         inkscape:connector-curvature="0"
         d="m 54.619926,289.60707 0.8381,-0.83576 v -1.1809 l -0.8381,-0.83576 h -1.1844 l -0.8383,0.83576 v 1.1809 l 0.8383,0.83576 z m -1.4219,0.57049 -1.1729,-1.1695 v -1.6544 l 1.1729,-1.1695 h 1.6594 l 1.1729,1.1695 v 1.6544 l -1.1729,1.1695 z"
         style="font-style:normal;font-variant:normal;font-weight:normal;font-stretch:normal;font-size:medium;line-height:15;font-family:Tagon;-inkscape-font-specification:Tagon;letter-spacing:0px;word-spacing:0px;fill:#1a1a1a;fill-opacity:1;stroke:none;stroke-width:0.8775599"
         id="path2350"
         sodipodi:nodetypes="cccccccccccccccccc" />
      <g
         transform="translate(-79.495474,223.84174)"
         id="text2354"
         style="font-style:normal;font-variant:normal;font-weight:normal;font-stretch:normal;font-size:3.74013829px;line-height:15;font-family:Anurati;-inkscape-font-specification:Anurati;letter-spacing:0px;word-spacing:0px;fill:#000000;fill-opacity:1;stroke:none;stroke-width:0.78823376"
         aria-label="Cool + smart + free">
        <path
           inkscape:connector-curvature="0"
           d="m 136.63592,69.605397 v 0.365248 h -2.19148 v 0.730496 h 1.82624 v 0.365248 h -1.82624 v 0.730495 h 2.19148 v 0.365248 h -2.55673 v -2.556735 z m -2.73936,0 v 0.365248 h -2.19148 v 0.730496 h 1.82624 v 0.365248 h -1.82624 v 0.730495 h 2.19148 v 0.365248 h -2.55673 v -2.556735 z m -3.30549,0 0.56614,0.566134 v 0.328723 l -0.56614,0.566135 h -0.27211 l 1.09575,1.095743 h -0.515 l -1.09575,-1.095743 h -0.83824 v 1.095743 h -0.36525 v -2.556735 z m -0.15158,1.095744 0.35247,-0.352464 v -0.02557 l -0.35247,-0.352464 h -1.47377 v 0.730496 z m -4.21313,0.365248 v 1.095743 h -0.36525 v -2.556735 h 2.55674 v 0.365248 h -2.19149 v 0.730496 h 2.19149 v 0.365248 z m -2.2061,-0.365248 h 0.7305 v 0.365248 h -0.7305 v 0.730495 h -0.36525 v -0.730495 h -0.73049 v -0.365248 h 0.73049 v -0.730496 h 0.36525 z m -2.2061,-1.095744 v 0.365248 h -1.09574 v 2.191487 h -0.36525 v -2.191487 h -1.09574 v -0.365248 z m -3.30549,0 0.56614,0.566134 v 0.328723 l -0.56614,0.566135 h -0.27211 l 1.09575,1.095743 h -0.515 l -1.09575,-1.095743 h -0.83824 v 1.095743 h -0.36525 v -2.556735 z m -0.15158,1.095744 0.35247,-0.352464 v -0.02557 l -0.35247,-0.352464 h -1.47377 v 0.730496 z m -2.02164,1.460991 H 115.9702 V 71.61426 h -1.82624 v 0.547872 h -0.36525 v -1.353243 l 1.27837,-1.278368 1.27837,1.278368 z M 115.9702,71.249013 V 70.95864 l -0.91312,-0.913119 -0.91312,0.913119 v 0.290373 z m -4.5656,-0.838244 v 1.751363 h -0.36525 v -2.631611 l 1.27837,1.278368 1.27837,-1.278368 v 2.631611 h -0.36525 v -1.751363 l -0.91312,0.913119 z m -2.53847,0.65562 -0.56614,-0.566135 v -0.328723 l 0.56614,-0.566134 h 1.9906 v 0.365248 h -1.83903 l -0.35246,0.352464 v 0.02557 l 0.35246,0.352464 h 1.27289 l 0.56614,0.566134 V 71.596 l -0.56614,0.566134 h -1.9906 v -0.365248 h 1.83903 l 0.35246,-0.352464 v -0.02557 l -0.35246,-0.352464 z m -2.40699,-0.365248 h 0.7305 v 0.365248 h -0.7305 v 0.730495 h -0.36524 v -0.730495 h -0.7305 v -0.365248 h 0.7305 v -0.730496 h 0.36524 z m -4.76283,-1.095744 h 0.36525 v 2.191487 h 2.19149 v 0.365248 h -2.55674 z m -1.08296,2.191487 0.53509,-0.535088 v -0.756063 l -0.53509,-0.535088 h -0.756062 l -0.535089,0.535088 v 0.756063 l 0.535089,0.535088 z m -0.90764,0.365248 -0.748758,-0.748758 v -1.059219 l 0.748758,-0.748758 h 1.05922 l 0.74876,0.748758 v 1.059219 l -0.74876,0.748758 z m -1.831718,-0.365248 0.535088,-0.535088 v -0.756063 l -0.535088,-0.535088 h -0.756063 l -0.535089,0.535088 v 0.756063 l 0.535089,0.535088 z m -0.907641,0.365248 -0.748759,-0.748758 v -1.059219 l 0.748759,-0.748758 h 1.059218 l 0.748759,0.748758 v 1.059219 l -0.748759,0.748758 z m -1.29663,-0.913119 h 0.365247 v 0.164361 l -0.748758,0.748758 h -1.059219 l -0.748758,-0.748758 v -1.059219 l 0.748758,-0.748758 h 1.059219 l 0.748758,0.748758 v 0.164362 h -0.365247 v -0.01278 l -0.535089,-0.535088 h -0.756063 l -0.535088,0.535088 V 71.2618 l 0.535088,0.535088 h 0.756063 L 95.669721,71.2618 Z"
           style="font-style:normal;font-variant:normal;font-weight:normal;font-stretch:normal;font-family:Tagon;-inkscape-font-specification:Tagon;stroke-width:0.78823376"
           id="path2413" />
      </g>
      <path
         inkscape:connector-curvature="0"
         id="path2348"
         d="M 57.211006,292.38468 H 8.4780368"
         style="fill:#1a1a1a;stroke:#1a1a1a;stroke-width:0.5;stroke-linecap:butt;stroke-linejoin:miter;stroke-miterlimit:4;stroke-dasharray:none;stroke-opacity:1" />
    </g>
  </g>
</svg>
